;TYPE=PLATED
;Layer: PTH_Through
;EasyEDA Pro Client v3.2.166, 2026-08-01 17:13:05
;Gerber Generator version 0.3
M48
METRIC,LZ,0000.00000
;Hole size 1 = 0.30500 METRIC
T01C0.30500
;Hole size 2 = 0.91440 METRIC
T02C0.91440
;Hole size 3 = 1.02100 METRIC
T03C1.02100
;Hole size 4 = 1.09982 METRIC
T04C1.09982
;Hole size 5 = 2.74400 METRIC
T05C2.74400
;Hole size 6 = 3.00000 METRIC
T06C3.00000
%
G05
G90
T01
X13.52296Y-40.97401
X31.14802Y-41.021
X19.39798Y-52.324
X37.02304Y-51.435
T02
X6.60654Y-24.25954
X9.144Y-24.257
X11.684Y-24.257
X14.224Y-24.257
X16.764Y-24.257
X19.304Y-24.257
X21.844Y-24.257
X24.384Y-24.257
X26.924Y-24.257
X29.464Y-24.257
X32.004Y-24.257
X34.544Y-24.257
X37.084Y-24.257
X39.624Y-24.257
X42.164Y-24.257
X42.164Y-1.397
X39.624Y-1.397
X37.084Y-1.397
X34.544Y-1.397
X32.004Y-1.397
X29.464Y-1.397
X26.924Y-1.397
X24.384Y-1.397
X21.844Y-1.397
X19.304Y-1.397
X16.764Y-1.397
X14.224Y-1.397
X11.684Y-1.397
X9.144Y-1.397
X6.604Y-1.397
T03
X42.164Y-33.02
X39.624Y-33.02
X37.084Y-33.02
T04
X6.477Y-29.972
X9.017Y-29.972
X11.557Y-29.972
X14.097Y-29.972
T05
X2.5449Y-2.47644
X46.21669Y-2.356
T06
X2.6Y-57.4
X47.4Y-57.4
M30