G04 Layer: BottomLayer*
G04 EasyEDA Pro v3.2.166, 2026-08-01 17:13:05*
G04 Gerber Generator version 0.3*
G04 Scale: 100 percent, Rotated: No, Reflected: No*
G04 Dimensions in millimeters*
G04 Leading zeros omitted, absolute positions, 4 integers and 5 decimals*
G04 Generated by one-click*
G04 Object Configs: Pad,Via,Track,Text,Image,Dimension,BoardOutline,BoardCutout,CopperFilled,SolidRegion,FPCStiffener,Line,PlaneZone,ComponentProperty,ComponentSilkscreen,TearDrop*
G04 Layer Configs: 1,2,3,4,5,6,7,8,9,10,11,13,14,56*
G04 Copper Areas: 1*
%FSLAX45Y45*%
%MOMM*%
%ADD10C,0.2032*%
%ADD11R,1.524X1.524*%
%ADD12C,1.524*%
%ADD13R,1.69926X1.69926*%
%ADD14C,1.69926*%
%ADD15C,3.744*%
%ADD16C,4.0*%
%ADD17C,0.6114*%
%ADD18C,0.61*%
%ADD19C,0.762*%
%ADD20C,0.508*%
G75*


G04 Copper Start*
G36*
G01X426746Y-5573254D02*
G01X404180Y-5553398D01*
G01X379271Y-5536573D01*
G01X352425Y-5523053D01*
G01X324077Y-5513058D01*
G01X294688Y-5506751D01*
G01X264735Y-5504233D01*
G01X234705Y-5505546D01*
G01X205086Y-5510669D01*
G01X176360Y-5519517D01*
G01X148992Y-5531948D01*
G01X123428Y-5547759D01*
G01X100083Y-5566694D01*
G01X79337Y-5588445D01*
G01X61525Y-5612658D01*
G01X46939Y-5638940D01*
G01X35814Y-5666864D01*
G01X35814Y-3302000D01*
G01X3596386Y-3302000D01*
G01X3598293Y-3322583D01*
G01X3603950Y-3342464D01*
G01X3613164Y-3360968D01*
G01X3625621Y-3377463D01*
G01X3640896Y-3391389D01*
G01X3658471Y-3402271D01*
G01X3677746Y-3409738D01*
G01X3698065Y-3413536D01*
G01X3718735Y-3413536D01*
G01X3739054Y-3409738D01*
G01X3758329Y-3402271D01*
G01X3775904Y-3391389D01*
G01X3791179Y-3377463D01*
G01X3803636Y-3360968D01*
G01X3812850Y-3342464D01*
G01X3818507Y-3322583D01*
G01X3820414Y-3302000D01*
G01X3820414Y-3302000D01*
G01X3818507Y-3281417D01*
G01X3812850Y-3261536D01*
G01X3803636Y-3243032D01*
G01X3791179Y-3226537D01*
G01X3775904Y-3212611D01*
G01X3758329Y-3201729D01*
G01X3739054Y-3194262D01*
G01X3718735Y-3190464D01*
G01X3698065Y-3190464D01*
G01X3677746Y-3194262D01*
G01X3658471Y-3201729D01*
G01X3640896Y-3212611D01*
G01X3625621Y-3226537D01*
G01X3613164Y-3243032D01*
G01X3603950Y-3261536D01*
G01X3598293Y-3281417D01*
G01X3596386Y-3302000D01*
G01X35814Y-3302000D01*
G01X35814Y-3082163D01*
G01X526923Y-3082163D01*
G01X528676Y-3093230D01*
G01X533763Y-3103214D01*
G01X541686Y-3111137D01*
G01X551670Y-3116224D01*
G01X562737Y-3117977D01*
G01X732663Y-3117977D01*
G01X743730Y-3116224D01*
G01X753714Y-3111137D01*
G01X761637Y-3103214D01*
G01X766724Y-3093230D01*
G01X768477Y-3082163D01*
G01X768477Y-3007409D01*
G01X781355Y-3007409D01*
G01X784940Y-3028090D01*
G01X792051Y-3047838D01*
G01X802474Y-3066057D01*
G01X815893Y-3082196D01*
G01X831904Y-3095768D01*
G01X850023Y-3106363D01*
G01X869703Y-3113661D01*
G01X890349Y-3117442D01*
G01X911338Y-3117592D01*
G01X932036Y-3114105D01*
G01X983978Y-3166048D01*
G01X993254Y-3173661D01*
G01X1003838Y-3179317D01*
G01X1015321Y-3182801D01*
G01X1027263Y-3183977D01*
G01X1207710Y-3183977D01*
G01X1219652Y-3182801D01*
G01X1231136Y-3179317D01*
G01X1241719Y-3173661D01*
G01X1250995Y-3166048D01*
G01X1324548Y-3092495D01*
G01X1329219Y-3087255D01*
G01X1346989Y-3100420D01*
G01X1366862Y-3110125D01*
G01X1388172Y-3116043D01*
G01X1410203Y-3117976D01*
G01X1432218Y-3115859D01*
G01X1453477Y-3109764D01*
G01X1473269Y-3099894D01*
G01X1490929Y-3086581D01*
G01X1505865Y-3070271D01*
G01X1517577Y-3051511D01*
G01X1525672Y-3030929D01*
G01X1529878Y-3009217D01*
G01X1530054Y-2987102D01*
G01X1526195Y-2965325D01*
G01X1518430Y-2944617D01*
G01X1507019Y-2925673D01*
G01X1492344Y-2909126D01*
G01X1474899Y-2895533D01*
G01X1455267Y-2885349D01*
G01X1434108Y-2878915D01*
G01X1452368Y-2860655D01*
G01X2269814Y-2860655D01*
G01X2281756Y-2859479D01*
G01X2293239Y-2855995D01*
G01X2303822Y-2850339D01*
G01X2313098Y-2842726D01*
G01X2387705Y-2768119D01*
G01X2395318Y-2758843D01*
G01X2400974Y-2748260D01*
G01X2404458Y-2736777D01*
G01X2405634Y-2724835D01*
G01X2405634Y-2672036D01*
G01X2481685Y-2595985D01*
G01X2489298Y-2586709D01*
G01X2494954Y-2576126D01*
G01X2498438Y-2564642D01*
G01X2499614Y-2552700D01*
G01X2499614Y-2519508D01*
G01X2515671Y-2506794D01*
G01X2529145Y-2491369D01*
G01X2539586Y-2473748D01*
G01X2546643Y-2454521D01*
G01X2550081Y-2434330D01*
G01X2549891Y-2421166D01*
G01X2580478Y-2421166D01*
G01X2581573Y-2441967D01*
G01X2586502Y-2462206D01*
G01X2595092Y-2481182D01*
G01X2607047Y-2498239D01*
G01X2621953Y-2512789D01*
G01X2639296Y-2524326D01*
G01X2658475Y-2532453D01*
G01X2678827Y-2536889D01*
G01X2699649Y-2537479D01*
G01X3046535Y-2884365D01*
G01X3057736Y-2893557D01*
G01X3070514Y-2900388D01*
G01X3084380Y-2904594D01*
G01X3098800Y-2906014D01*
G01X3715884Y-2906014D01*
G01X4010900Y-3201030D01*
G01X3991290Y-3193776D01*
G01X3970674Y-3190292D01*
G01X3949769Y-3190700D01*
G01X3929305Y-3194987D01*
G01X3909993Y-3203002D01*
G01X3892508Y-3214466D01*
G01X3877458Y-3228980D01*
G01X3865367Y-3246038D01*
G01X3856657Y-3265046D01*
G01X3851632Y-3285342D01*
G01X3850465Y-3306218D01*
G01X3853199Y-3326947D01*
G01X3859738Y-3346807D01*
G01X3869854Y-3365106D01*
G01X3883194Y-3381206D01*
G01X3899294Y-3394546D01*
G01X3917593Y-3404662D01*
G01X3937453Y-3411201D01*
G01X3958182Y-3413935D01*
G01X3979058Y-3412768D01*
G01X3999354Y-3407743D01*
G01X4018362Y-3399033D01*
G01X4035420Y-3386942D01*
G01X4049934Y-3371892D01*
G01X4061398Y-3354407D01*
G01X4069413Y-3335095D01*
G01X4073700Y-3314631D01*
G01X4074108Y-3293726D01*
G01X4070624Y-3273110D01*
G01X4063370Y-3253500D01*
G01X4104621Y-3294751D01*
G01X4105211Y-3315573D01*
G01X4109647Y-3335925D01*
G01X4117774Y-3355104D01*
G01X4129311Y-3372447D01*
G01X4143861Y-3387353D01*
G01X4160918Y-3399308D01*
G01X4179894Y-3407898D01*
G01X4200133Y-3412827D01*
G01X4220934Y-3413922D01*
G01X4241578Y-3411148D01*
G01X4261352Y-3404598D01*
G01X4279571Y-3394502D01*
G01X4295606Y-3381206D01*
G01X4308902Y-3365171D01*
G01X4318998Y-3346952D01*
G01X4325548Y-3327178D01*
G01X4328322Y-3306534D01*
G01X4327227Y-3285733D01*
G01X4322298Y-3265494D01*
G01X4313708Y-3246518D01*
G01X4301753Y-3229461D01*
G01X4286847Y-3214911D01*
G01X4269504Y-3203374D01*
G01X4250325Y-3195247D01*
G01X4229973Y-3190811D01*
G01X4209151Y-3190221D01*
G01X3798765Y-2779835D01*
G01X3787564Y-2770643D01*
G01X3774786Y-2763812D01*
G01X3760920Y-2759606D01*
G01X3746500Y-2758186D01*
G01X3129416Y-2758186D01*
G01X3129416Y-2758186D01*
G01X2897900Y-2526670D01*
G01X2917510Y-2533924D01*
G01X2938126Y-2537408D01*
G01X2959031Y-2537000D01*
G01X2979495Y-2532713D01*
G01X2998807Y-2524698D01*
G01X3016292Y-2513234D01*
G01X3031342Y-2498720D01*
G01X3043433Y-2481662D01*
G01X3052143Y-2462654D01*
G01X3057168Y-2442358D01*
G01X3058099Y-2425700D01*
G01X3088386Y-2425700D01*
G01X3090293Y-2446283D01*
G01X3095950Y-2466164D01*
G01X3105164Y-2484668D01*
G01X3117621Y-2501163D01*
G01X3132896Y-2515089D01*
G01X3150471Y-2525971D01*
G01X3169746Y-2533438D01*
G01X3190065Y-2537236D01*
G01X3210735Y-2537236D01*
G01X3231054Y-2533438D01*
G01X3250329Y-2525971D01*
G01X3267904Y-2515089D01*
G01X3283179Y-2501163D01*
G01X3295636Y-2484668D01*
G01X3304850Y-2466164D01*
G01X3310507Y-2446283D01*
G01X3312414Y-2425700D01*
G01X3312414Y-2425700D01*
G01X3342386Y-2425700D01*
G01X3344293Y-2446283D01*
G01X3349950Y-2466164D01*
G01X3359164Y-2484668D01*
G01X3371621Y-2501163D01*
G01X3386896Y-2515089D01*
G01X3404471Y-2525971D01*
G01X3423746Y-2533438D01*
G01X3444065Y-2537236D01*
G01X3464735Y-2537236D01*
G01X3485054Y-2533438D01*
G01X3504329Y-2525971D01*
G01X3521904Y-2515089D01*
G01X3537179Y-2501163D01*
G01X3549636Y-2484668D01*
G01X3558850Y-2466164D01*
G01X3564507Y-2446283D01*
G01X3566414Y-2425700D01*
G01X3596386Y-2425700D01*
G01X3598293Y-2446283D01*
G01X3603950Y-2466164D01*
G01X3613164Y-2484668D01*
G01X3625621Y-2501163D01*
G01X3640896Y-2515089D01*
G01X3658471Y-2525971D01*
G01X3677746Y-2533438D01*
G01X3698065Y-2537236D01*
G01X3718735Y-2537236D01*
G01X3739054Y-2533438D01*
G01X3758329Y-2525971D01*
G01X3775904Y-2515089D01*
G01X3791179Y-2501163D01*
G01X3803636Y-2484668D01*
G01X3812850Y-2466164D01*
G01X3818507Y-2446283D01*
G01X3820414Y-2425700D01*
G01X3820414Y-2425700D01*
G01X3850386Y-2425700D01*
G01X3852293Y-2446283D01*
G01X3857950Y-2466164D01*
G01X3867164Y-2484668D01*
G01X3879621Y-2501163D01*
G01X3894896Y-2515089D01*
G01X3912471Y-2525971D01*
G01X3931746Y-2533438D01*
G01X3952065Y-2537236D01*
G01X3972735Y-2537236D01*
G01X3993054Y-2533438D01*
G01X4012329Y-2525971D01*
G01X4029904Y-2515089D01*
G01X4045179Y-2501163D01*
G01X4057636Y-2484668D01*
G01X4066850Y-2466164D01*
G01X4072507Y-2446283D01*
G01X4074414Y-2425700D01*
G01X4074414Y-2425700D01*
G01X4104386Y-2425700D01*
G01X4106293Y-2446283D01*
G01X4111950Y-2466164D01*
G01X4121164Y-2484668D01*
G01X4133621Y-2501163D01*
G01X4148896Y-2515089D01*
G01X4166471Y-2525971D01*
G01X4185746Y-2533438D01*
G01X4206065Y-2537236D01*
G01X4226735Y-2537236D01*
G01X4247054Y-2533438D01*
G01X4266329Y-2525971D01*
G01X4283904Y-2515089D01*
G01X4299179Y-2501163D01*
G01X4311636Y-2484668D01*
G01X4320850Y-2466164D01*
G01X4326507Y-2446283D01*
G01X4328414Y-2425700D01*
G01X4326507Y-2405117D01*
G01X4320850Y-2385236D01*
G01X4311636Y-2366732D01*
G01X4299179Y-2350237D01*
G01X4283904Y-2336311D01*
G01X4266329Y-2325429D01*
G01X4247054Y-2317962D01*
G01X4226735Y-2314164D01*
G01X4206065Y-2314164D01*
G01X4185746Y-2317962D01*
G01X4166471Y-2325429D01*
G01X4148896Y-2336311D01*
G01X4133621Y-2350237D01*
G01X4121164Y-2366732D01*
G01X4111950Y-2385236D01*
G01X4106293Y-2405117D01*
G01X4104386Y-2425700D01*
G01X4104386Y-2425700D01*
G01X4074414Y-2425700D01*
G01X4072507Y-2405117D01*
G01X4066850Y-2385236D01*
G01X4057636Y-2366732D01*
G01X4045179Y-2350237D01*
G01X4029904Y-2336311D01*
G01X4012329Y-2325429D01*
G01X3993054Y-2317962D01*
G01X3972735Y-2314164D01*
G01X3952065Y-2314164D01*
G01X3931746Y-2317962D01*
G01X3912471Y-2325429D01*
G01X3894896Y-2336311D01*
G01X3879621Y-2350237D01*
G01X3867164Y-2366732D01*
G01X3857950Y-2385236D01*
G01X3852293Y-2405117D01*
G01X3850386Y-2425700D01*
G01X3850386Y-2425700D01*
G01X3820414Y-2425700D01*
G01X3818507Y-2405117D01*
G01X3812850Y-2385236D01*
G01X3803636Y-2366732D01*
G01X3791179Y-2350237D01*
G01X3775904Y-2336311D01*
G01X3758329Y-2325429D01*
G01X3739054Y-2317962D01*
G01X3718735Y-2314164D01*
G01X3698065Y-2314164D01*
G01X3677746Y-2317962D01*
G01X3658471Y-2325429D01*
G01X3640896Y-2336311D01*
G01X3625621Y-2350237D01*
G01X3613164Y-2366732D01*
G01X3603950Y-2385236D01*
G01X3598293Y-2405117D01*
G01X3596386Y-2425700D01*
G01X3596386Y-2425700D01*
G01X3566414Y-2425700D01*
G01X3564507Y-2405117D01*
G01X3558850Y-2385236D01*
G01X3549636Y-2366732D01*
G01X3537179Y-2350237D01*
G01X3521904Y-2336311D01*
G01X3504329Y-2325429D01*
G01X3485054Y-2317962D01*
G01X3464735Y-2314164D01*
G01X3444065Y-2314164D01*
G01X3423746Y-2317962D01*
G01X3404471Y-2325429D01*
G01X3386896Y-2336311D01*
G01X3371621Y-2350237D01*
G01X3359164Y-2366732D01*
G01X3349950Y-2385236D01*
G01X3344293Y-2405117D01*
G01X3342386Y-2425700D01*
G01X3342386Y-2425700D01*
G01X3312414Y-2425700D01*
G01X3310507Y-2405117D01*
G01X3304850Y-2385236D01*
G01X3295636Y-2366732D01*
G01X3283179Y-2350237D01*
G01X3267904Y-2336311D01*
G01X3250329Y-2325429D01*
G01X3231054Y-2317962D01*
G01X3210735Y-2314164D01*
G01X3190065Y-2314164D01*
G01X3169746Y-2317962D01*
G01X3150471Y-2325429D01*
G01X3132896Y-2336311D01*
G01X3117621Y-2350237D01*
G01X3105164Y-2366732D01*
G01X3095950Y-2385236D01*
G01X3090293Y-2405117D01*
G01X3088386Y-2425700D01*
G01X3088386Y-2425700D01*
G01X3058099Y-2425700D01*
G01X3058335Y-2421482D01*
G01X3055601Y-2400753D01*
G01X3049062Y-2380893D01*
G01X3038946Y-2362594D01*
G01X3025606Y-2346494D01*
G01X3009506Y-2333154D01*
G01X2991207Y-2323038D01*
G01X2971347Y-2316499D01*
G01X2950618Y-2313765D01*
G01X2929742Y-2314932D01*
G01X2909446Y-2319957D01*
G01X2890438Y-2328667D01*
G01X2873380Y-2340758D01*
G01X2858866Y-2355808D01*
G01X2847402Y-2373293D01*
G01X2839387Y-2392605D01*
G01X2835100Y-2413069D01*
G01X2834692Y-2433974D01*
G01X2838176Y-2454590D01*
G01X2845430Y-2474200D01*
G01X2804179Y-2432949D01*
G01X2803589Y-2412127D01*
G01X2799153Y-2391775D01*
G01X2791026Y-2372596D01*
G01X2779489Y-2355253D01*
G01X2764939Y-2340347D01*
G01X2747882Y-2328392D01*
G01X2728906Y-2319802D01*
G01X2708667Y-2314873D01*
G01X2687866Y-2313778D01*
G01X2667222Y-2316552D01*
G01X2647448Y-2323102D01*
G01X2629229Y-2333198D01*
G01X2613194Y-2346494D01*
G01X2599898Y-2362529D01*
G01X2589802Y-2380748D01*
G01X2583252Y-2400522D01*
G01X2580478Y-2421166D01*
G01X2549891Y-2421166D01*
G01X2549786Y-2413851D01*
G01X2545766Y-2393768D01*
G01X2538157Y-2374753D01*
G01X2527213Y-2357440D01*
G01X2513300Y-2342410D01*
G01X2496882Y-2330165D01*
G01X2478509Y-2321113D01*
G01X2458796Y-2315558D01*
G01X2438400Y-2313686D01*
G01X2418004Y-2315558D01*
G01X2398291Y-2321113D01*
G01X2379918Y-2330165D01*
G01X2363500Y-2342410D01*
G01X2349587Y-2357440D01*
G01X2338643Y-2374753D01*
G01X2331034Y-2393768D01*
G01X2327014Y-2413851D01*
G01X2326719Y-2434330D01*
G01X2330157Y-2454521D01*
G01X2337214Y-2473748D01*
G01X2347655Y-2491369D01*
G01X2361129Y-2506794D01*
G01X2377186Y-2519508D01*
G01X2377186Y-2527344D01*
G01X2311400Y-2593130D01*
G01X2245614Y-2527344D01*
G01X2245614Y-2519508D01*
G01X2261671Y-2506794D01*
G01X2275145Y-2491369D01*
G01X2285586Y-2473748D01*
G01X2292643Y-2454521D01*
G01X2296081Y-2434330D01*
G01X2295786Y-2413851D01*
G01X2291766Y-2393768D01*
G01X2284157Y-2374753D01*
G01X2273213Y-2357440D01*
G01X2259300Y-2342410D01*
G01X2242882Y-2330165D01*
G01X2224509Y-2321113D01*
G01X2204796Y-2315558D01*
G01X2184400Y-2313686D01*
G01X2164004Y-2315558D01*
G01X2144291Y-2321113D01*
G01X2125918Y-2330165D01*
G01X2109500Y-2342410D01*
G01X2095587Y-2357440D01*
G01X2084643Y-2374753D01*
G01X2077034Y-2393768D01*
G01X2073014Y-2413851D01*
G01X2072719Y-2434330D01*
G01X2076157Y-2454521D01*
G01X2083214Y-2473748D01*
G01X2093655Y-2491369D01*
G01X2107129Y-2506794D01*
G01X2123186Y-2519508D01*
G01X2123186Y-2552700D01*
G01X2124362Y-2564642D01*
G01X2127846Y-2576126D01*
G01X2133502Y-2586709D01*
G01X2141115Y-2595985D01*
G01X2217104Y-2671974D01*
G01X2217103Y-2672227D01*
G01X1248672Y-2672187D01*
G01X1236729Y-2673363D01*
G01X1225246Y-2676847D01*
G01X1214663Y-2682503D01*
G01X1205387Y-2690116D01*
G01X1112415Y-2783088D01*
G01X1104802Y-2792364D01*
G01X1099146Y-2802947D01*
G01X1095662Y-2814430D01*
G01X1094486Y-2826373D01*
G01X1094486Y-2893085D01*
G01X1078669Y-2904176D01*
G01X1064824Y-2917648D01*
G01X1053303Y-2933154D01*
G01X1044401Y-2950299D01*
G01X1038347Y-2968644D01*
G01X1038347Y-2968644D01*
G01X1035296Y-2987720D01*
G01X1035324Y-3007037D01*
G01X1038433Y-3026104D01*
G01X1044541Y-3044431D01*
G01X1053493Y-3061549D01*
G01X1052619Y-3061549D01*
G01X1018605Y-3027536D01*
G01X1022092Y-3006838D01*
G01X1021942Y-2985849D01*
G01X1018161Y-2965203D01*
G01X1010863Y-2945523D01*
G01X1000268Y-2927404D01*
G01X986696Y-2911393D01*
G01X970557Y-2897974D01*
G01X952338Y-2887551D01*
G01X932590Y-2880440D01*
G01X911909Y-2876855D01*
G01X890920Y-2876905D01*
G01X870256Y-2880588D01*
G01X850542Y-2887793D01*
G01X832373Y-2898302D01*
G01X816298Y-2911798D01*
G01X802802Y-2927873D01*
G01X792293Y-2946042D01*
G01X785088Y-2965756D01*
G01X781405Y-2986420D01*
G01X781355Y-3007409D01*
G01X768477Y-3007409D01*
G01X768477Y-2912237D01*
G01X766752Y-2901255D01*
G01X761743Y-2891332D01*
G01X753932Y-2883422D01*
G01X742161Y-2872765D01*
G01X732741Y-2859983D01*
G01X726046Y-2845585D01*
G01X966665Y-2604965D01*
G01X975857Y-2593764D01*
G01X982688Y-2580986D01*
G01X986894Y-2567120D01*
G01X988314Y-2552700D01*
G01X988314Y-2530636D01*
G01X988541Y-2527245D01*
G01X989212Y-2523302D01*
G01X990468Y-2518294D01*
G01X992196Y-2512927D01*
G01X994216Y-2507792D01*
G01X996266Y-2503472D01*
G01X997907Y-2500652D01*
G01X999437Y-2498610D01*
G01X1011674Y-2481242D01*
G01X1020412Y-2461875D01*
G01X1025336Y-2441206D01*
G01X1026017Y-2425700D01*
G01X1056386Y-2425700D01*
G01X1058293Y-2446283D01*
G01X1063950Y-2466164D01*
G01X1073164Y-2484668D01*
G01X1085621Y-2501163D01*
G01X1100896Y-2515089D01*
G01X1118471Y-2525971D01*
G01X1137746Y-2533438D01*
G01X1158065Y-2537236D01*
G01X1178735Y-2537236D01*
G01X1199054Y-2533438D01*
G01X1218329Y-2525971D01*
G01X1235904Y-2515089D01*
G01X1251179Y-2501163D01*
G01X1263636Y-2484668D01*
G01X1272850Y-2466164D01*
G01X1278507Y-2446283D01*
G01X1280414Y-2425700D01*
G01X1280414Y-2425700D01*
G01X1310386Y-2425700D01*
G01X1312293Y-2446283D01*
G01X1317950Y-2466164D01*
G01X1327164Y-2484668D01*
G01X1339621Y-2501163D01*
G01X1354896Y-2515089D01*
G01X1372471Y-2525971D01*
G01X1391746Y-2533438D01*
G01X1412065Y-2537236D01*
G01X1432735Y-2537236D01*
G01X1453054Y-2533438D01*
G01X1472329Y-2525971D01*
G01X1489904Y-2515089D01*
G01X1505179Y-2501163D01*
G01X1517636Y-2484668D01*
G01X1526850Y-2466164D01*
G01X1532507Y-2446283D01*
G01X1534414Y-2425700D01*
G01X1534414Y-2425700D01*
G01X1564386Y-2425700D01*
G01X1566293Y-2446283D01*
G01X1571950Y-2466164D01*
G01X1581164Y-2484668D01*
G01X1593621Y-2501163D01*
G01X1608896Y-2515089D01*
G01X1626471Y-2525971D01*
G01X1645746Y-2533438D01*
G01X1666065Y-2537236D01*
G01X1686735Y-2537236D01*
G01X1707054Y-2533438D01*
G01X1726329Y-2525971D01*
G01X1743904Y-2515089D01*
G01X1759179Y-2501163D01*
G01X1771636Y-2484668D01*
G01X1780850Y-2466164D01*
G01X1786507Y-2446283D01*
G01X1788414Y-2425700D01*
G01X1788414Y-2425700D01*
G01X1818386Y-2425700D01*
G01X1820293Y-2446283D01*
G01X1825950Y-2466164D01*
G01X1835164Y-2484668D01*
G01X1847621Y-2501163D01*
G01X1862896Y-2515089D01*
G01X1880471Y-2525971D01*
G01X1899746Y-2533438D01*
G01X1920065Y-2537236D01*
G01X1940735Y-2537236D01*
G01X1961054Y-2533438D01*
G01X1980329Y-2525971D01*
G01X1997904Y-2515089D01*
G01X2013179Y-2501163D01*
G01X2025636Y-2484668D01*
G01X2034850Y-2466164D01*
G01X2040507Y-2446283D01*
G01X2042414Y-2425700D01*
G01X2040507Y-2405117D01*
G01X2034850Y-2385236D01*
G01X2025636Y-2366732D01*
G01X2013179Y-2350237D01*
G01X1997904Y-2336311D01*
G01X1980329Y-2325429D01*
G01X1961054Y-2317962D01*
G01X1940735Y-2314164D01*
G01X1920065Y-2314164D01*
G01X1899746Y-2317962D01*
G01X1880471Y-2325429D01*
G01X1862896Y-2336311D01*
G01X1847621Y-2350237D01*
G01X1835164Y-2366732D01*
G01X1825950Y-2385236D01*
G01X1820293Y-2405117D01*
G01X1818386Y-2425700D01*
G01X1818386Y-2425700D01*
G01X1788414Y-2425700D01*
G01X1786507Y-2405117D01*
G01X1780850Y-2385236D01*
G01X1771636Y-2366732D01*
G01X1759179Y-2350237D01*
G01X1743904Y-2336311D01*
G01X1726329Y-2325429D01*
G01X1707054Y-2317962D01*
G01X1686735Y-2314164D01*
G01X1666065Y-2314164D01*
G01X1645746Y-2317962D01*
G01X1626471Y-2325429D01*
G01X1608896Y-2336311D01*
G01X1593621Y-2350237D01*
G01X1581164Y-2366732D01*
G01X1571950Y-2385236D01*
G01X1566293Y-2405117D01*
G01X1564386Y-2425700D01*
G01X1564386Y-2425700D01*
G01X1534414Y-2425700D01*
G01X1532507Y-2405117D01*
G01X1526850Y-2385236D01*
G01X1517636Y-2366732D01*
G01X1505179Y-2350237D01*
G01X1489904Y-2336311D01*
G01X1472329Y-2325429D01*
G01X1453054Y-2317962D01*
G01X1432735Y-2314164D01*
G01X1412065Y-2314164D01*
G01X1391746Y-2317962D01*
G01X1372471Y-2325429D01*
G01X1354896Y-2336311D01*
G01X1339621Y-2350237D01*
G01X1327164Y-2366732D01*
G01X1317950Y-2385236D01*
G01X1312293Y-2405117D01*
G01X1310386Y-2425700D01*
G01X1310386Y-2425700D01*
G01X1280414Y-2425700D01*
G01X1278507Y-2405117D01*
G01X1272850Y-2385236D01*
G01X1263636Y-2366732D01*
G01X1251179Y-2350237D01*
G01X1235904Y-2336311D01*
G01X1218329Y-2325429D01*
G01X1199054Y-2317962D01*
G01X1178735Y-2314164D01*
G01X1158065Y-2314164D01*
G01X1137746Y-2317962D01*
G01X1118471Y-2325429D01*
G01X1100896Y-2336311D01*
G01X1085621Y-2350237D01*
G01X1073164Y-2366732D01*
G01X1063950Y-2385236D01*
G01X1058293Y-2405117D01*
G01X1056386Y-2425700D01*
G01X1056386Y-2425700D01*
G01X1026017Y-2425700D01*
G01X1026268Y-2419980D01*
G01X1023175Y-2398960D01*
G01X1016170Y-2378902D01*
G01X1005502Y-2360527D01*
G01X991557Y-2344497D01*
G01X974836Y-2331389D01*
G01X955941Y-2321674D01*
G01X935551Y-2315701D01*
G01X914400Y-2313686D01*
G01X893249Y-2315701D01*
G01X872859Y-2321674D01*
G01X853964Y-2331389D01*
G01X837243Y-2344497D01*
G01X823298Y-2360527D01*
G01X812630Y-2378902D01*
G01X805625Y-2398960D01*
G01X802532Y-2419980D01*
G01X803464Y-2441206D01*
G01X808388Y-2461875D01*
G01X817126Y-2481242D01*
G01X829363Y-2498610D01*
G01X830893Y-2500652D01*
G01X832534Y-2503472D01*
G01X834584Y-2507792D01*
G01X836604Y-2512927D01*
G01X838332Y-2518294D01*
G01X839524Y-2523046D01*
G01X595435Y-2767135D01*
G01X586243Y-2778336D01*
G01X579412Y-2791114D01*
G01X575206Y-2804980D01*
G01X573786Y-2819400D01*
G01X572399Y-2834193D01*
G01X568286Y-2848470D01*
G01X561591Y-2861734D01*
G01X552546Y-2873521D01*
G01X541468Y-2883422D01*
G01X533657Y-2891332D01*
G01X528648Y-2901255D01*
G01X526923Y-2912237D01*
G01X526923Y-3082163D01*
G01X526923Y-3082163D01*
G01X35814Y-3082163D01*
G01X35814Y-2349754D01*
G01X548640Y-2349754D01*
G01X548640Y-2502154D01*
G01X550393Y-2513221D01*
G01X555480Y-2523205D01*
G01X563403Y-2531128D01*
G01X573387Y-2536215D01*
G01X584454Y-2537968D01*
G01X736854Y-2537968D01*
G01X736854Y-2537968D01*
G01X747921Y-2536215D01*
G01X757905Y-2531128D01*
G01X765828Y-2523205D01*
G01X770915Y-2513221D01*
G01X772668Y-2502154D01*
G01X772668Y-2349754D01*
G01X770915Y-2338687D01*
G01X765828Y-2328703D01*
G01X757905Y-2320780D01*
G01X747921Y-2315693D01*
G01X736854Y-2313940D01*
G01X584454Y-2313940D01*
G01X573387Y-2315693D01*
G01X563403Y-2320780D01*
G01X555480Y-2328703D01*
G01X550393Y-2338687D01*
G01X548640Y-2349754D01*
G01X35814Y-2349754D01*
G01X35814Y-291417D01*
G01X43416Y-319638D01*
G01X54644Y-346623D01*
G01X69304Y-371908D01*
G01X87145Y-395058D01*
G01X107860Y-415677D01*
G01X131093Y-433409D01*
G01X156446Y-447951D01*
G01X183483Y-459052D01*
G01X211740Y-466522D01*
G01X240730Y-470233D01*
G01X269957Y-470121D01*
G01X298919Y-466188D01*
G01X327117Y-458501D01*
G01X354068Y-447192D01*
G01X379309Y-432456D01*
G01X402405Y-414546D01*
G01X422962Y-393769D01*
G01X440624Y-370483D01*
G01X455090Y-345086D01*
G01X466110Y-318016D01*
G01X473495Y-289738D01*
G01X477119Y-260736D01*
G01X476920Y-231509D01*
G01X472899Y-202560D01*
G01X465128Y-174385D01*
G01X453738Y-147468D01*
G01X438927Y-122272D01*
G01X420948Y-99229D01*
G01X400109Y-78735D01*
G01X376770Y-61142D01*
G01X351330Y-46753D01*
G01X324227Y-35814D01*
G01X618509Y-35814D01*
G01X600220Y-45225D01*
G01X583959Y-57822D01*
G01X570277Y-73180D01*
G01X559633Y-90781D01*
G01X552387Y-110031D01*
G01X548783Y-130282D01*
G01X548942Y-150850D01*
G01X552860Y-171042D01*
G01X560404Y-190177D01*
G01X571320Y-207611D01*
G01X585239Y-222754D01*
G01X601693Y-235097D01*
G01X620127Y-244224D01*
G01X639918Y-249825D01*
G01X660400Y-251714D01*
G01X680882Y-249825D01*
G01X700673Y-244224D01*
G01X719107Y-235097D01*
G01X735561Y-222754D01*
G01X749480Y-207611D01*
G01X760396Y-190177D01*
G01X767940Y-171042D01*
G01X771858Y-150850D01*
G01X772017Y-130282D01*
G01X768413Y-110031D01*
G01X761167Y-90781D01*
G01X750523Y-73180D01*
G01X736841Y-57822D01*
G01X720580Y-45225D01*
G01X702291Y-35814D01*
G01X872509Y-35814D01*
G01X854220Y-45225D01*
G01X837959Y-57822D01*
G01X824277Y-73180D01*
G01X813633Y-90781D01*
G01X806387Y-110031D01*
G01X802783Y-130282D01*
G01X802942Y-150850D01*
G01X806860Y-171042D01*
G01X814404Y-190177D01*
G01X825320Y-207611D01*
G01X839239Y-222754D01*
G01X855693Y-235097D01*
G01X874127Y-244224D01*
G01X893918Y-249825D01*
G01X914400Y-251714D01*
G01X934882Y-249825D01*
G01X954673Y-244224D01*
G01X973107Y-235097D01*
G01X989561Y-222754D01*
G01X1003480Y-207611D01*
G01X1014396Y-190177D01*
G01X1021940Y-171042D01*
G01X1025858Y-150850D01*
G01X1026017Y-130282D01*
G01X1022413Y-110031D01*
G01X1015167Y-90781D01*
G01X1004523Y-73180D01*
G01X990841Y-57822D01*
G01X974580Y-45225D01*
G01X956291Y-35814D01*
G01X1126509Y-35814D01*
G01X1108220Y-45225D01*
G01X1091959Y-57822D01*
G01X1078277Y-73180D01*
G01X1067633Y-90781D01*
G01X1060387Y-110031D01*
G01X1056783Y-130282D01*
G01X1056942Y-150850D01*
G01X1060860Y-171042D01*
G01X1068404Y-190177D01*
G01X1079320Y-207611D01*
G01X1093239Y-222754D01*
G01X1109693Y-235097D01*
G01X1128127Y-244224D01*
G01X1147918Y-249825D01*
G01X1168400Y-251714D01*
G01X1188882Y-249825D01*
G01X1208673Y-244224D01*
G01X1227107Y-235097D01*
G01X1243561Y-222754D01*
G01X1257480Y-207611D01*
G01X1268396Y-190177D01*
G01X1275940Y-171042D01*
G01X1279858Y-150850D01*
G01X1280017Y-130282D01*
G01X1276413Y-110031D01*
G01X1269167Y-90781D01*
G01X1258523Y-73180D01*
G01X1244841Y-57822D01*
G01X1228580Y-45225D01*
G01X1210291Y-35814D01*
G01X1380509Y-35814D01*
G01X1362220Y-45225D01*
G01X1345959Y-57822D01*
G01X1332277Y-73180D01*
G01X1321633Y-90781D01*
G01X1314387Y-110031D01*
G01X1310783Y-130282D01*
G01X1310942Y-150850D01*
G01X1314860Y-171042D01*
G01X1322404Y-190177D01*
G01X1333320Y-207611D01*
G01X1347239Y-222754D01*
G01X1363693Y-235097D01*
G01X1382127Y-244224D01*
G01X1401918Y-249825D01*
G01X1422400Y-251714D01*
G01X1442882Y-249825D01*
G01X1462673Y-244224D01*
G01X1481107Y-235097D01*
G01X1497561Y-222754D01*
G01X1511480Y-207611D01*
G01X1522396Y-190177D01*
G01X1529940Y-171042D01*
G01X1533858Y-150850D01*
G01X1534017Y-130282D01*
G01X1530413Y-110031D01*
G01X1523167Y-90781D01*
G01X1512523Y-73180D01*
G01X1498841Y-57822D01*
G01X1482580Y-45225D01*
G01X1464291Y-35814D01*
G01X1634509Y-35814D01*
G01X1616220Y-45225D01*
G01X1599959Y-57822D01*
G01X1586277Y-73180D01*
G01X1575633Y-90781D01*
G01X1568387Y-110031D01*
G01X1564783Y-130282D01*
G01X1564942Y-150850D01*
G01X1568860Y-171042D01*
G01X1576404Y-190177D01*
G01X1587320Y-207611D01*
G01X1601239Y-222754D01*
G01X1617693Y-235097D01*
G01X1636127Y-244224D01*
G01X1655918Y-249825D01*
G01X1676400Y-251714D01*
G01X1696882Y-249825D01*
G01X1716673Y-244224D01*
G01X1735107Y-235097D01*
G01X1751561Y-222754D01*
G01X1765480Y-207611D01*
G01X1776396Y-190177D01*
G01X1783940Y-171042D01*
G01X1787858Y-150850D01*
G01X1788017Y-130282D01*
G01X1784413Y-110031D01*
G01X1777167Y-90781D01*
G01X1766523Y-73180D01*
G01X1752841Y-57822D01*
G01X1736580Y-45225D01*
G01X1718291Y-35814D01*
G01X1888509Y-35814D01*
G01X1870220Y-45225D01*
G01X1853959Y-57822D01*
G01X1840277Y-73180D01*
G01X1829633Y-90781D01*
G01X1822387Y-110031D01*
G01X1818783Y-130282D01*
G01X1818942Y-150850D01*
G01X1822860Y-171042D01*
G01X1830404Y-190177D01*
G01X1841320Y-207611D01*
G01X1855239Y-222754D01*
G01X1871693Y-235097D01*
G01X1890127Y-244224D01*
G01X1909918Y-249825D01*
G01X1930400Y-251714D01*
G01X1950882Y-249825D01*
G01X1970673Y-244224D01*
G01X1989107Y-235097D01*
G01X2005561Y-222754D01*
G01X2019480Y-207611D01*
G01X2030396Y-190177D01*
G01X2037940Y-171042D01*
G01X2041858Y-150850D01*
G01X2042017Y-130282D01*
G01X2038413Y-110031D01*
G01X2031167Y-90781D01*
G01X2020523Y-73180D01*
G01X2006841Y-57822D01*
G01X1990580Y-45225D01*
G01X1972291Y-35814D01*
G01X2142509Y-35814D01*
G01X2124220Y-45225D01*
G01X2107959Y-57822D01*
G01X2094277Y-73180D01*
G01X2083633Y-90781D01*
G01X2076387Y-110031D01*
G01X2072783Y-130282D01*
G01X2072942Y-150850D01*
G01X2076860Y-171042D01*
G01X2084404Y-190177D01*
G01X2095320Y-207611D01*
G01X2109239Y-222754D01*
G01X2125693Y-235097D01*
G01X2144127Y-244224D01*
G01X2163918Y-249825D01*
G01X2184400Y-251714D01*
G01X2204882Y-249825D01*
G01X2224673Y-244224D01*
G01X2243107Y-235097D01*
G01X2259561Y-222754D01*
G01X2273480Y-207611D01*
G01X2284396Y-190177D01*
G01X2291940Y-171042D01*
G01X2295858Y-150850D01*
G01X2296017Y-130282D01*
G01X2292413Y-110031D01*
G01X2285167Y-90781D01*
G01X2274523Y-73180D01*
G01X2260841Y-57822D01*
G01X2244580Y-45225D01*
G01X2226291Y-35814D01*
G01X2396509Y-35814D01*
G01X2378220Y-45225D01*
G01X2361959Y-57822D01*
G01X2348277Y-73180D01*
G01X2337633Y-90781D01*
G01X2330387Y-110031D01*
G01X2326783Y-130282D01*
G01X2326942Y-150850D01*
G01X2330860Y-171042D01*
G01X2338404Y-190177D01*
G01X2349320Y-207611D01*
G01X2363239Y-222754D01*
G01X2379693Y-235097D01*
G01X2398127Y-244224D01*
G01X2417918Y-249825D01*
G01X2438400Y-251714D01*
G01X2458882Y-249825D01*
G01X2478673Y-244224D01*
G01X2497107Y-235097D01*
G01X2513561Y-222754D01*
G01X2527480Y-207611D01*
G01X2538396Y-190177D01*
G01X2545940Y-171042D01*
G01X2549858Y-150850D01*
G01X2550017Y-130282D01*
G01X2546413Y-110031D01*
G01X2539167Y-90781D01*
G01X2528523Y-73180D01*
G01X2514841Y-57822D01*
G01X2498580Y-45225D01*
G01X2480291Y-35814D01*
G01X2650509Y-35814D01*
G01X2632220Y-45225D01*
G01X2615959Y-57822D01*
G01X2602277Y-73180D01*
G01X2591633Y-90781D01*
G01X2584387Y-110031D01*
G01X2580783Y-130282D01*
G01X2580942Y-150850D01*
G01X2584860Y-171042D01*
G01X2592404Y-190177D01*
G01X2603320Y-207611D01*
G01X2617239Y-222754D01*
G01X2633693Y-235097D01*
G01X2652127Y-244224D01*
G01X2671918Y-249825D01*
G01X2692400Y-251714D01*
G01X2712882Y-249825D01*
G01X2732673Y-244224D01*
G01X2751107Y-235097D01*
G01X2767561Y-222754D01*
G01X2781480Y-207611D01*
G01X2792396Y-190177D01*
G01X2799940Y-171042D01*
G01X2803858Y-150850D01*
G01X2804017Y-130282D01*
G01X2800413Y-110031D01*
G01X2793167Y-90781D01*
G01X2782523Y-73180D01*
G01X2768841Y-57822D01*
G01X2752580Y-45225D01*
G01X2734291Y-35814D01*
G01X2904509Y-35814D01*
G01X2886220Y-45225D01*
G01X2869959Y-57822D01*
G01X2856277Y-73180D01*
G01X2845633Y-90781D01*
G01X2838387Y-110031D01*
G01X2834783Y-130282D01*
G01X2834942Y-150850D01*
G01X2838860Y-171042D01*
G01X2846404Y-190177D01*
G01X2857320Y-207611D01*
G01X2871239Y-222754D01*
G01X2887693Y-235097D01*
G01X2906127Y-244224D01*
G01X2925918Y-249825D01*
G01X2946400Y-251714D01*
G01X2966882Y-249825D01*
G01X2986673Y-244224D01*
G01X3005107Y-235097D01*
G01X3021561Y-222754D01*
G01X3035480Y-207611D01*
G01X3046396Y-190177D01*
G01X3053940Y-171042D01*
G01X3057858Y-150850D01*
G01X3058017Y-130282D01*
G01X3054413Y-110031D01*
G01X3047167Y-90781D01*
G01X3036523Y-73180D01*
G01X3022841Y-57822D01*
G01X3006580Y-45225D01*
G01X2988291Y-35814D01*
G01X3158509Y-35814D01*
G01X3140220Y-45225D01*
G01X3123959Y-57822D01*
G01X3110277Y-73180D01*
G01X3099633Y-90781D01*
G01X3092387Y-110031D01*
G01X3088783Y-130282D01*
G01X3088942Y-150850D01*
G01X3092860Y-171042D01*
G01X3100404Y-190177D01*
G01X3111320Y-207611D01*
G01X3125239Y-222754D01*
G01X3141693Y-235097D01*
G01X3160127Y-244224D01*
G01X3179918Y-249825D01*
G01X3200400Y-251714D01*
G01X3220882Y-249825D01*
G01X3240673Y-244224D01*
G01X3259107Y-235097D01*
G01X3275561Y-222754D01*
G01X3289480Y-207611D01*
G01X3300396Y-190177D01*
G01X3307940Y-171042D01*
G01X3311858Y-150850D01*
G01X3312017Y-130282D01*
G01X3308413Y-110031D01*
G01X3301167Y-90781D01*
G01X3290523Y-73180D01*
G01X3276841Y-57822D01*
G01X3260580Y-45225D01*
G01X3242291Y-35814D01*
G01X3412509Y-35814D01*
G01X3394220Y-45225D01*
G01X3377959Y-57822D01*
G01X3364277Y-73180D01*
G01X3353633Y-90781D01*
G01X3346387Y-110031D01*
G01X3342783Y-130282D01*
G01X3342942Y-150850D01*
G01X3346860Y-171042D01*
G01X3354404Y-190177D01*
G01X3365320Y-207611D01*
G01X3379239Y-222754D01*
G01X3395693Y-235097D01*
G01X3414127Y-244224D01*
G01X3433918Y-249825D01*
G01X3454400Y-251714D01*
G01X3474882Y-249825D01*
G01X3494673Y-244224D01*
G01X3513107Y-235097D01*
G01X3529561Y-222754D01*
G01X3543480Y-207611D01*
G01X3554396Y-190177D01*
G01X3561940Y-171042D01*
G01X3565858Y-150850D01*
G01X3566017Y-130282D01*
G01X3562413Y-110031D01*
G01X3555167Y-90781D01*
G01X3544523Y-73180D01*
G01X3530841Y-57822D01*
G01X3514580Y-45225D01*
G01X3496291Y-35814D01*
G01X3666509Y-35814D01*
G01X3648220Y-45225D01*
G01X3631959Y-57822D01*
G01X3618277Y-73180D01*
G01X3607633Y-90781D01*
G01X3600387Y-110031D01*
G01X3596783Y-130282D01*
G01X3596942Y-150850D01*
G01X3600860Y-171042D01*
G01X3608404Y-190177D01*
G01X3619320Y-207611D01*
G01X3633239Y-222754D01*
G01X3649693Y-235097D01*
G01X3668127Y-244224D01*
G01X3687918Y-249825D01*
G01X3708400Y-251714D01*
G01X3728882Y-249825D01*
G01X3748673Y-244224D01*
G01X3767107Y-235097D01*
G01X3783561Y-222754D01*
G01X3797480Y-207611D01*
G01X3808396Y-190177D01*
G01X3815940Y-171042D01*
G01X3819858Y-150850D01*
G01X3820017Y-130282D01*
G01X3816413Y-110031D01*
G01X3809167Y-90781D01*
G01X3798523Y-73180D01*
G01X3784841Y-57822D01*
G01X3768580Y-45225D01*
G01X3750291Y-35814D01*
G01X3920509Y-35814D01*
G01X3902220Y-45225D01*
G01X3885959Y-57822D01*
G01X3872277Y-73180D01*
G01X3861633Y-90781D01*
G01X3854387Y-110031D01*
G01X3850783Y-130282D01*
G01X3850942Y-150850D01*
G01X3854860Y-171042D01*
G01X3862404Y-190177D01*
G01X3873320Y-207611D01*
G01X3887239Y-222754D01*
G01X3903693Y-235097D01*
G01X3922127Y-244224D01*
G01X3941918Y-249825D01*
G01X3962400Y-251714D01*
G01X3982882Y-249825D01*
G01X4002673Y-244224D01*
G01X4021107Y-235097D01*
G01X4037561Y-222754D01*
G01X4051480Y-207611D01*
G01X4062396Y-190177D01*
G01X4069940Y-171042D01*
G01X4073858Y-150850D01*
G01X4074017Y-130282D01*
G01X4070413Y-110031D01*
G01X4063167Y-90781D01*
G01X4052523Y-73180D01*
G01X4038841Y-57822D01*
G01X4022580Y-45225D01*
G01X4004291Y-35814D01*
G01X4174509Y-35814D01*
G01X4156220Y-45225D01*
G01X4139959Y-57822D01*
G01X4126277Y-73180D01*
G01X4115633Y-90781D01*
G01X4108387Y-110031D01*
G01X4104783Y-130282D01*
G01X4104942Y-150850D01*
G01X4108860Y-171042D01*
G01X4116404Y-190177D01*
G01X4127320Y-207611D01*
G01X4141239Y-222754D01*
G01X4157693Y-235097D01*
G01X4176127Y-244224D01*
G01X4195918Y-249825D01*
G01X4216400Y-251714D01*
G01X4236882Y-249825D01*
G01X4256673Y-244224D01*
G01X4275107Y-235097D01*
G01X4291561Y-222754D01*
G01X4305480Y-207611D01*
G01X4316396Y-190177D01*
G01X4323940Y-171042D01*
G01X4327858Y-150850D01*
G01X4328017Y-130282D01*
G01X4324413Y-110031D01*
G01X4317167Y-90781D01*
G01X4306523Y-73180D01*
G01X4292841Y-57822D01*
G01X4276580Y-45225D01*
G01X4258291Y-35814D01*
G01X4522570Y-35814D01*
G01X4496756Y-50852D01*
G01X4473184Y-69204D01*
G01X4452277Y-90543D01*
G01X4434409Y-114485D01*
G01X4419901Y-140600D01*
G01X4409014Y-168419D01*
G01X4401943Y-197444D01*
G01X4398815Y-227154D01*
G01X4399685Y-257016D01*
G01X4404539Y-286493D01*
G01X4413289Y-315057D01*
G01X4425779Y-342195D01*
G01X4441783Y-367420D01*
G01X4461016Y-390280D01*
G01X4483131Y-410365D01*
G01X4507732Y-427313D01*
G01X4534377Y-440821D01*
G01X4562590Y-450647D01*
G01X4591862Y-456614D01*
G01X4621669Y-458615D01*
G01X4651476Y-456614D01*
G01X4680748Y-450647D01*
G01X4708960Y-440821D01*
G01X4735606Y-427313D01*
G01X4760207Y-410365D01*
G01X4782322Y-390280D01*
G01X4801554Y-367420D01*
G01X4817559Y-342195D01*
G01X4830048Y-315057D01*
G01X4838798Y-286493D01*
G01X4843652Y-257016D01*
G01X4844523Y-227154D01*
G01X4841394Y-197444D01*
G01X4834323Y-168419D01*
G01X4823436Y-140600D01*
G01X4808928Y-114485D01*
G01X4791061Y-90543D01*
G01X4770153Y-69204D01*
G01X4746581Y-50852D01*
G01X4720768Y-35814D01*
G01X4800000Y-35814D01*
G01X4825684Y-37835D01*
G01X4850736Y-43850D01*
G01X4874539Y-53709D01*
G01X4896506Y-67171D01*
G01X4916097Y-83903D01*
G01X4932829Y-103494D01*
G01X4946291Y-125461D01*
G01X4956150Y-149264D01*
G01X4962165Y-174316D01*
G01X4964186Y-200000D01*
G01X4964186Y-5666864D01*
G01X4953061Y-5638940D01*
G01X4938475Y-5612658D01*
G01X4920663Y-5588445D01*
G01X4899917Y-5566694D01*
G01X4876572Y-5547759D01*
G01X4851008Y-5531948D01*
G01X4823640Y-5519517D01*
G01X4794914Y-5510669D01*
G01X4765295Y-5505546D01*
G01X4735265Y-5504233D01*
G01X4705312Y-5506751D01*
G01X4675923Y-5513058D01*
G01X4647575Y-5523053D01*
G01X4620729Y-5536573D01*
G01X4595820Y-5553398D01*
G01X4573254Y-5573254D01*
G01X4553397Y-5595820D01*
G01X4536573Y-5620729D01*
G01X4523053Y-5647575D01*
G01X4513058Y-5675923D01*
G01X4506751Y-5705312D01*
G01X4504233Y-5735265D01*
G01X4505546Y-5765295D01*
G01X4510669Y-5794914D01*
G01X4519517Y-5823640D01*
G01X4531948Y-5851008D01*
G01X4547759Y-5876572D01*
G01X4566694Y-5899917D01*
G01X4588445Y-5920663D01*
G01X4612658Y-5938475D01*
G01X4638940Y-5953061D01*
G01X4666863Y-5964186D01*
G01X333136Y-5964186D01*
G01X361060Y-5953061D01*
G01X387342Y-5938475D01*
G01X411555Y-5920663D01*
G01X433306Y-5899917D01*
G01X452241Y-5876572D01*
G01X468052Y-5851008D01*
G01X480483Y-5823640D01*
G01X489331Y-5794914D01*
G01X494454Y-5765295D01*
G01X495767Y-5735265D01*
G01X493249Y-5705312D01*
G01X486942Y-5675923D01*
G01X476947Y-5647575D01*
G01X463427Y-5620729D01*
G01X446602Y-5595820D01*
G01X426746Y-5573254D01*
G37*
G54D10*
G01X426746Y-5573254D02*
G03X35814Y-5666864I-166746J-166746D01*
G01X35814Y-291417D01*
G03X402405Y-414546I218676J43773D01*
G03X324227Y-35814I-147915J166902D01*
G01X618509Y-35814D01*
G03X660400Y-251714I41891J-103886D01*
G03X702291Y-35814I0J112014D01*
G01X872509Y-35814D01*
G03X914400Y-251714I41891J-103886D01*
G03X956291Y-35814I0J112014D01*
G01X1126509Y-35814D01*
G03X1168400Y-251714I41891J-103886D01*
G03X1210291Y-35814I0J112014D01*
G01X1380509Y-35814D01*
G03X1422400Y-251714I41891J-103886D01*
G03X1464291Y-35814I0J112014D01*
G01X1634509Y-35814D01*
G03X1676400Y-251714I41891J-103886D01*
G03X1718291Y-35814I0J112014D01*
G01X1888509Y-35814D01*
G03X1930400Y-251714I41891J-103886D01*
G03X1972291Y-35814I0J112014D01*
G01X2142509Y-35814D01*
G03X2184400Y-251714I41891J-103886D01*
G03X2226291Y-35814I0J112014D01*
G01X2396509Y-35814D01*
G03X2438400Y-251714I41891J-103886D01*
G03X2480291Y-35814I0J112014D01*
G01X2650509Y-35814D01*
G03X2692400Y-251714I41891J-103886D01*
G03X2734291Y-35814I0J112014D01*
G01X2904509Y-35814D01*
G03X2946400Y-251714I41891J-103886D01*
G03X2988291Y-35814I0J112014D01*
G01X3158509Y-35814D01*
G03X3200400Y-251714I41891J-103886D01*
G03X3242291Y-35814I0J112014D01*
G01X3412509Y-35814D01*
G03X3454400Y-251714I41891J-103886D01*
G03X3496291Y-35814I0J112014D01*
G01X3666509Y-35814D01*
G03X3708400Y-251714I41891J-103886D01*
G03X3750291Y-35814I0J112014D01*
G01X3920509Y-35814D01*
G03X3962400Y-251714I41891J-103886D01*
G03X4004291Y-35814I0J112014D01*
G01X4174509Y-35814D01*
G03X4216400Y-251714I41891J-103886D01*
G03X4258291Y-35814I0J112014D01*
G01X4522570Y-35814D01*
G03X4621669Y-458615I99099J-199786D01*
G03X4720768Y-35814I0J223014D01*
G01X4800000Y-35814D01*
G02X4964186Y-200000I0J-164186D01*
G01X4964186Y-5666864D01*
G03X4573254Y-5573254I-224186J-73136D01*
G03X4666863Y-5964186I166746J-166746D01*
G01X333136Y-5964186D01*
G03X426746Y-5573254I-73136J224186D01*
G01X526923Y-3082163D02*
G03X562737Y-3117977I35814J0D01*
G01X732663Y-3117977D01*
G03X768477Y-3082163I0J35814D01*
G01X768477Y-2912237D01*
G03X753932Y-2883422I-35814J0D01*
G02X726046Y-2845585I47256J64022D01*
G01X966665Y-2604965D01*
G03X988314Y-2552700I-52265J52265D01*
G01X988314Y-2530636D01*
G01X988541Y-2527245D01*
G01X989212Y-2523302D01*
G01X990468Y-2518294D01*
G01X992196Y-2512927D01*
G01X994216Y-2507792D01*
G01X996266Y-2503472D01*
G01X997907Y-2500652D01*
G01X999437Y-2498610D01*
G03X914400Y-2313686I-85037J72910D01*
G03X829363Y-2498610I0J-112014D01*
G01X830893Y-2500652D01*
G01X832534Y-2503472D01*
G01X834584Y-2507792D01*
G01X836604Y-2512927D01*
G01X838332Y-2518294D01*
G01X839524Y-2523046D01*
G01X595435Y-2767135D01*
G03X573786Y-2819400I52265J-52265D01*
G02X541468Y-2883422I-79574J0D01*
G03X526923Y-2912237I21269J-28815D01*
G01X526923Y-3082163D01*
G01X736854Y-2537968D02*
G03X772668Y-2502154I0J35814D01*
G01X772668Y-2349754D01*
G03X736854Y-2313940I-35814J0D01*
G01X584454Y-2313940D01*
G03X548640Y-2349754I0J-35814D01*
G01X548640Y-2502154D01*
G03X584454Y-2537968I35814J0D01*
G01X736854Y-2537968D01*
G01X1038347Y-2968644D02*
G03X1053493Y-3061549I117353J-28556D01*
G01X1052619Y-3061549D01*
G01X1018605Y-3027536D01*
G03X816298Y-2911798I-116905J30336D01*
G03X932036Y-3114105I85402J-85402D01*
G01X983978Y-3166048D01*
G03X1027263Y-3183977I43285J43285D01*
G01X1207710Y-3183977D01*
G03X1250995Y-3166048I0J61214D01*
G01X1324548Y-3092495D01*
G03X1329219Y-3087255I-43285J43285D01*
G03X1517577Y-3051511I80481J90055D01*
G03X1434108Y-2878915I-107877J54311D01*
G01X1452368Y-2860655D01*
G01X2269814Y-2860655D01*
G03X2313098Y-2842726I0J61214D01*
G01X2387705Y-2768119D01*
G03X2405634Y-2724835I-43285J43285D01*
G01X2405634Y-2672036D01*
G01X2481685Y-2595985D01*
G03X2499614Y-2552700I-43285J43285D01*
G01X2499614Y-2519508D01*
G03X2438400Y-2313686I-61214J93808D01*
G03X2377186Y-2519508I0J-112014D01*
G01X2377186Y-2527344D01*
G01X2311400Y-2593130D01*
G01X2245614Y-2527344D01*
G01X2245614Y-2519508D01*
G03X2184400Y-2313686I-61214J93808D01*
G03X2123186Y-2519508I0J-112014D01*
G01X2123186Y-2552700D01*
G03X2141115Y-2595985I61214J0D01*
G01X2217104Y-2671974D01*
G01X2217103Y-2672227D01*
G01X1248672Y-2672187D01*
G03X1205387Y-2690116I0J-61214D01*
G01X1112415Y-2783088D01*
G03X1094486Y-2826373I43285J-43285D01*
G01X1094486Y-2893085D01*
G03X1038347Y-2968644I61214J-104115D01*
G01X1056386Y-2425700D02*
G03X1280414Y-2425700I112014J0D01*
G03X1056386Y-2425700I-112014J0D01*
G01X1310386Y-2425700D02*
G03X1534414Y-2425700I112014J0D01*
G03X1310386Y-2425700I-112014J0D01*
G01X1564386Y-2425700D02*
G03X1788414Y-2425700I112014J0D01*
G03X1564386Y-2425700I-112014J0D01*
G01X1818386Y-2425700D02*
G03X2042414Y-2425700I112014J0D01*
G03X1818386Y-2425700I-112014J0D01*
G01X3129416Y-2758186D02*
G01X2897900Y-2526670D01*
G03X3025606Y-2346494I48500J100970D01*
G03X2845430Y-2474200I-79206J-79206D01*
G01X2804179Y-2432949D01*
G03X2613194Y-2346494I-111779J7249D01*
G03X2699649Y-2537479I79206J-79206D01*
G01X3046535Y-2884365D01*
G03X3098800Y-2906014I52265J52265D01*
G01X3715884Y-2906014D01*
G01X4010900Y-3201030D01*
G03X3883194Y-3381206I-48500J-100970D01*
G03X4063370Y-3253500I79206J79206D01*
G01X4104621Y-3294751D01*
G03X4295606Y-3381206I111779J-7249D01*
G03X4209151Y-3190221I-79206J79206D01*
G01X3798765Y-2779835D01*
G03X3746500Y-2758186I-52265J-52265D01*
G01X3129416Y-2758186D01*
G01X3088386Y-2425700D02*
G03X3312414Y-2425700I112014J0D01*
G03X3088386Y-2425700I-112014J0D01*
G01X3342386Y-2425700D02*
G03X3566414Y-2425700I112014J0D01*
G03X3342386Y-2425700I-112014J0D01*
G01X3820414Y-3302000D02*
G03X3596386Y-3302000I-112014J0D01*
G03X3820414Y-3302000I112014J0D01*
G01X3596386Y-2425700D02*
G03X3820414Y-2425700I112014J0D01*
G03X3596386Y-2425700I-112014J0D01*
G01X3850386Y-2425700D02*
G03X4074414Y-2425700I112014J0D01*
G03X3850386Y-2425700I-112014J0D01*
G01X4104386Y-2425700D02*
G03X4328414Y-2425700I112014J0D01*
G03X4104386Y-2425700I-112014J0D01*
G04 Copper End*

G04 TearDrop Start*
G36*
G01X952500Y-2529442D02*
G01X876300Y-2529442D01*
G01X875872Y-2523036D01*
G01X874663Y-2515931D01*
G01X872784Y-2508438D01*
G01X870347Y-2500871D01*
G01X867463Y-2493541D01*
G01X864245Y-2486761D01*
G01X860803Y-2480843D01*
G01X857250Y-2476102D01*
G01X971550Y-2476102D01*
G01X967997Y-2480843D01*
G01X964555Y-2486761D01*
G01X961337Y-2493541D01*
G01X958453Y-2500871D01*
G01X956016Y-2508438D01*
G01X954137Y-2515931D01*
G01X952928Y-2523036D01*
G01X952500Y-2529442D01*
G37*
G36*
G01X609600Y-2819400D02*
G01X685800Y-2819400D01*
G03X732663Y-2912237I115388J0D01*
G01X562737Y-2912237D01*
G03X609600Y-2819400I-68525J92837D01*
G37*
G04 TearDrop End*

G04 Pad Start*
G54D11*
G01X660654Y-2425954D03*
G54D12*
G01X914400Y-2425700D03*
G01X1168400Y-2425700D03*
G01X1422400Y-2425700D03*
G01X1676400Y-2425700D03*
G01X1930400Y-2425700D03*
G01X2184400Y-2425700D03*
G01X2438400Y-2425700D03*
G01X2692400Y-2425700D03*
G01X2946400Y-2425700D03*
G01X3200400Y-2425700D03*
G01X3454400Y-2425700D03*
G01X3708400Y-2425700D03*
G01X3962400Y-2425700D03*
G01X4216400Y-2425700D03*
G01X4216400Y-139700D03*
G01X3962400Y-139700D03*
G01X3708400Y-139700D03*
G01X3454400Y-139700D03*
G01X3200400Y-139700D03*
G01X2946400Y-139700D03*
G01X2692400Y-139700D03*
G01X2438400Y-139700D03*
G01X2184400Y-139700D03*
G01X1930400Y-139700D03*
G01X1676400Y-139700D03*
G01X1422400Y-139700D03*
G01X1168400Y-139700D03*
G01X914400Y-139700D03*
G01X660400Y-139700D03*
G54D13*
G01X647700Y-2997200D03*
G54D14*
G01X901700Y-2997200D03*
G01X1155700Y-2997200D03*
G01X1409700Y-2997200D03*
G54D12*
G01X4216400Y-3302000D03*
G01X3962400Y-3302000D03*
G01X3708400Y-3302000D03*
G04 Pad End*

G04 Via Start*
G54D15*
G01X254490Y-247644D03*
G54D16*
G01X260000Y-5740000D03*
G54D15*
G01X4621669Y-235600D03*
G54D16*
G01X4740000Y-5740000D03*
G54D18*
G01X1352296Y-4097401D03*
G01X3114802Y-4102100D03*
G01X1939798Y-5232400D03*
G01X3702304Y-5143500D03*
G04 Via End*

G04 Track Start*
G54D19*
G01X647700Y-2997200D02*
G01X647700Y-2819400D01*
G01X914400Y-2552700D02*
G01X914400Y-2425700D01*
G01X2692400Y-2425700D02*
G01X3098800Y-2832100D01*
G01X3746500Y-2832100D02*
G01X4216400Y-3302000D01*
G01X3098800Y-2832100D02*
G01X3746500Y-2832100D01*
G54D20*
G01X2438400Y-2425700D02*
G01X2438400Y-2552700D01*
G01X2344420Y-2724835D02*
G01X2269814Y-2799441D01*
G01X2184400Y-2425700D02*
G01X2184400Y-2552700D01*
G01X2278380Y-2697480D02*
G01X2242459Y-2733401D01*
G01X2184400Y-2552700D02*
G01X2278380Y-2646680D01*
G01X2278380Y-2697480D01*
G01X2438400Y-2552700D02*
G01X2344420Y-2646680D01*
G01X2344420Y-2724835D01*
G01X1281263Y-2945190D02*
G01X1281263Y-3049210D01*
G01X1207710Y-3122763D01*
G01X2242459Y-2733401D02*
G01X1248672Y-2733401D01*
G01X2269814Y-2799441D02*
G01X1427012Y-2799441D01*
G01X1281263Y-2945190D01*
G01X1207710Y-3122763D02*
G01X1027263Y-3122763D01*
G01X901700Y-2997200D01*
G01X1248672Y-2733401D02*
G01X1155700Y-2826373D01*
G01X1155700Y-2997200D01*
G54D19*
G01X647700Y-2819400D02*
G01X914400Y-2552700D01*
G04 Track End*

M02*

