G04 Layer: TopLayer*
G04 EasyEDA Pro v3.2.166, 2026-08-01 17:13:05*
G04 Gerber Generator version 0.3*
G04 Scale: 100 percent, Rotated: No, Reflected: No*
G04 Dimensions in millimeters*
G04 Leading zeros omitted, absolute positions, 4 integers and 5 decimals*
G04 Generated by one-click*
G04 Object Configs: Pad,Via,Track,Text,Image,Dimension,BoardOutline,BoardCutout,CopperFilled,SolidRegion,FPCStiffener,Line,PlaneZone,ComponentProperty,ComponentSilkscreen,TearDrop*
G04 Layer Configs: 1,2,3,4,5,6,7,8,9,10,11,13,14,56*
G04 Copper Areas: 1*
%FSLAX45Y45*%
%MOMM*%
%ADD10C,0.2032*%
%ADD11R,1.524X1.524*%
%ADD12C,1.524*%
%ADD13R,1.69926X1.69926*%
%ADD14C,1.69926*%
%ADD15C,3.744*%
%ADD16C,4.0066*%
%ADD17C,4.0*%
%ADD18C,0.61*%
%ADD19C,0.508*%
%ADD20C,0.762*%
G75*


G04 Copper Start*
G36*
G01X426746Y-5573254D02*
G01X404180Y-5553398D01*
G01X379271Y-5536573D01*
G01X352425Y-5523053D01*
G01X324077Y-5513058D01*
G01X294688Y-5506751D01*
G01X264735Y-5504233D01*
G01X234705Y-5505546D01*
G01X205086Y-5510669D01*
G01X176360Y-5519517D01*
G01X148992Y-5531948D01*
G01X123428Y-5547759D01*
G01X100083Y-5566694D01*
G01X79337Y-5588445D01*
G01X61525Y-5612658D01*
G01X46939Y-5638940D01*
G01X35814Y-5666864D01*
G01X35814Y-2912237D01*
G01X526923Y-2912237D01*
G01X526923Y-3082163D01*
G01X528676Y-3093230D01*
G01X533763Y-3103214D01*
G01X541686Y-3111137D01*
G01X551670Y-3116224D01*
G01X562737Y-3117977D01*
G01X732663Y-3117977D01*
G01X732663Y-3117977D01*
G01X743730Y-3116224D01*
G01X753714Y-3111137D01*
G01X761637Y-3103214D01*
G01X766724Y-3093230D01*
G01X768477Y-3082163D01*
G01X768477Y-2997200D01*
G01X780923Y-2997200D01*
G01X782758Y-3018173D01*
G01X788207Y-3038508D01*
G01X797104Y-3057588D01*
G01X809179Y-3074834D01*
G01X824066Y-3089721D01*
G01X841312Y-3101796D01*
G01X860392Y-3110693D01*
G01X880727Y-3116142D01*
G01X901700Y-3117977D01*
G01X922673Y-3116142D01*
G01X943008Y-3110693D01*
G01X962089Y-3101796D01*
G01X979334Y-3089721D01*
G01X994221Y-3074834D01*
G01X1006296Y-3057588D01*
G01X1015193Y-3038508D01*
G01X1020642Y-3018173D01*
G01X1022477Y-2997200D01*
G01X1020642Y-2976227D01*
G01X1015193Y-2955892D01*
G01X1006296Y-2936811D01*
G01X994221Y-2919566D01*
G01X979334Y-2904679D01*
G01X962089Y-2892604D01*
G01X943008Y-2883707D01*
G01X922673Y-2878258D01*
G01X901700Y-2876423D01*
G01X880727Y-2878258D01*
G01X860392Y-2883707D01*
G01X841312Y-2892604D01*
G01X824066Y-2904679D01*
G01X809179Y-2919566D01*
G01X797104Y-2936811D01*
G01X788207Y-2955892D01*
G01X782758Y-2976227D01*
G01X780923Y-2997200D01*
G01X780923Y-2997200D01*
G01X768477Y-2997200D01*
G01X768477Y-2912237D01*
G01X766724Y-2901170D01*
G01X761637Y-2891186D01*
G01X753714Y-2883263D01*
G01X743730Y-2878176D01*
G01X732663Y-2876423D01*
G01X562737Y-2876423D01*
G01X551670Y-2878176D01*
G01X541686Y-2883263D01*
G01X533763Y-2891186D01*
G01X528676Y-2901170D01*
G01X526923Y-2912237D01*
G01X35814Y-2912237D01*
G01X35814Y-2349754D01*
G01X548640Y-2349754D01*
G01X548640Y-2502154D01*
G01X550393Y-2513221D01*
G01X555480Y-2523205D01*
G01X563403Y-2531128D01*
G01X573387Y-2536215D01*
G01X584454Y-2537968D01*
G01X586740Y-2537968D01*
G01X586740Y-2552954D01*
G01X588160Y-2567374D01*
G01X592366Y-2581240D01*
G01X599197Y-2594018D01*
G01X608389Y-2605219D01*
G01X798635Y-2795465D01*
G01X809836Y-2804657D01*
G01X822614Y-2811488D01*
G01X836480Y-2815694D01*
G01X850900Y-2817114D01*
G01X1125084Y-2817114D01*
G01X1189104Y-2881134D01*
G01X1168294Y-2877081D01*
G01X1147097Y-2876730D01*
G01X1126164Y-2880090D01*
G01X1106142Y-2887059D01*
G01X1087646Y-2897422D01*
G01X1071247Y-2910859D01*
G01X1057451Y-2926956D01*
G01X1046682Y-2945218D01*
G01X1039272Y-2965081D01*
G01X1035450Y-2985935D01*
G01X1035332Y-3007135D01*
G01X1038924Y-3028029D01*
G01X1046114Y-3047973D01*
G01X1056680Y-3066353D01*
G01X1070298Y-3082602D01*
G01X1086547Y-3096220D01*
G01X1104927Y-3106786D01*
G01X1124871Y-3113976D01*
G01X1145765Y-3117568D01*
G01X1166965Y-3117450D01*
G01X1187819Y-3113628D01*
G01X1207682Y-3106218D01*
G01X1225944Y-3095449D01*
G01X1242041Y-3081653D01*
G01X1255478Y-3065254D01*
G01X1265841Y-3046758D01*
G01X1272810Y-3026736D01*
G01X1276170Y-3005803D01*
G01X1275819Y-2984606D01*
G01X1271766Y-2963796D01*
G01X1289893Y-2981923D01*
G01X1289893Y-2981923D01*
G01X1289077Y-3003300D01*
G01X1292046Y-3024486D01*
G01X1298705Y-3044816D01*
G01X1308847Y-3063652D01*
G01X1322154Y-3080403D01*
G01X1338207Y-3094544D01*
G01X1356502Y-3105630D01*
G01X1376467Y-3113315D01*
G01X1397475Y-3117357D01*
G01X1418866Y-3117629D01*
G01X1439969Y-3114122D01*
G01X1460123Y-3106948D01*
G01X1478695Y-3096330D01*
G01X1495102Y-3082602D01*
G01X1508830Y-3066195D01*
G01X1519448Y-3047623D01*
G01X1526622Y-3027469D01*
G01X1530129Y-3006366D01*
G01X1529857Y-2984975D01*
G01X1525815Y-2963967D01*
G01X1518130Y-2944002D01*
G01X1507044Y-2925707D01*
G01X1492903Y-2909654D01*
G01X1476152Y-2896347D01*
G01X1457316Y-2886205D01*
G01X1436986Y-2879546D01*
G01X1415800Y-2876577D01*
G01X1394423Y-2877393D01*
G01X1207965Y-2690935D01*
G01X1196764Y-2681743D01*
G01X1183986Y-2674912D01*
G01X1170120Y-2670706D01*
G01X1155700Y-2669286D01*
G01X881516Y-2669286D01*
G01X748315Y-2536085D01*
G01X758156Y-2530944D01*
G01X765950Y-2523037D01*
G01X770947Y-2513122D01*
G01X772668Y-2502154D01*
G01X772668Y-2425700D01*
G01X802386Y-2425700D01*
G01X804293Y-2446283D01*
G01X809950Y-2466164D01*
G01X819164Y-2484668D01*
G01X831621Y-2501163D01*
G01X846896Y-2515089D01*
G01X864471Y-2525971D01*
G01X883746Y-2533438D01*
G01X904065Y-2537236D01*
G01X924735Y-2537236D01*
G01X945054Y-2533438D01*
G01X964329Y-2525971D01*
G01X981904Y-2515089D01*
G01X997179Y-2501163D01*
G01X1009636Y-2484668D01*
G01X1018850Y-2466164D01*
G01X1024507Y-2446283D01*
G01X1026414Y-2425700D01*
G01X1026414Y-2425700D01*
G01X1056386Y-2425700D01*
G01X1058293Y-2446283D01*
G01X1063950Y-2466164D01*
G01X1073164Y-2484668D01*
G01X1085621Y-2501163D01*
G01X1100896Y-2515089D01*
G01X1118471Y-2525971D01*
G01X1137746Y-2533438D01*
G01X1158065Y-2537236D01*
G01X1178735Y-2537236D01*
G01X1199054Y-2533438D01*
G01X1218329Y-2525971D01*
G01X1235904Y-2515089D01*
G01X1251179Y-2501163D01*
G01X1263636Y-2484668D01*
G01X1272850Y-2466164D01*
G01X1278507Y-2446283D01*
G01X1280414Y-2425700D01*
G01X1280414Y-2425700D01*
G01X1310386Y-2425700D01*
G01X1312293Y-2446283D01*
G01X1317950Y-2466164D01*
G01X1327164Y-2484668D01*
G01X1339621Y-2501163D01*
G01X1354896Y-2515089D01*
G01X1372471Y-2525971D01*
G01X1391746Y-2533438D01*
G01X1412065Y-2537236D01*
G01X1432735Y-2537236D01*
G01X1453054Y-2533438D01*
G01X1472329Y-2525971D01*
G01X1489904Y-2515089D01*
G01X1505179Y-2501163D01*
G01X1517636Y-2484668D01*
G01X1526850Y-2466164D01*
G01X1532507Y-2446283D01*
G01X1534414Y-2425700D01*
G01X1534414Y-2425700D01*
G01X1564386Y-2425700D01*
G01X1566293Y-2446283D01*
G01X1571950Y-2466164D01*
G01X1581164Y-2484668D01*
G01X1593621Y-2501163D01*
G01X1608896Y-2515089D01*
G01X1626471Y-2525971D01*
G01X1645746Y-2533438D01*
G01X1666065Y-2537236D01*
G01X1686735Y-2537236D01*
G01X1707054Y-2533438D01*
G01X1726329Y-2525971D01*
G01X1743904Y-2515089D01*
G01X1759179Y-2501163D01*
G01X1771636Y-2484668D01*
G01X1780850Y-2466164D01*
G01X1786507Y-2446283D01*
G01X1788414Y-2425700D01*
G01X1788414Y-2425700D01*
G01X1818386Y-2425700D01*
G01X1820293Y-2446283D01*
G01X1825950Y-2466164D01*
G01X1835164Y-2484668D01*
G01X1847621Y-2501163D01*
G01X1862896Y-2515089D01*
G01X1880471Y-2525971D01*
G01X1899746Y-2533438D01*
G01X1920065Y-2537236D01*
G01X1940735Y-2537236D01*
G01X1961054Y-2533438D01*
G01X1980329Y-2525971D01*
G01X1997904Y-2515089D01*
G01X2013179Y-2501163D01*
G01X2025636Y-2484668D01*
G01X2034850Y-2466164D01*
G01X2040507Y-2446283D01*
G01X2042414Y-2425700D01*
G01X2042414Y-2425700D01*
G01X2072386Y-2425700D01*
G01X2074293Y-2446283D01*
G01X2079950Y-2466164D01*
G01X2089164Y-2484668D01*
G01X2101621Y-2501163D01*
G01X2116896Y-2515089D01*
G01X2134471Y-2525971D01*
G01X2153746Y-2533438D01*
G01X2174065Y-2537236D01*
G01X2194735Y-2537236D01*
G01X2215054Y-2533438D01*
G01X2234329Y-2525971D01*
G01X2251904Y-2515089D01*
G01X2267179Y-2501163D01*
G01X2279636Y-2484668D01*
G01X2288850Y-2466164D01*
G01X2294507Y-2446283D01*
G01X2296414Y-2425700D01*
G01X2296414Y-2425700D01*
G01X2326386Y-2425700D01*
G01X2328293Y-2446283D01*
G01X2333950Y-2466164D01*
G01X2343164Y-2484668D01*
G01X2355621Y-2501163D01*
G01X2370896Y-2515089D01*
G01X2388471Y-2525971D01*
G01X2407746Y-2533438D01*
G01X2428065Y-2537236D01*
G01X2448735Y-2537236D01*
G01X2469054Y-2533438D01*
G01X2488329Y-2525971D01*
G01X2505904Y-2515089D01*
G01X2521179Y-2501163D01*
G01X2533636Y-2484668D01*
G01X2542850Y-2466164D01*
G01X2548507Y-2446283D01*
G01X2550414Y-2425700D01*
G01X2550414Y-2425700D01*
G01X2580386Y-2425700D01*
G01X2582293Y-2446283D01*
G01X2587950Y-2466164D01*
G01X2597164Y-2484668D01*
G01X2609621Y-2501163D01*
G01X2624896Y-2515089D01*
G01X2642471Y-2525971D01*
G01X2661746Y-2533438D01*
G01X2682065Y-2537236D01*
G01X2702735Y-2537236D01*
G01X2723054Y-2533438D01*
G01X2742329Y-2525971D01*
G01X2759904Y-2515089D01*
G01X2775179Y-2501163D01*
G01X2787636Y-2484668D01*
G01X2796850Y-2466164D01*
G01X2802507Y-2446283D01*
G01X2804414Y-2425700D01*
G01X2803574Y-2416639D01*
G01X2834753Y-2416639D01*
G01X2835006Y-2437468D01*
G01X2839111Y-2457889D01*
G01X2846926Y-2477197D01*
G01X2858180Y-2494725D01*
G01X2872486Y-2509866D01*
G01X2872486Y-2705100D01*
G01X2873906Y-2719520D01*
G01X2878112Y-2733386D01*
G01X2884943Y-2746164D01*
G01X2894135Y-2757365D01*
G01X3021135Y-2884365D01*
G01X3032336Y-2893557D01*
G01X3045114Y-2900388D01*
G01X3058980Y-2904594D01*
G01X3073400Y-2906014D01*
G01X3499984Y-2906014D01*
G01X3634486Y-3040516D01*
G01X3634486Y-3217834D01*
G01X3634486Y-3217834D01*
G01X3620180Y-3232975D01*
G01X3608926Y-3250503D01*
G01X3601111Y-3269811D01*
G01X3597006Y-3290232D01*
G01X3596753Y-3311061D01*
G01X3600361Y-3331576D01*
G01X3607705Y-3351068D01*
G01X3618531Y-3368864D01*
G01X3632465Y-3384347D01*
G01X3649025Y-3396983D01*
G01X3667638Y-3406334D01*
G01X3687660Y-3412077D01*
G01X3708400Y-3414014D01*
G01X3729140Y-3412077D01*
G01X3749162Y-3406334D01*
G01X3767775Y-3396983D01*
G01X3784335Y-3384347D01*
G01X3798269Y-3368864D01*
G01X3809095Y-3351068D01*
G01X3816439Y-3331576D01*
G01X3820047Y-3311061D01*
G01X3819794Y-3290232D01*
G01X3815689Y-3269811D01*
G01X3807874Y-3250503D01*
G01X3796620Y-3232975D01*
G01X3782314Y-3217834D01*
G01X3782314Y-3009900D01*
G01X3780894Y-2995480D01*
G01X3776688Y-2981614D01*
G01X3769857Y-2968836D01*
G01X3760665Y-2957635D01*
G01X3582865Y-2779835D01*
G01X3571664Y-2770643D01*
G01X3558886Y-2763812D01*
G01X3545020Y-2759606D01*
G01X3530600Y-2758186D01*
G01X3104016Y-2758186D01*
G01X3020314Y-2674484D01*
G01X3020314Y-2509866D01*
G01X3034620Y-2494725D01*
G01X3045874Y-2477197D01*
G01X3053689Y-2457889D01*
G01X3057794Y-2437468D01*
G01X3057937Y-2425700D01*
G01X3088386Y-2425700D01*
G01X3090293Y-2446283D01*
G01X3095950Y-2466164D01*
G01X3105164Y-2484668D01*
G01X3117621Y-2501163D01*
G01X3132896Y-2515089D01*
G01X3150471Y-2525971D01*
G01X3169746Y-2533438D01*
G01X3190065Y-2537236D01*
G01X3210735Y-2537236D01*
G01X3231054Y-2533438D01*
G01X3250329Y-2525971D01*
G01X3267904Y-2515089D01*
G01X3283179Y-2501163D01*
G01X3295636Y-2484668D01*
G01X3304850Y-2466164D01*
G01X3310507Y-2446283D01*
G01X3312414Y-2425700D01*
G01X3312414Y-2425700D01*
G01X3342386Y-2425700D01*
G01X3344293Y-2446283D01*
G01X3349950Y-2466164D01*
G01X3359164Y-2484668D01*
G01X3371621Y-2501163D01*
G01X3386896Y-2515089D01*
G01X3404471Y-2525971D01*
G01X3423746Y-2533438D01*
G01X3444065Y-2537236D01*
G01X3464735Y-2537236D01*
G01X3485054Y-2533438D01*
G01X3504329Y-2525971D01*
G01X3521904Y-2515089D01*
G01X3537179Y-2501163D01*
G01X3549636Y-2484668D01*
G01X3558850Y-2466164D01*
G01X3564507Y-2446283D01*
G01X3566414Y-2425700D01*
G01X3596386Y-2425700D01*
G01X3598293Y-2446283D01*
G01X3603950Y-2466164D01*
G01X3613164Y-2484668D01*
G01X3625621Y-2501163D01*
G01X3640896Y-2515089D01*
G01X3658471Y-2525971D01*
G01X3677746Y-2533438D01*
G01X3698065Y-2537236D01*
G01X3718735Y-2537236D01*
G01X3739054Y-2533438D01*
G01X3758329Y-2525971D01*
G01X3775904Y-2515089D01*
G01X3791179Y-2501163D01*
G01X3803636Y-2484668D01*
G01X3812850Y-2466164D01*
G01X3818507Y-2446283D01*
G01X3819614Y-2434330D01*
G01X3850719Y-2434330D01*
G01X3854157Y-2454521D01*
G01X3861214Y-2473748D01*
G01X3871655Y-2491369D01*
G01X3885129Y-2506794D01*
G01X3901186Y-2519508D01*
G01X3901186Y-3208192D01*
G01X3885129Y-3220906D01*
G01X3871655Y-3236331D01*
G01X3861214Y-3253952D01*
G01X3854157Y-3273179D01*
G01X3850719Y-3293370D01*
G01X3851014Y-3313849D01*
G01X3855034Y-3333932D01*
G01X3862643Y-3352947D01*
G01X3873587Y-3370260D01*
G01X3887500Y-3385290D01*
G01X3903918Y-3397535D01*
G01X3922291Y-3406587D01*
G01X3942004Y-3412142D01*
G01X3962400Y-3414014D01*
G01X3962400Y-3414014D01*
G01X3982796Y-3412142D01*
G01X4002509Y-3406587D01*
G01X4020882Y-3397535D01*
G01X4037300Y-3385290D01*
G01X4051213Y-3370260D01*
G01X4062157Y-3352947D01*
G01X4069766Y-3333932D01*
G01X4073786Y-3313849D01*
G01X4073957Y-3302000D01*
G01X4104386Y-3302000D01*
G01X4106293Y-3322583D01*
G01X4111950Y-3342464D01*
G01X4121164Y-3360968D01*
G01X4133621Y-3377463D01*
G01X4148896Y-3391389D01*
G01X4166471Y-3402271D01*
G01X4185746Y-3409738D01*
G01X4206065Y-3413536D01*
G01X4226735Y-3413536D01*
G01X4247054Y-3409738D01*
G01X4266329Y-3402271D01*
G01X4283904Y-3391389D01*
G01X4299179Y-3377463D01*
G01X4311636Y-3360968D01*
G01X4320850Y-3342464D01*
G01X4326507Y-3322583D01*
G01X4328414Y-3302000D01*
G01X4328414Y-3302000D01*
G01X4326507Y-3281417D01*
G01X4320850Y-3261536D01*
G01X4311636Y-3243032D01*
G01X4299179Y-3226537D01*
G01X4283904Y-3212611D01*
G01X4266329Y-3201729D01*
G01X4247054Y-3194262D01*
G01X4226735Y-3190464D01*
G01X4206065Y-3190464D01*
G01X4185746Y-3194262D01*
G01X4166471Y-3201729D01*
G01X4148896Y-3212611D01*
G01X4133621Y-3226537D01*
G01X4121164Y-3243032D01*
G01X4111950Y-3261536D01*
G01X4106293Y-3281417D01*
G01X4104386Y-3302000D01*
G01X4073957Y-3302000D01*
G01X4074081Y-3293370D01*
G01X4070643Y-3273179D01*
G01X4063586Y-3253952D01*
G01X4053145Y-3236331D01*
G01X4039671Y-3220906D01*
G01X4023614Y-3208192D01*
G01X4023614Y-2519508D01*
G01X4039671Y-2506794D01*
G01X4053145Y-2491369D01*
G01X4063586Y-2473748D01*
G01X4070643Y-2454521D01*
G01X4074081Y-2434330D01*
G01X4073957Y-2425700D01*
G01X4104386Y-2425700D01*
G01X4106293Y-2446283D01*
G01X4111950Y-2466164D01*
G01X4121164Y-2484668D01*
G01X4133621Y-2501163D01*
G01X4148896Y-2515089D01*
G01X4166471Y-2525971D01*
G01X4185746Y-2533438D01*
G01X4206065Y-2537236D01*
G01X4226735Y-2537236D01*
G01X4247054Y-2533438D01*
G01X4266329Y-2525971D01*
G01X4283904Y-2515089D01*
G01X4299179Y-2501163D01*
G01X4311636Y-2484668D01*
G01X4320850Y-2466164D01*
G01X4326507Y-2446283D01*
G01X4328414Y-2425700D01*
G01X4326507Y-2405117D01*
G01X4320850Y-2385236D01*
G01X4311636Y-2366732D01*
G01X4299179Y-2350237D01*
G01X4283904Y-2336311D01*
G01X4266329Y-2325429D01*
G01X4247054Y-2317962D01*
G01X4226735Y-2314164D01*
G01X4206065Y-2314164D01*
G01X4185746Y-2317962D01*
G01X4166471Y-2325429D01*
G01X4148896Y-2336311D01*
G01X4133621Y-2350237D01*
G01X4121164Y-2366732D01*
G01X4111950Y-2385236D01*
G01X4106293Y-2405117D01*
G01X4104386Y-2425700D01*
G01X4104386Y-2425700D01*
G01X4073957Y-2425700D01*
G01X4073786Y-2413851D01*
G01X4069766Y-2393768D01*
G01X4062157Y-2374753D01*
G01X4051213Y-2357440D01*
G01X4037300Y-2342410D01*
G01X4020882Y-2330165D01*
G01X4002509Y-2321113D01*
G01X3982796Y-2315558D01*
G01X3962400Y-2313686D01*
G01X3942004Y-2315558D01*
G01X3922291Y-2321113D01*
G01X3903918Y-2330165D01*
G01X3887500Y-2342410D01*
G01X3873587Y-2357440D01*
G01X3862643Y-2374753D01*
G01X3855034Y-2393768D01*
G01X3851014Y-2413851D01*
G01X3850719Y-2434330D01*
G01X3819614Y-2434330D01*
G01X3820414Y-2425700D01*
G01X3818507Y-2405117D01*
G01X3812850Y-2385236D01*
G01X3803636Y-2366732D01*
G01X3791179Y-2350237D01*
G01X3775904Y-2336311D01*
G01X3758329Y-2325429D01*
G01X3739054Y-2317962D01*
G01X3718735Y-2314164D01*
G01X3698065Y-2314164D01*
G01X3677746Y-2317962D01*
G01X3658471Y-2325429D01*
G01X3640896Y-2336311D01*
G01X3625621Y-2350237D01*
G01X3613164Y-2366732D01*
G01X3603950Y-2385236D01*
G01X3598293Y-2405117D01*
G01X3596386Y-2425700D01*
G01X3596386Y-2425700D01*
G01X3566414Y-2425700D01*
G01X3564507Y-2405117D01*
G01X3558850Y-2385236D01*
G01X3549636Y-2366732D01*
G01X3537179Y-2350237D01*
G01X3521904Y-2336311D01*
G01X3504329Y-2325429D01*
G01X3485054Y-2317962D01*
G01X3464735Y-2314164D01*
G01X3444065Y-2314164D01*
G01X3423746Y-2317962D01*
G01X3404471Y-2325429D01*
G01X3386896Y-2336311D01*
G01X3371621Y-2350237D01*
G01X3359164Y-2366732D01*
G01X3349950Y-2385236D01*
G01X3344293Y-2405117D01*
G01X3342386Y-2425700D01*
G01X3342386Y-2425700D01*
G01X3312414Y-2425700D01*
G01X3310507Y-2405117D01*
G01X3304850Y-2385236D01*
G01X3295636Y-2366732D01*
G01X3283179Y-2350237D01*
G01X3267904Y-2336311D01*
G01X3250329Y-2325429D01*
G01X3231054Y-2317962D01*
G01X3210735Y-2314164D01*
G01X3190065Y-2314164D01*
G01X3169746Y-2317962D01*
G01X3150471Y-2325429D01*
G01X3132896Y-2336311D01*
G01X3117621Y-2350237D01*
G01X3105164Y-2366732D01*
G01X3095950Y-2385236D01*
G01X3090293Y-2405117D01*
G01X3088386Y-2425700D01*
G01X3088386Y-2425700D01*
G01X3057937Y-2425700D01*
G01X3058047Y-2416639D01*
G01X3054439Y-2396124D01*
G01X3047095Y-2376632D01*
G01X3036269Y-2358836D01*
G01X3022335Y-2343353D01*
G01X3005775Y-2330717D01*
G01X2987162Y-2321366D01*
G01X2967140Y-2315623D01*
G01X2946400Y-2313686D01*
G01X2925660Y-2315623D01*
G01X2905638Y-2321366D01*
G01X2887025Y-2330717D01*
G01X2870465Y-2343353D01*
G01X2856531Y-2358836D01*
G01X2845705Y-2376632D01*
G01X2838361Y-2396124D01*
G01X2834753Y-2416639D01*
G01X2803574Y-2416639D01*
G01X2802507Y-2405117D01*
G01X2796850Y-2385236D01*
G01X2787636Y-2366732D01*
G01X2775179Y-2350237D01*
G01X2759904Y-2336311D01*
G01X2742329Y-2325429D01*
G01X2723054Y-2317962D01*
G01X2702735Y-2314164D01*
G01X2682065Y-2314164D01*
G01X2661746Y-2317962D01*
G01X2642471Y-2325429D01*
G01X2624896Y-2336311D01*
G01X2609621Y-2350237D01*
G01X2597164Y-2366732D01*
G01X2587950Y-2385236D01*
G01X2582293Y-2405117D01*
G01X2580386Y-2425700D01*
G01X2580386Y-2425700D01*
G01X2550414Y-2425700D01*
G01X2548507Y-2405117D01*
G01X2542850Y-2385236D01*
G01X2533636Y-2366732D01*
G01X2521179Y-2350237D01*
G01X2505904Y-2336311D01*
G01X2488329Y-2325429D01*
G01X2469054Y-2317962D01*
G01X2448735Y-2314164D01*
G01X2428065Y-2314164D01*
G01X2407746Y-2317962D01*
G01X2388471Y-2325429D01*
G01X2370896Y-2336311D01*
G01X2355621Y-2350237D01*
G01X2343164Y-2366732D01*
G01X2333950Y-2385236D01*
G01X2328293Y-2405117D01*
G01X2326386Y-2425700D01*
G01X2326386Y-2425700D01*
G01X2296414Y-2425700D01*
G01X2294507Y-2405117D01*
G01X2288850Y-2385236D01*
G01X2279636Y-2366732D01*
G01X2267179Y-2350237D01*
G01X2251904Y-2336311D01*
G01X2234329Y-2325429D01*
G01X2215054Y-2317962D01*
G01X2194735Y-2314164D01*
G01X2174065Y-2314164D01*
G01X2153746Y-2317962D01*
G01X2134471Y-2325429D01*
G01X2116896Y-2336311D01*
G01X2101621Y-2350237D01*
G01X2089164Y-2366732D01*
G01X2079950Y-2385236D01*
G01X2074293Y-2405117D01*
G01X2072386Y-2425700D01*
G01X2072386Y-2425700D01*
G01X2042414Y-2425700D01*
G01X2040507Y-2405117D01*
G01X2034850Y-2385236D01*
G01X2025636Y-2366732D01*
G01X2013179Y-2350237D01*
G01X1997904Y-2336311D01*
G01X1980329Y-2325429D01*
G01X1961054Y-2317962D01*
G01X1940735Y-2314164D01*
G01X1920065Y-2314164D01*
G01X1899746Y-2317962D01*
G01X1880471Y-2325429D01*
G01X1862896Y-2336311D01*
G01X1847621Y-2350237D01*
G01X1835164Y-2366732D01*
G01X1825950Y-2385236D01*
G01X1820293Y-2405117D01*
G01X1818386Y-2425700D01*
G01X1818386Y-2425700D01*
G01X1788414Y-2425700D01*
G01X1786507Y-2405117D01*
G01X1780850Y-2385236D01*
G01X1771636Y-2366732D01*
G01X1759179Y-2350237D01*
G01X1743904Y-2336311D01*
G01X1726329Y-2325429D01*
G01X1707054Y-2317962D01*
G01X1686735Y-2314164D01*
G01X1666065Y-2314164D01*
G01X1645746Y-2317962D01*
G01X1626471Y-2325429D01*
G01X1608896Y-2336311D01*
G01X1593621Y-2350237D01*
G01X1581164Y-2366732D01*
G01X1571950Y-2385236D01*
G01X1566293Y-2405117D01*
G01X1564386Y-2425700D01*
G01X1564386Y-2425700D01*
G01X1534414Y-2425700D01*
G01X1532507Y-2405117D01*
G01X1526850Y-2385236D01*
G01X1517636Y-2366732D01*
G01X1505179Y-2350237D01*
G01X1489904Y-2336311D01*
G01X1472329Y-2325429D01*
G01X1453054Y-2317962D01*
G01X1432735Y-2314164D01*
G01X1412065Y-2314164D01*
G01X1391746Y-2317962D01*
G01X1372471Y-2325429D01*
G01X1354896Y-2336311D01*
G01X1339621Y-2350237D01*
G01X1327164Y-2366732D01*
G01X1317950Y-2385236D01*
G01X1312293Y-2405117D01*
G01X1310386Y-2425700D01*
G01X1310386Y-2425700D01*
G01X1280414Y-2425700D01*
G01X1278507Y-2405117D01*
G01X1272850Y-2385236D01*
G01X1263636Y-2366732D01*
G01X1251179Y-2350237D01*
G01X1235904Y-2336311D01*
G01X1218329Y-2325429D01*
G01X1199054Y-2317962D01*
G01X1178735Y-2314164D01*
G01X1158065Y-2314164D01*
G01X1137746Y-2317962D01*
G01X1118471Y-2325429D01*
G01X1100896Y-2336311D01*
G01X1085621Y-2350237D01*
G01X1073164Y-2366732D01*
G01X1063950Y-2385236D01*
G01X1058293Y-2405117D01*
G01X1056386Y-2425700D01*
G01X1056386Y-2425700D01*
G01X1026414Y-2425700D01*
G01X1024507Y-2405117D01*
G01X1018850Y-2385236D01*
G01X1009636Y-2366732D01*
G01X997179Y-2350237D01*
G01X981904Y-2336311D01*
G01X964329Y-2325429D01*
G01X945054Y-2317962D01*
G01X924735Y-2314164D01*
G01X904065Y-2314164D01*
G01X883746Y-2317962D01*
G01X864471Y-2325429D01*
G01X846896Y-2336311D01*
G01X831621Y-2350237D01*
G01X819164Y-2366732D01*
G01X809950Y-2385236D01*
G01X804293Y-2405117D01*
G01X802386Y-2425700D01*
G01X802386Y-2425700D01*
G01X772668Y-2425700D01*
G01X772668Y-2349754D01*
G01X770915Y-2338687D01*
G01X765828Y-2328703D01*
G01X757905Y-2320780D01*
G01X747921Y-2315693D01*
G01X736854Y-2313940D01*
G01X584454Y-2313940D01*
G01X573387Y-2315693D01*
G01X563403Y-2320780D01*
G01X555480Y-2328703D01*
G01X550393Y-2338687D01*
G01X548640Y-2349754D01*
G01X35814Y-2349754D01*
G01X35814Y-291417D01*
G01X43416Y-319638D01*
G01X54644Y-346623D01*
G01X69304Y-371908D01*
G01X87145Y-395058D01*
G01X107860Y-415677D01*
G01X131093Y-433409D01*
G01X156446Y-447951D01*
G01X183483Y-459052D01*
G01X211740Y-466522D01*
G01X240730Y-470233D01*
G01X269957Y-470121D01*
G01X298919Y-466188D01*
G01X327117Y-458501D01*
G01X354068Y-447192D01*
G01X379309Y-432456D01*
G01X402405Y-414546D01*
G01X422962Y-393769D01*
G01X440624Y-370483D01*
G01X455090Y-345086D01*
G01X466110Y-318016D01*
G01X473495Y-289738D01*
G01X477119Y-260736D01*
G01X476920Y-231509D01*
G01X472899Y-202560D01*
G01X465128Y-174385D01*
G01X453738Y-147468D01*
G01X438927Y-122272D01*
G01X420948Y-99229D01*
G01X400109Y-78735D01*
G01X376770Y-61142D01*
G01X351330Y-46753D01*
G01X324227Y-35814D01*
G01X618509Y-35814D01*
G01X600220Y-45225D01*
G01X583959Y-57822D01*
G01X570277Y-73180D01*
G01X559633Y-90781D01*
G01X552387Y-110031D01*
G01X548783Y-130282D01*
G01X548942Y-150850D01*
G01X552860Y-171042D01*
G01X560404Y-190177D01*
G01X571320Y-207611D01*
G01X585239Y-222754D01*
G01X601693Y-235097D01*
G01X620127Y-244224D01*
G01X639918Y-249825D01*
G01X660400Y-251714D01*
G01X680882Y-249825D01*
G01X700673Y-244224D01*
G01X719107Y-235097D01*
G01X735561Y-222754D01*
G01X749480Y-207611D01*
G01X760396Y-190177D01*
G01X767940Y-171042D01*
G01X771858Y-150850D01*
G01X772017Y-130282D01*
G01X768413Y-110031D01*
G01X761167Y-90781D01*
G01X750523Y-73180D01*
G01X736841Y-57822D01*
G01X720580Y-45225D01*
G01X702291Y-35814D01*
G01X872509Y-35814D01*
G01X854220Y-45225D01*
G01X837959Y-57822D01*
G01X824277Y-73180D01*
G01X813633Y-90781D01*
G01X806387Y-110031D01*
G01X802783Y-130282D01*
G01X802942Y-150850D01*
G01X806860Y-171042D01*
G01X814404Y-190177D01*
G01X825320Y-207611D01*
G01X839239Y-222754D01*
G01X855693Y-235097D01*
G01X874127Y-244224D01*
G01X893918Y-249825D01*
G01X914400Y-251714D01*
G01X934882Y-249825D01*
G01X954673Y-244224D01*
G01X973107Y-235097D01*
G01X989561Y-222754D01*
G01X1003480Y-207611D01*
G01X1014396Y-190177D01*
G01X1021940Y-171042D01*
G01X1025858Y-150850D01*
G01X1026017Y-130282D01*
G01X1022413Y-110031D01*
G01X1015167Y-90781D01*
G01X1004523Y-73180D01*
G01X990841Y-57822D01*
G01X974580Y-45225D01*
G01X956291Y-35814D01*
G01X1126509Y-35814D01*
G01X1108220Y-45225D01*
G01X1091959Y-57822D01*
G01X1078277Y-73180D01*
G01X1067633Y-90781D01*
G01X1060387Y-110031D01*
G01X1056783Y-130282D01*
G01X1056942Y-150850D01*
G01X1060860Y-171042D01*
G01X1068404Y-190177D01*
G01X1079320Y-207611D01*
G01X1093239Y-222754D01*
G01X1109693Y-235097D01*
G01X1128127Y-244224D01*
G01X1147918Y-249825D01*
G01X1168400Y-251714D01*
G01X1188882Y-249825D01*
G01X1208673Y-244224D01*
G01X1227107Y-235097D01*
G01X1243561Y-222754D01*
G01X1257480Y-207611D01*
G01X1268396Y-190177D01*
G01X1275940Y-171042D01*
G01X1279858Y-150850D01*
G01X1280017Y-130282D01*
G01X1276413Y-110031D01*
G01X1269167Y-90781D01*
G01X1258523Y-73180D01*
G01X1244841Y-57822D01*
G01X1228580Y-45225D01*
G01X1210291Y-35814D01*
G01X1380509Y-35814D01*
G01X1362220Y-45225D01*
G01X1345959Y-57822D01*
G01X1332277Y-73180D01*
G01X1321633Y-90781D01*
G01X1314387Y-110031D01*
G01X1310783Y-130282D01*
G01X1310942Y-150850D01*
G01X1314860Y-171042D01*
G01X1322404Y-190177D01*
G01X1333320Y-207611D01*
G01X1347239Y-222754D01*
G01X1363693Y-235097D01*
G01X1382127Y-244224D01*
G01X1401918Y-249825D01*
G01X1422400Y-251714D01*
G01X1442882Y-249825D01*
G01X1462673Y-244224D01*
G01X1481107Y-235097D01*
G01X1497561Y-222754D01*
G01X1511480Y-207611D01*
G01X1522396Y-190177D01*
G01X1529940Y-171042D01*
G01X1533858Y-150850D01*
G01X1534017Y-130282D01*
G01X1530413Y-110031D01*
G01X1523167Y-90781D01*
G01X1512523Y-73180D01*
G01X1498841Y-57822D01*
G01X1482580Y-45225D01*
G01X1464291Y-35814D01*
G01X1634509Y-35814D01*
G01X1616220Y-45225D01*
G01X1599959Y-57822D01*
G01X1586277Y-73180D01*
G01X1575633Y-90781D01*
G01X1568387Y-110031D01*
G01X1564783Y-130282D01*
G01X1564942Y-150850D01*
G01X1568860Y-171042D01*
G01X1576404Y-190177D01*
G01X1587320Y-207611D01*
G01X1601239Y-222754D01*
G01X1617693Y-235097D01*
G01X1636127Y-244224D01*
G01X1655918Y-249825D01*
G01X1676400Y-251714D01*
G01X1696882Y-249825D01*
G01X1716673Y-244224D01*
G01X1735107Y-235097D01*
G01X1751561Y-222754D01*
G01X1765480Y-207611D01*
G01X1776396Y-190177D01*
G01X1783940Y-171042D01*
G01X1787858Y-150850D01*
G01X1788017Y-130282D01*
G01X1784413Y-110031D01*
G01X1777167Y-90781D01*
G01X1766523Y-73180D01*
G01X1752841Y-57822D01*
G01X1736580Y-45225D01*
G01X1718291Y-35814D01*
G01X1888509Y-35814D01*
G01X1870220Y-45225D01*
G01X1853959Y-57822D01*
G01X1840277Y-73180D01*
G01X1829633Y-90781D01*
G01X1822387Y-110031D01*
G01X1818783Y-130282D01*
G01X1818942Y-150850D01*
G01X1822860Y-171042D01*
G01X1830404Y-190177D01*
G01X1841320Y-207611D01*
G01X1855239Y-222754D01*
G01X1871693Y-235097D01*
G01X1890127Y-244224D01*
G01X1909918Y-249825D01*
G01X1930400Y-251714D01*
G01X1950882Y-249825D01*
G01X1970673Y-244224D01*
G01X1989107Y-235097D01*
G01X2005561Y-222754D01*
G01X2019480Y-207611D01*
G01X2030396Y-190177D01*
G01X2037940Y-171042D01*
G01X2041858Y-150850D01*
G01X2042017Y-130282D01*
G01X2038413Y-110031D01*
G01X2031167Y-90781D01*
G01X2020523Y-73180D01*
G01X2006841Y-57822D01*
G01X1990580Y-45225D01*
G01X1972291Y-35814D01*
G01X2142509Y-35814D01*
G01X2124220Y-45225D01*
G01X2107959Y-57822D01*
G01X2094277Y-73180D01*
G01X2083633Y-90781D01*
G01X2076387Y-110031D01*
G01X2072783Y-130282D01*
G01X2072942Y-150850D01*
G01X2076860Y-171042D01*
G01X2084404Y-190177D01*
G01X2095320Y-207611D01*
G01X2109239Y-222754D01*
G01X2125693Y-235097D01*
G01X2144127Y-244224D01*
G01X2163918Y-249825D01*
G01X2184400Y-251714D01*
G01X2204882Y-249825D01*
G01X2224673Y-244224D01*
G01X2243107Y-235097D01*
G01X2259561Y-222754D01*
G01X2273480Y-207611D01*
G01X2284396Y-190177D01*
G01X2291940Y-171042D01*
G01X2295858Y-150850D01*
G01X2296017Y-130282D01*
G01X2292413Y-110031D01*
G01X2285167Y-90781D01*
G01X2274523Y-73180D01*
G01X2260841Y-57822D01*
G01X2244580Y-45225D01*
G01X2226291Y-35814D01*
G01X2396509Y-35814D01*
G01X2378220Y-45225D01*
G01X2361959Y-57822D01*
G01X2348277Y-73180D01*
G01X2337633Y-90781D01*
G01X2330387Y-110031D01*
G01X2326783Y-130282D01*
G01X2326942Y-150850D01*
G01X2330860Y-171042D01*
G01X2338404Y-190177D01*
G01X2349320Y-207611D01*
G01X2363239Y-222754D01*
G01X2379693Y-235097D01*
G01X2398127Y-244224D01*
G01X2417918Y-249825D01*
G01X2438400Y-251714D01*
G01X2458882Y-249825D01*
G01X2478673Y-244224D01*
G01X2497107Y-235097D01*
G01X2513561Y-222754D01*
G01X2527480Y-207611D01*
G01X2538396Y-190177D01*
G01X2545940Y-171042D01*
G01X2549858Y-150850D01*
G01X2550017Y-130282D01*
G01X2546413Y-110031D01*
G01X2539167Y-90781D01*
G01X2528523Y-73180D01*
G01X2514841Y-57822D01*
G01X2498580Y-45225D01*
G01X2480291Y-35814D01*
G01X2650509Y-35814D01*
G01X2632220Y-45225D01*
G01X2615959Y-57822D01*
G01X2602277Y-73180D01*
G01X2591633Y-90781D01*
G01X2584387Y-110031D01*
G01X2580783Y-130282D01*
G01X2580942Y-150850D01*
G01X2584860Y-171042D01*
G01X2592404Y-190177D01*
G01X2603320Y-207611D01*
G01X2617239Y-222754D01*
G01X2633693Y-235097D01*
G01X2652127Y-244224D01*
G01X2671918Y-249825D01*
G01X2692400Y-251714D01*
G01X2712882Y-249825D01*
G01X2732673Y-244224D01*
G01X2751107Y-235097D01*
G01X2767561Y-222754D01*
G01X2781480Y-207611D01*
G01X2792396Y-190177D01*
G01X2799940Y-171042D01*
G01X2803858Y-150850D01*
G01X2804017Y-130282D01*
G01X2800413Y-110031D01*
G01X2793167Y-90781D01*
G01X2782523Y-73180D01*
G01X2768841Y-57822D01*
G01X2752580Y-45225D01*
G01X2734291Y-35814D01*
G01X2904509Y-35814D01*
G01X2886220Y-45225D01*
G01X2869959Y-57822D01*
G01X2856277Y-73180D01*
G01X2845633Y-90781D01*
G01X2838387Y-110031D01*
G01X2834783Y-130282D01*
G01X2834942Y-150850D01*
G01X2838860Y-171042D01*
G01X2846404Y-190177D01*
G01X2857320Y-207611D01*
G01X2871239Y-222754D01*
G01X2887693Y-235097D01*
G01X2906127Y-244224D01*
G01X2925918Y-249825D01*
G01X2946400Y-251714D01*
G01X2966882Y-249825D01*
G01X2986673Y-244224D01*
G01X3005107Y-235097D01*
G01X3021561Y-222754D01*
G01X3035480Y-207611D01*
G01X3046396Y-190177D01*
G01X3053940Y-171042D01*
G01X3057858Y-150850D01*
G01X3058017Y-130282D01*
G01X3054413Y-110031D01*
G01X3047167Y-90781D01*
G01X3036523Y-73180D01*
G01X3022841Y-57822D01*
G01X3006580Y-45225D01*
G01X2988291Y-35814D01*
G01X3158509Y-35814D01*
G01X3140220Y-45225D01*
G01X3123959Y-57822D01*
G01X3110277Y-73180D01*
G01X3099633Y-90781D01*
G01X3092387Y-110031D01*
G01X3088783Y-130282D01*
G01X3088942Y-150850D01*
G01X3092860Y-171042D01*
G01X3100404Y-190177D01*
G01X3111320Y-207611D01*
G01X3125239Y-222754D01*
G01X3141693Y-235097D01*
G01X3160127Y-244224D01*
G01X3179918Y-249825D01*
G01X3200400Y-251714D01*
G01X3220882Y-249825D01*
G01X3240673Y-244224D01*
G01X3259107Y-235097D01*
G01X3275561Y-222754D01*
G01X3289480Y-207611D01*
G01X3300396Y-190177D01*
G01X3307940Y-171042D01*
G01X3311858Y-150850D01*
G01X3312017Y-130282D01*
G01X3308413Y-110031D01*
G01X3301167Y-90781D01*
G01X3290523Y-73180D01*
G01X3276841Y-57822D01*
G01X3260580Y-45225D01*
G01X3242291Y-35814D01*
G01X3412509Y-35814D01*
G01X3394220Y-45225D01*
G01X3377959Y-57822D01*
G01X3364277Y-73180D01*
G01X3353633Y-90781D01*
G01X3346387Y-110031D01*
G01X3342783Y-130282D01*
G01X3342942Y-150850D01*
G01X3346860Y-171042D01*
G01X3354404Y-190177D01*
G01X3365320Y-207611D01*
G01X3379239Y-222754D01*
G01X3395693Y-235097D01*
G01X3414127Y-244224D01*
G01X3433918Y-249825D01*
G01X3454400Y-251714D01*
G01X3474882Y-249825D01*
G01X3494673Y-244224D01*
G01X3513107Y-235097D01*
G01X3529561Y-222754D01*
G01X3543480Y-207611D01*
G01X3554396Y-190177D01*
G01X3561940Y-171042D01*
G01X3565858Y-150850D01*
G01X3566017Y-130282D01*
G01X3562413Y-110031D01*
G01X3555167Y-90781D01*
G01X3544523Y-73180D01*
G01X3530841Y-57822D01*
G01X3514580Y-45225D01*
G01X3496291Y-35814D01*
G01X3666509Y-35814D01*
G01X3648220Y-45225D01*
G01X3631959Y-57822D01*
G01X3618277Y-73180D01*
G01X3607633Y-90781D01*
G01X3600387Y-110031D01*
G01X3596783Y-130282D01*
G01X3596942Y-150850D01*
G01X3600860Y-171042D01*
G01X3608404Y-190177D01*
G01X3619320Y-207611D01*
G01X3633239Y-222754D01*
G01X3649693Y-235097D01*
G01X3668127Y-244224D01*
G01X3687918Y-249825D01*
G01X3708400Y-251714D01*
G01X3728882Y-249825D01*
G01X3748673Y-244224D01*
G01X3767107Y-235097D01*
G01X3783561Y-222754D01*
G01X3797480Y-207611D01*
G01X3808396Y-190177D01*
G01X3815940Y-171042D01*
G01X3819858Y-150850D01*
G01X3820017Y-130282D01*
G01X3816413Y-110031D01*
G01X3809167Y-90781D01*
G01X3798523Y-73180D01*
G01X3784841Y-57822D01*
G01X3768580Y-45225D01*
G01X3750291Y-35814D01*
G01X3920509Y-35814D01*
G01X3902220Y-45225D01*
G01X3885959Y-57822D01*
G01X3872277Y-73180D01*
G01X3861633Y-90781D01*
G01X3854387Y-110031D01*
G01X3850783Y-130282D01*
G01X3850942Y-150850D01*
G01X3854860Y-171042D01*
G01X3862404Y-190177D01*
G01X3873320Y-207611D01*
G01X3887239Y-222754D01*
G01X3903693Y-235097D01*
G01X3922127Y-244224D01*
G01X3941918Y-249825D01*
G01X3962400Y-251714D01*
G01X3982882Y-249825D01*
G01X4002673Y-244224D01*
G01X4021107Y-235097D01*
G01X4037561Y-222754D01*
G01X4051480Y-207611D01*
G01X4062396Y-190177D01*
G01X4069940Y-171042D01*
G01X4073858Y-150850D01*
G01X4074017Y-130282D01*
G01X4070413Y-110031D01*
G01X4063167Y-90781D01*
G01X4052523Y-73180D01*
G01X4038841Y-57822D01*
G01X4022580Y-45225D01*
G01X4004291Y-35814D01*
G01X4174509Y-35814D01*
G01X4156220Y-45225D01*
G01X4139959Y-57822D01*
G01X4126277Y-73180D01*
G01X4115633Y-90781D01*
G01X4108387Y-110031D01*
G01X4104783Y-130282D01*
G01X4104942Y-150850D01*
G01X4108860Y-171042D01*
G01X4116404Y-190177D01*
G01X4127320Y-207611D01*
G01X4141239Y-222754D01*
G01X4157693Y-235097D01*
G01X4176127Y-244224D01*
G01X4195918Y-249825D01*
G01X4216400Y-251714D01*
G01X4236882Y-249825D01*
G01X4256673Y-244224D01*
G01X4275107Y-235097D01*
G01X4291561Y-222754D01*
G01X4305480Y-207611D01*
G01X4316396Y-190177D01*
G01X4323940Y-171042D01*
G01X4327858Y-150850D01*
G01X4328017Y-130282D01*
G01X4324413Y-110031D01*
G01X4317167Y-90781D01*
G01X4306523Y-73180D01*
G01X4292841Y-57822D01*
G01X4276580Y-45225D01*
G01X4258291Y-35814D01*
G01X4522570Y-35814D01*
G01X4496756Y-50852D01*
G01X4473184Y-69204D01*
G01X4452277Y-90543D01*
G01X4434409Y-114485D01*
G01X4419901Y-140600D01*
G01X4409014Y-168419D01*
G01X4401943Y-197444D01*
G01X4398815Y-227154D01*
G01X4399685Y-257016D01*
G01X4404539Y-286493D01*
G01X4413289Y-315057D01*
G01X4425779Y-342195D01*
G01X4441783Y-367420D01*
G01X4461016Y-390280D01*
G01X4483131Y-410365D01*
G01X4507732Y-427313D01*
G01X4534377Y-440821D01*
G01X4562590Y-450647D01*
G01X4591862Y-456614D01*
G01X4621669Y-458615D01*
G01X4651476Y-456614D01*
G01X4680748Y-450647D01*
G01X4708960Y-440821D01*
G01X4735606Y-427313D01*
G01X4760207Y-410365D01*
G01X4782322Y-390280D01*
G01X4801554Y-367420D01*
G01X4817559Y-342195D01*
G01X4830048Y-315057D01*
G01X4838798Y-286493D01*
G01X4843652Y-257016D01*
G01X4844523Y-227154D01*
G01X4841394Y-197444D01*
G01X4834323Y-168419D01*
G01X4823436Y-140600D01*
G01X4808928Y-114485D01*
G01X4791061Y-90543D01*
G01X4770153Y-69204D01*
G01X4746581Y-50852D01*
G01X4720768Y-35814D01*
G01X4800000Y-35814D01*
G01X4825684Y-37835D01*
G01X4850736Y-43850D01*
G01X4874539Y-53709D01*
G01X4896506Y-67171D01*
G01X4916097Y-83903D01*
G01X4932829Y-103494D01*
G01X4946291Y-125461D01*
G01X4956150Y-149264D01*
G01X4962165Y-174316D01*
G01X4964186Y-200000D01*
G01X4964186Y-5666864D01*
G01X4953061Y-5638940D01*
G01X4938475Y-5612658D01*
G01X4920663Y-5588445D01*
G01X4899917Y-5566694D01*
G01X4876572Y-5547759D01*
G01X4851008Y-5531948D01*
G01X4823640Y-5519517D01*
G01X4794914Y-5510669D01*
G01X4765295Y-5505546D01*
G01X4735265Y-5504233D01*
G01X4705312Y-5506751D01*
G01X4675923Y-5513058D01*
G01X4647575Y-5523053D01*
G01X4620729Y-5536573D01*
G01X4595820Y-5553398D01*
G01X4573254Y-5573254D01*
G01X4553397Y-5595820D01*
G01X4536573Y-5620729D01*
G01X4523053Y-5647575D01*
G01X4513058Y-5675923D01*
G01X4506751Y-5705312D01*
G01X4504233Y-5735265D01*
G01X4505546Y-5765295D01*
G01X4510669Y-5794914D01*
G01X4519517Y-5823640D01*
G01X4531948Y-5851008D01*
G01X4547759Y-5876572D01*
G01X4566694Y-5899917D01*
G01X4588445Y-5920663D01*
G01X4612658Y-5938475D01*
G01X4638940Y-5953061D01*
G01X4666863Y-5964186D01*
G01X333136Y-5964186D01*
G01X361060Y-5953061D01*
G01X387342Y-5938475D01*
G01X411555Y-5920663D01*
G01X433306Y-5899917D01*
G01X452241Y-5876572D01*
G01X468052Y-5851008D01*
G01X480483Y-5823640D01*
G01X489331Y-5794914D01*
G01X494454Y-5765295D01*
G01X495767Y-5735265D01*
G01X493249Y-5705312D01*
G01X486942Y-5675923D01*
G01X476947Y-5647575D01*
G01X463427Y-5620729D01*
G01X446602Y-5595820D01*
G01X426746Y-5573254D01*
G37*
G54D10*
G01X426746Y-5573254D02*
G03X35814Y-5666864I-166746J-166746D01*
G01X35814Y-291417D01*
G03X402405Y-414546I218676J43773D01*
G03X324227Y-35814I-147915J166902D01*
G01X618509Y-35814D01*
G03X660400Y-251714I41891J-103886D01*
G03X702291Y-35814I0J112014D01*
G01X872509Y-35814D01*
G03X914400Y-251714I41891J-103886D01*
G03X956291Y-35814I0J112014D01*
G01X1126509Y-35814D01*
G03X1168400Y-251714I41891J-103886D01*
G03X1210291Y-35814I0J112014D01*
G01X1380509Y-35814D01*
G03X1422400Y-251714I41891J-103886D01*
G03X1464291Y-35814I0J112014D01*
G01X1634509Y-35814D01*
G03X1676400Y-251714I41891J-103886D01*
G03X1718291Y-35814I0J112014D01*
G01X1888509Y-35814D01*
G03X1930400Y-251714I41891J-103886D01*
G03X1972291Y-35814I0J112014D01*
G01X2142509Y-35814D01*
G03X2184400Y-251714I41891J-103886D01*
G03X2226291Y-35814I0J112014D01*
G01X2396509Y-35814D01*
G03X2438400Y-251714I41891J-103886D01*
G03X2480291Y-35814I0J112014D01*
G01X2650509Y-35814D01*
G03X2692400Y-251714I41891J-103886D01*
G03X2734291Y-35814I0J112014D01*
G01X2904509Y-35814D01*
G03X2946400Y-251714I41891J-103886D01*
G03X2988291Y-35814I0J112014D01*
G01X3158509Y-35814D01*
G03X3200400Y-251714I41891J-103886D01*
G03X3242291Y-35814I0J112014D01*
G01X3412509Y-35814D01*
G03X3454400Y-251714I41891J-103886D01*
G03X3496291Y-35814I0J112014D01*
G01X3666509Y-35814D01*
G03X3708400Y-251714I41891J-103886D01*
G03X3750291Y-35814I0J112014D01*
G01X3920509Y-35814D01*
G03X3962400Y-251714I41891J-103886D01*
G03X4004291Y-35814I0J112014D01*
G01X4174509Y-35814D01*
G03X4216400Y-251714I41891J-103886D01*
G03X4258291Y-35814I0J112014D01*
G01X4522570Y-35814D01*
G03X4621669Y-458615I99099J-199786D01*
G03X4720768Y-35814I0J223014D01*
G01X4800000Y-35814D01*
G02X4964186Y-200000I0J-164186D01*
G01X4964186Y-5666864D01*
G03X4573254Y-5573254I-224186J-73136D01*
G03X4666863Y-5964186I166746J-166746D01*
G01X333136Y-5964186D01*
G03X426746Y-5573254I-73136J224186D01*
G01X732663Y-3117977D02*
G03X768477Y-3082163I0J35814D01*
G01X768477Y-2912237D01*
G03X732663Y-2876423I-35814J0D01*
G01X562737Y-2876423D01*
G03X526923Y-2912237I0J-35814D01*
G01X526923Y-3082163D01*
G03X562737Y-3117977I35814J0D01*
G01X732663Y-3117977D01*
G01X1289893Y-2981923D02*
G03X1495102Y-3082602I119807J-15277D01*
G03X1394423Y-2877393I-85402J85402D01*
G01X1207965Y-2690935D01*
G03X1155700Y-2669286I-52265J-52265D01*
G01X881516Y-2669286D01*
G01X748315Y-2536085D01*
G03X772668Y-2502154I-11461J33931D01*
G01X772668Y-2349754D01*
G03X736854Y-2313940I-35814J0D01*
G01X584454Y-2313940D01*
G03X548640Y-2349754I0J-35814D01*
G01X548640Y-2502154D01*
G03X584454Y-2537968I35814J0D01*
G01X586740Y-2537968D01*
G01X586740Y-2552954D01*
G03X608389Y-2605219I73914J0D01*
G01X798635Y-2795465D01*
G03X850900Y-2817114I52265J52265D01*
G01X1125084Y-2817114D01*
G01X1189104Y-2881134D01*
G03X1070298Y-3082602I-33404J-116066D01*
G03X1271766Y-2963796I85402J85402D01*
G01X1289893Y-2981923D01*
G01X780923Y-2997200D02*
G03X1022477Y-2997200I120777J0D01*
G03X780923Y-2997200I-120777J0D01*
G01X802386Y-2425700D02*
G03X1026414Y-2425700I112014J0D01*
G03X802386Y-2425700I-112014J0D01*
G01X1056386Y-2425700D02*
G03X1280414Y-2425700I112014J0D01*
G03X1056386Y-2425700I-112014J0D01*
G01X1310386Y-2425700D02*
G03X1534414Y-2425700I112014J0D01*
G03X1310386Y-2425700I-112014J0D01*
G01X1564386Y-2425700D02*
G03X1788414Y-2425700I112014J0D01*
G03X1564386Y-2425700I-112014J0D01*
G01X1818386Y-2425700D02*
G03X2042414Y-2425700I112014J0D01*
G03X1818386Y-2425700I-112014J0D01*
G01X2072386Y-2425700D02*
G03X2296414Y-2425700I112014J0D01*
G03X2072386Y-2425700I-112014J0D01*
G01X2326386Y-2425700D02*
G03X2550414Y-2425700I112014J0D01*
G03X2326386Y-2425700I-112014J0D01*
G01X2580386Y-2425700D02*
G03X2804414Y-2425700I112014J0D01*
G03X2580386Y-2425700I-112014J0D01*
G01X3634486Y-3217834D02*
G03X3708400Y-3414014I73914J-84166D01*
G03X3782314Y-3217834I0J112014D01*
G01X3782314Y-3009900D01*
G03X3760665Y-2957635I-73914J0D01*
G01X3582865Y-2779835D01*
G03X3530600Y-2758186I-52265J-52265D01*
G01X3104016Y-2758186D01*
G01X3020314Y-2674484D01*
G01X3020314Y-2509866D01*
G03X2946400Y-2313686I-73914J84166D01*
G03X2872486Y-2509866I0J-112014D01*
G01X2872486Y-2705100D01*
G03X2894135Y-2757365I73914J0D01*
G01X3021135Y-2884365D01*
G03X3073400Y-2906014I52265J52265D01*
G01X3499984Y-2906014D01*
G01X3634486Y-3040516D01*
G01X3634486Y-3217834D01*
G01X3088386Y-2425700D02*
G03X3312414Y-2425700I112014J0D01*
G03X3088386Y-2425700I-112014J0D01*
G01X3342386Y-2425700D02*
G03X3566414Y-2425700I112014J0D01*
G03X3342386Y-2425700I-112014J0D01*
G01X3596386Y-2425700D02*
G03X3820414Y-2425700I112014J0D01*
G03X3596386Y-2425700I-112014J0D01*
G01X3962400Y-3414014D02*
G03X4023614Y-3208192I0J112014D01*
G01X4023614Y-2519508D01*
G03X3962400Y-2313686I-61214J93808D01*
G03X3901186Y-2519508I0J-112014D01*
G01X3901186Y-3208192D01*
G03X3962400Y-3414014I61214J-93808D01*
G01X4328414Y-3302000D02*
G03X4104386Y-3302000I-112014J0D01*
G03X4328414Y-3302000I112014J0D01*
G01X4104386Y-2425700D02*
G03X4328414Y-2425700I112014J0D01*
G03X4104386Y-2425700I-112014J0D01*
G04 Copper End*

G04 Pad Start*
G54D11*
G01X660654Y-2425954D03*
G54D12*
G01X914400Y-2425700D03*
G01X1168400Y-2425700D03*
G01X1422400Y-2425700D03*
G01X1676400Y-2425700D03*
G01X1930400Y-2425700D03*
G01X2184400Y-2425700D03*
G01X2438400Y-2425700D03*
G01X2692400Y-2425700D03*
G01X2946400Y-2425700D03*
G01X3200400Y-2425700D03*
G01X3454400Y-2425700D03*
G01X3708400Y-2425700D03*
G01X3962400Y-2425700D03*
G01X4216400Y-2425700D03*
G01X4216400Y-139700D03*
G01X3962400Y-139700D03*
G01X3708400Y-139700D03*
G01X3454400Y-139700D03*
G01X3200400Y-139700D03*
G01X2946400Y-139700D03*
G01X2692400Y-139700D03*
G01X2438400Y-139700D03*
G01X2184400Y-139700D03*
G01X1930400Y-139700D03*
G01X1676400Y-139700D03*
G01X1422400Y-139700D03*
G01X1168400Y-139700D03*
G01X914400Y-139700D03*
G01X660400Y-139700D03*
G54D13*
G01X647700Y-2997200D03*
G54D14*
G01X901700Y-2997200D03*
G01X1155700Y-2997200D03*
G01X1409700Y-2997200D03*
G54D12*
G01X4216400Y-3302000D03*
G01X3962400Y-3302000D03*
G01X3708400Y-3302000D03*
G04 Pad End*

G04 Via Start*
G54D15*
G01X254490Y-247644D03*
G54D17*
G01X260000Y-5740000D03*
G54D15*
G01X4621669Y-235600D03*
G54D17*
G01X4740000Y-5740000D03*
G54D18*
G01X1352296Y-4097401D03*
G01X3114802Y-4102100D03*
G01X1939798Y-5232400D03*
G01X3702304Y-5143500D03*
G04 Via End*

G04 Track Start*
G54D19*
G01X3962400Y-2425700D02*
G01X3962400Y-3302000D01*
G54D20*
G01X3708400Y-3302000D02*
G01X3708400Y-3009900D01*
G01X3530600Y-2832100D01*
G01X3073400Y-2832100D01*
G01X2946400Y-2705100D01*
G01X2946400Y-2425700D01*
G01X1409700Y-2997200D02*
G01X1155700Y-2743200D01*
G01X850900Y-2743200D01*
G01X660654Y-2552954D01*
G01X660654Y-2425954D01*
G04 Track End*

M02*

