G04 Layer: DrillDrawingLayer*
G04 EasyEDA Pro v3.2.166, 2026-08-01 17:13:05*
G04 Gerber Generator version 0.3*
G04 Scale: 100 percent, Rotated: No, Reflected: No*
G04 Dimensions in millimeters*
G04 Leading zeros omitted, absolute positions, 4 integers and 5 decimals*
G04 Generated by one-click*
G04 Object Configs: Pad,Via,Track,Text,Image,Dimension,BoardOutline,BoardCutout,CopperFilled,SolidRegion,FPCStiffener,Line,PlaneZone,ComponentProperty,ComponentSilkscreen,TearDrop*
G04 Layer Configs: 1,2,3,4,5,6,7,8,9,10,11,13,14,56*
G04 Copper Areas: 0*
%FSLAX45Y45*%
%MOMM*%
%AMIconRect*4,1,4,0.28,-0.28,-0.28,-0.28,-0.28,0.28,0.28,0.28,0.28,-0.28,0*4,0,4,0.233333,-0.233333,0.233333,0.233333,-0.233333,0.233333,-0.233333,-0.233333,0.233333,-0.233333,0*%
%AMIconTriangle*4,1,3,-0.339593,0.240473,0.339593,0.240473,0,-0.37884,-0.339593,0.240473,0*4,0,3,-0.265673,0.19404,0,-0.27342,0.266233,0.19404,-0.265673,0.19404,0*%
%AMIconStar6*4,1,12,0.12068,0.20888,0.298527,0.172713,0.241313,0,0.298527,-0.17206,0.12068,-0.208227,0,-0.344073,-0.120073,-0.208227,-0.298573,-0.17206,-0.240707,0,-0.298573,0.17206,-0.120073,0.20888,0,0.344073,0.12068,0.20888,0*4,0,12,-0.000467,0.273467,-0.090067,0.171733,-0.237533,0.136733,-0.193667,-0.007467,-0.237533,-0.1372,-0.090067,-0.171733,-0.000467,-0.273933,0.090067,-0.171733,0.237533,-0.1372,0.194133,0.007,0.237533,0.1372,0.090067,0.171267,-0.000467,0.273467,0*%
%AMIconStar4*4,1,8,-0.311733,0.311733,0,0.202533,0.311733,0.311733,0.202533,0,0.311733,-0.311733,0,-0.202533,-0.304407,-0.311733,-0.202533,0,-0.311733,0.311733,0*4,0,8,0.233333,-0.233333,0.1512,0,0.233333,0.233333,0,0.1512,-0.233333,0.233333,-0.1512,0,-0.233333,-0.233333,0,-0.1512,0.233333,-0.233333,0*%
%AMIconPlus*4,1,12,0.1736,-0.28,-0.1736,-0.28,-0.1736,-0.1736,-0.28,-0.1736,-0.28,0.1736,-0.1736,0.1736,-0.1736,0.28,0.1736,0.28,0.1736,0.1736,0.28,0.1736,0.28,-0.1736,0.1736,-0.1736,0.1736,-0.28,0*4,0,12,0.126933,-0.233333,0.126933,-0.126933,0.233333,-0.126933,0.233333,0.126933,0.126933,0.126933,0.126933,0.233333,-0.126933,0.233333,-0.126933,0.126933,-0.233333,0.126933,-0.233333,-0.126933,-0.126933,-0.126933,-0.126933,-0.233333,0.126933,-0.233333,0*%
%ADD10IconRect*%
%ADD11C,0.616X0.522667*%
%ADD12IconTriangle*%
%ADD13IconStar6*%
%ADD14IconStar4*%
%ADD15IconPlus*%
%ADD16C,0.2032*%
%ADD17C,0.254*%
G75*


G04 Drill Drawing Start*
G54D10*
G01X254490Y-247644D03*
G01X4621669Y-235600D03*
G54D11*
G01X260000Y-5740000D03*
G01X4740000Y-5740000D03*
G54D12*
G01X3708400Y-3302000D03*
G01X3962400Y-3302000D03*
G01X4216400Y-3302000D03*
G54D13*
G01X1352296Y-4097401D03*
G01X1939798Y-5232400D03*
G01X3114802Y-4102100D03*
G01X3702304Y-5143500D03*
G54D14*
G01X647700Y-2997200D03*
G01X901700Y-2997200D03*
G01X1155700Y-2997200D03*
G01X1409700Y-2997200D03*
G54D15*
G01X660400Y-139700D03*
G01X660654Y-2425954D03*
G01X914400Y-2425700D03*
G01X914400Y-139700D03*
G01X1168400Y-2425700D03*
G01X1168400Y-139700D03*
G01X1422400Y-2425700D03*
G01X1422400Y-139700D03*
G01X1676400Y-2425700D03*
G01X1676400Y-139700D03*
G01X1930400Y-2425700D03*
G01X1930400Y-139700D03*
G01X2184400Y-2425700D03*
G01X2184400Y-139700D03*
G01X2438400Y-2425700D03*
G01X2438400Y-139700D03*
G01X2692400Y-2425700D03*
G01X2692400Y-139700D03*
G01X2946400Y-2425700D03*
G01X2946400Y-139700D03*
G01X3200400Y-2425700D03*
G01X3200400Y-139700D03*
G01X3454400Y-2425700D03*
G01X3454400Y-139700D03*
G01X3708400Y-2425700D03*
G01X3708400Y-139700D03*
G01X3962400Y-2425700D03*
G01X3962400Y-139700D03*
G01X4216400Y-2425700D03*
G01X4216400Y-139700D03*
G04 Drill Drawing End*

G04 Text Start*
G54D16*
G01X7300446Y-221706D02*
G01X7300446Y-341848D01*
G01X7300446Y-221706D02*
G01X7346166Y-341848D01*
G01X7391886Y-221706D02*
G01X7346166Y-341848D01*
G01X7391886Y-221706D02*
G01X7391886Y-341848D01*
G01X7508218Y-261838D02*
G01X7508218Y-341848D01*
G01X7508218Y-278856D02*
G01X7496788Y-267426D01*
G01X7485358Y-261838D01*
G01X7468340Y-261838D01*
G01X7456910Y-267426D01*
G01X7445480Y-278856D01*
G01X7439638Y-296128D01*
G01X7439638Y-307558D01*
G01X7445480Y-324576D01*
G01X7456910Y-336006D01*
G01X7468340Y-341848D01*
G01X7485358Y-341848D01*
G01X7496788Y-336006D01*
G01X7508218Y-324576D01*
G01X7555970Y-261838D02*
G01X7555970Y-341848D01*
G01X7555970Y-296128D02*
G01X7561812Y-278856D01*
G01X7573242Y-267426D01*
G01X7584672Y-261838D01*
G01X7601690Y-261838D01*
G01X7649442Y-221706D02*
G01X7649442Y-341848D01*
G01X7706592Y-261838D02*
G01X7649442Y-318988D01*
G01X7672302Y-296128D02*
G01X7712434Y-341848D01*
G01X8837726Y-250408D02*
G01X8831884Y-238978D01*
G01X8820454Y-227548D01*
G01X8809024Y-221706D01*
G01X8786164Y-221706D01*
G01X8774734Y-227548D01*
G01X8763304Y-238978D01*
G01X8757716Y-250408D01*
G01X8751874Y-267426D01*
G01X8751874Y-296128D01*
G01X8757716Y-313146D01*
G01X8763304Y-324576D01*
G01X8774734Y-336006D01*
G01X8786164Y-341848D01*
G01X8809024Y-341848D01*
G01X8820454Y-336006D01*
G01X8831884Y-324576D01*
G01X8837726Y-313146D01*
G01X8914180Y-261838D02*
G01X8902750Y-267426D01*
G01X8891320Y-278856D01*
G01X8885478Y-296128D01*
G01X8885478Y-307558D01*
G01X8891320Y-324576D01*
G01X8902750Y-336006D01*
G01X8914180Y-341848D01*
G01X8931198Y-341848D01*
G01X8942628Y-336006D01*
G01X8954058Y-324576D01*
G01X8959900Y-307558D01*
G01X8959900Y-296128D01*
G01X8954058Y-278856D01*
G01X8942628Y-267426D01*
G01X8931198Y-261838D01*
G01X8914180Y-261838D01*
G01X9007652Y-261838D02*
G01X9007652Y-318988D01*
G01X9013494Y-336006D01*
G01X9024924Y-341848D01*
G01X9041942Y-341848D01*
G01X9053372Y-336006D01*
G01X9070644Y-318988D01*
G01X9070644Y-261838D02*
G01X9070644Y-341848D01*
G01X9118396Y-261838D02*
G01X9118396Y-341848D01*
G01X9118396Y-284698D02*
G01X9135668Y-267426D01*
G01X9147098Y-261838D01*
G01X9164116Y-261838D01*
G01X9175546Y-267426D01*
G01X9181388Y-284698D01*
G01X9181388Y-341848D01*
G01X9246412Y-221706D02*
G01X9246412Y-318988D01*
G01X9252000Y-336006D01*
G01X9263430Y-341848D01*
G01X9274860Y-341848D01*
G01X9229140Y-261838D02*
G01X9269272Y-261838D01*
G01X10246047Y-238978D02*
G01X10234617Y-227548D01*
G01X10217599Y-221706D01*
G01X10194739Y-221706D01*
G01X10177467Y-227548D01*
G01X10166037Y-238978D01*
G01X10166037Y-250408D01*
G01X10171879Y-261838D01*
G01X10177467Y-267426D01*
G01X10188897Y-273268D01*
G01X10223187Y-284698D01*
G01X10234617Y-290286D01*
G01X10240459Y-296128D01*
G01X10246047Y-307558D01*
G01X10246047Y-324576D01*
G01X10234617Y-336006D01*
G01X10217599Y-341848D01*
G01X10194739Y-341848D01*
G01X10177467Y-336006D01*
G01X10166037Y-324576D01*
G01X10293799Y-221706D02*
G01X10299641Y-227548D01*
G01X10305229Y-221706D01*
G01X10299641Y-216118D01*
G01X10293799Y-221706D01*
G01X10299641Y-261838D02*
G01X10299641Y-341848D01*
G01X10415973Y-261838D02*
G01X10352981Y-341848D01*
G01X10352981Y-261838D02*
G01X10415973Y-261838D01*
G01X10352981Y-341848D02*
G01X10415973Y-341848D01*
G01X10463725Y-296128D02*
G01X10532305Y-296128D01*
G01X10532305Y-284698D01*
G01X10526717Y-273268D01*
G01X10520875Y-267426D01*
G01X10509445Y-261838D01*
G01X10492427Y-261838D01*
G01X10480997Y-267426D01*
G01X10469567Y-278856D01*
G01X10463725Y-296128D01*
G01X10463725Y-307558D01*
G01X10469567Y-324576D01*
G01X10480997Y-336006D01*
G01X10492427Y-341848D01*
G01X10509445Y-341848D01*
G01X10520875Y-336006D01*
G01X10532305Y-324576D01*
G01X13946210Y-221706D02*
G01X13946210Y-341848D01*
G01X13946210Y-221706D02*
G01X13997772Y-221706D01*
G01X14014790Y-227548D01*
G01X14020632Y-233136D01*
G01X14026220Y-244566D01*
G01X14026220Y-261838D01*
G01X14020632Y-273268D01*
G01X14014790Y-278856D01*
G01X13997772Y-284698D01*
G01X13946210Y-284698D01*
G01X14073972Y-221706D02*
G01X14073972Y-341848D01*
G01X14190304Y-261838D02*
G01X14190304Y-341848D01*
G01X14190304Y-278856D02*
G01X14178874Y-267426D01*
G01X14167444Y-261838D01*
G01X14150426Y-261838D01*
G01X14138996Y-267426D01*
G01X14127566Y-278856D01*
G01X14121724Y-296128D01*
G01X14121724Y-307558D01*
G01X14127566Y-324576D01*
G01X14138996Y-336006D01*
G01X14150426Y-341848D01*
G01X14167444Y-341848D01*
G01X14178874Y-336006D01*
G01X14190304Y-324576D01*
G01X14255328Y-221706D02*
G01X14255328Y-318988D01*
G01X14260916Y-336006D01*
G01X14272346Y-341848D01*
G01X14283776Y-341848D01*
G01X14238056Y-261838D02*
G01X14278188Y-261838D01*
G01X14331528Y-296128D02*
G01X14400108Y-296128D01*
G01X14400108Y-284698D01*
G01X14394520Y-273268D01*
G01X14388678Y-267426D01*
G01X14377248Y-261838D01*
G01X14360230Y-261838D01*
G01X14348800Y-267426D01*
G01X14337370Y-278856D01*
G01X14331528Y-296128D01*
G01X14331528Y-307558D01*
G01X14337370Y-324576D01*
G01X14348800Y-336006D01*
G01X14360230Y-341848D01*
G01X14377248Y-341848D01*
G01X14388678Y-336006D01*
G01X14400108Y-324576D01*
G01X14516440Y-221706D02*
G01X14516440Y-341848D01*
G01X14516440Y-278856D02*
G01X14505010Y-267426D01*
G01X14493580Y-261838D01*
G01X14476562Y-261838D01*
G01X14465132Y-267426D01*
G01X14453702Y-278856D01*
G01X14447860Y-296128D01*
G01X14447860Y-307558D01*
G01X14453702Y-324576D01*
G01X14465132Y-336006D01*
G01X14476562Y-341848D01*
G01X14493580Y-341848D01*
G01X14505010Y-336006D01*
G01X14516440Y-324576D01*
G01X15487628Y-238978D02*
G01X15476198Y-227548D01*
G01X15459180Y-221706D01*
G01X15436320Y-221706D01*
G01X15419048Y-227548D01*
G01X15407618Y-238978D01*
G01X15407618Y-250408D01*
G01X15413460Y-261838D01*
G01X15419048Y-267426D01*
G01X15430478Y-273268D01*
G01X15464768Y-284698D01*
G01X15476198Y-290286D01*
G01X15482040Y-296128D01*
G01X15487628Y-307558D01*
G01X15487628Y-324576D01*
G01X15476198Y-336006D01*
G01X15459180Y-341848D01*
G01X15436320Y-341848D01*
G01X15419048Y-336006D01*
G01X15407618Y-324576D01*
G01X15535380Y-221706D02*
G01X15535380Y-341848D01*
G01X15535380Y-284698D02*
G01X15552652Y-267426D01*
G01X15564082Y-261838D01*
G01X15581100Y-261838D01*
G01X15592530Y-267426D01*
G01X15598372Y-284698D01*
G01X15598372Y-341848D01*
G01X15714704Y-261838D02*
G01X15714704Y-341848D01*
G01X15714704Y-278856D02*
G01X15703274Y-267426D01*
G01X15691844Y-261838D01*
G01X15674826Y-261838D01*
G01X15663396Y-267426D01*
G01X15651966Y-278856D01*
G01X15646124Y-296128D01*
G01X15646124Y-307558D01*
G01X15651966Y-324576D01*
G01X15663396Y-336006D01*
G01X15674826Y-341848D01*
G01X15691844Y-341848D01*
G01X15703274Y-336006D01*
G01X15714704Y-324576D01*
G01X15762456Y-261838D02*
G01X15762456Y-381726D01*
G01X15762456Y-278856D02*
G01X15773886Y-267426D01*
G01X15785316Y-261838D01*
G01X15802588Y-261838D01*
G01X15814018Y-267426D01*
G01X15825448Y-278856D01*
G01X15831036Y-296128D01*
G01X15831036Y-307558D01*
G01X15825448Y-324576D01*
G01X15814018Y-336006D01*
G01X15802588Y-341848D01*
G01X15785316Y-341848D01*
G01X15773886Y-336006D01*
G01X15762456Y-324576D01*
G01X15878788Y-296128D02*
G01X15947368Y-296128D01*
G01X15947368Y-284698D01*
G01X15941780Y-273268D01*
G01X15935938Y-267426D01*
G01X15924508Y-261838D01*
G01X15907490Y-261838D01*
G01X15896060Y-267426D01*
G01X15884630Y-278856D01*
G01X15878788Y-296128D01*
G01X15878788Y-307558D01*
G01X15884630Y-324576D01*
G01X15896060Y-336006D01*
G01X15907490Y-341848D01*
G01X15924508Y-341848D01*
G01X15935938Y-336006D01*
G01X15947368Y-324576D01*
G01X16838799Y-221706D02*
G01X16884519Y-341848D01*
G01X16930239Y-221706D02*
G01X16884519Y-341848D01*
G01X16977991Y-221706D02*
G01X16983833Y-227548D01*
G01X16989421Y-221706D01*
G01X16983833Y-216118D01*
G01X16977991Y-221706D01*
G01X16983833Y-261838D02*
G01X16983833Y-341848D01*
G01X17105753Y-261838D02*
G01X17105753Y-341848D01*
G01X17105753Y-278856D02*
G01X17094323Y-267426D01*
G01X17082893Y-261838D01*
G01X17065875Y-261838D01*
G01X17054445Y-267426D01*
G01X17043015Y-278856D01*
G01X17037173Y-296128D01*
G01X17037173Y-307558D01*
G01X17043015Y-324576D01*
G01X17054445Y-336006D01*
G01X17065875Y-341848D01*
G01X17082893Y-341848D01*
G01X17094323Y-336006D01*
G01X17105753Y-324576D01*
G01X17256375Y-198846D02*
G01X17153505Y-381726D01*
G01X17304127Y-221706D02*
G01X17304127Y-341848D01*
G01X17304127Y-221706D02*
G01X17355689Y-221706D01*
G01X17372707Y-227548D01*
G01X17378549Y-233136D01*
G01X17384137Y-244566D01*
G01X17384137Y-261838D01*
G01X17378549Y-273268D01*
G01X17372707Y-278856D01*
G01X17355689Y-284698D01*
G01X17304127Y-284698D01*
G01X17500469Y-261838D02*
G01X17500469Y-341848D01*
G01X17500469Y-278856D02*
G01X17489039Y-267426D01*
G01X17477609Y-261838D01*
G01X17460591Y-261838D01*
G01X17449161Y-267426D01*
G01X17437731Y-278856D01*
G01X17431889Y-296128D01*
G01X17431889Y-307558D01*
G01X17437731Y-324576D01*
G01X17449161Y-336006D01*
G01X17460591Y-341848D01*
G01X17477609Y-341848D01*
G01X17489039Y-336006D01*
G01X17500469Y-324576D01*
G01X17616801Y-221706D02*
G01X17616801Y-341848D01*
G01X17616801Y-278856D02*
G01X17605371Y-267426D01*
G01X17593941Y-261838D01*
G01X17576923Y-261838D01*
G01X17565493Y-267426D01*
G01X17554063Y-278856D01*
G01X17548221Y-296128D01*
G01X17548221Y-307558D01*
G01X17554063Y-324576D01*
G01X17565493Y-336006D01*
G01X17576923Y-341848D01*
G01X17593941Y-341848D01*
G01X17605371Y-336006D01*
G01X17616801Y-324576D01*
G01X18507978Y-221706D02*
G01X18507978Y-341848D01*
G01X18507978Y-221706D02*
G01X18559540Y-221706D01*
G01X18576558Y-227548D01*
G01X18582400Y-233136D01*
G01X18587988Y-244566D01*
G01X18587988Y-261838D01*
G01X18582400Y-273268D01*
G01X18576558Y-278856D01*
G01X18559540Y-284698D01*
G01X18507978Y-284698D01*
G01X18704320Y-261838D02*
G01X18704320Y-341848D01*
G01X18704320Y-278856D02*
G01X18692890Y-267426D01*
G01X18681460Y-261838D01*
G01X18664442Y-261838D01*
G01X18653012Y-267426D01*
G01X18641582Y-278856D01*
G01X18635740Y-296128D01*
G01X18635740Y-307558D01*
G01X18641582Y-324576D01*
G01X18653012Y-336006D01*
G01X18664442Y-341848D01*
G01X18681460Y-341848D01*
G01X18692890Y-336006D01*
G01X18704320Y-324576D01*
G01X18820652Y-221706D02*
G01X18820652Y-341848D01*
G01X18820652Y-278856D02*
G01X18809222Y-267426D01*
G01X18797792Y-261838D01*
G01X18780774Y-261838D01*
G01X18769344Y-267426D01*
G01X18757914Y-278856D01*
G01X18752072Y-296128D01*
G01X18752072Y-307558D01*
G01X18757914Y-324576D01*
G01X18769344Y-336006D01*
G01X18780774Y-341848D01*
G01X18797792Y-341848D01*
G01X18809222Y-336006D01*
G01X18820652Y-324576D01*
G01X19076430Y-238978D02*
G01X19065000Y-227548D01*
G01X19047982Y-221706D01*
G01X19025122Y-221706D01*
G01X19007850Y-227548D01*
G01X18996420Y-238978D01*
G01X18996420Y-250408D01*
G01X19002262Y-261838D01*
G01X19007850Y-267426D01*
G01X19019280Y-273268D01*
G01X19053570Y-284698D01*
G01X19065000Y-290286D01*
G01X19070842Y-296128D01*
G01X19076430Y-307558D01*
G01X19076430Y-324576D01*
G01X19065000Y-336006D01*
G01X19047982Y-341848D01*
G01X19025122Y-341848D01*
G01X19007850Y-336006D01*
G01X18996420Y-324576D01*
G01X19124182Y-221706D02*
G01X19124182Y-341848D01*
G01X19124182Y-284698D02*
G01X19141454Y-267426D01*
G01X19152884Y-261838D01*
G01X19169902Y-261838D01*
G01X19181332Y-267426D01*
G01X19187174Y-284698D01*
G01X19187174Y-341848D01*
G01X19303506Y-261838D02*
G01X19303506Y-341848D01*
G01X19303506Y-278856D02*
G01X19292076Y-267426D01*
G01X19280646Y-261838D01*
G01X19263628Y-261838D01*
G01X19252198Y-267426D01*
G01X19240768Y-278856D01*
G01X19234926Y-296128D01*
G01X19234926Y-307558D01*
G01X19240768Y-324576D01*
G01X19252198Y-336006D01*
G01X19263628Y-341848D01*
G01X19280646Y-341848D01*
G01X19292076Y-336006D01*
G01X19303506Y-324576D01*
G01X19351258Y-261838D02*
G01X19351258Y-381726D01*
G01X19351258Y-278856D02*
G01X19362688Y-267426D01*
G01X19374118Y-261838D01*
G01X19391390Y-261838D01*
G01X19402820Y-267426D01*
G01X19414250Y-278856D01*
G01X19419838Y-296128D01*
G01X19419838Y-307558D01*
G01X19414250Y-324576D01*
G01X19402820Y-336006D01*
G01X19391390Y-341848D01*
G01X19374118Y-341848D01*
G01X19362688Y-336006D01*
G01X19351258Y-324576D01*
G01X19467590Y-296128D02*
G01X19536170Y-296128D01*
G01X19536170Y-284698D01*
G01X19530582Y-273268D01*
G01X19524740Y-267426D01*
G01X19513310Y-261838D01*
G01X19496292Y-261838D01*
G01X19484862Y-267426D01*
G01X19473432Y-278856D01*
G01X19467590Y-296128D01*
G01X19467590Y-307558D01*
G01X19473432Y-324576D01*
G01X19484862Y-336006D01*
G01X19496292Y-341848D01*
G01X19513310Y-341848D01*
G01X19524740Y-336006D01*
G01X19536170Y-324576D01*
G01X20427347Y-221706D02*
G01X20427347Y-341848D01*
G01X20427347Y-341848D02*
G01X20495927Y-341848D01*
G01X20612259Y-261838D02*
G01X20612259Y-341848D01*
G01X20612259Y-278856D02*
G01X20600829Y-267426D01*
G01X20589399Y-261838D01*
G01X20572381Y-261838D01*
G01X20560951Y-267426D01*
G01X20549521Y-278856D01*
G01X20543679Y-296128D01*
G01X20543679Y-307558D01*
G01X20549521Y-324576D01*
G01X20560951Y-336006D01*
G01X20572381Y-341848D01*
G01X20589399Y-341848D01*
G01X20600829Y-336006D01*
G01X20612259Y-324576D01*
G01X20665853Y-261838D02*
G01X20700143Y-341848D01*
G01X20734433Y-261838D02*
G01X20700143Y-341848D01*
G01X20688713Y-364708D01*
G01X20677283Y-376138D01*
G01X20665853Y-381726D01*
G01X20660011Y-381726D01*
G01X20782185Y-296128D02*
G01X20850765Y-296128D01*
G01X20850765Y-284698D01*
G01X20845177Y-273268D01*
G01X20839335Y-267426D01*
G01X20827905Y-261838D01*
G01X20810887Y-261838D01*
G01X20799457Y-267426D01*
G01X20788027Y-278856D01*
G01X20782185Y-296128D01*
G01X20782185Y-307558D01*
G01X20788027Y-324576D01*
G01X20799457Y-336006D01*
G01X20810887Y-341848D01*
G01X20827905Y-341848D01*
G01X20839335Y-336006D01*
G01X20850765Y-324576D01*
G01X20898517Y-261838D02*
G01X20898517Y-341848D01*
G01X20898517Y-296128D02*
G01X20904359Y-278856D01*
G01X20915789Y-267426D01*
G01X20927219Y-261838D01*
G01X20944237Y-261838D01*
G01X21120005Y-221706D02*
G01X21120005Y-341848D01*
G01X21120005Y-221706D02*
G01X21171567Y-221706D01*
G01X21188585Y-227548D01*
G01X21194427Y-233136D01*
G01X21200015Y-244566D01*
G01X21200015Y-261838D01*
G01X21194427Y-273268D01*
G01X21188585Y-278856D01*
G01X21171567Y-284698D01*
G01X21120005Y-284698D01*
G01X21316347Y-261838D02*
G01X21316347Y-341848D01*
G01X21316347Y-278856D02*
G01X21304917Y-267426D01*
G01X21293487Y-261838D01*
G01X21276469Y-261838D01*
G01X21265039Y-267426D01*
G01X21253609Y-278856D01*
G01X21247767Y-296128D01*
G01X21247767Y-307558D01*
G01X21253609Y-324576D01*
G01X21265039Y-336006D01*
G01X21276469Y-341848D01*
G01X21293487Y-341848D01*
G01X21304917Y-336006D01*
G01X21316347Y-324576D01*
G01X21364099Y-221706D02*
G01X21369941Y-227548D01*
G01X21375529Y-221706D01*
G01X21369941Y-216118D01*
G01X21364099Y-221706D01*
G01X21369941Y-261838D02*
G01X21369941Y-341848D01*
G01X21423281Y-261838D02*
G01X21423281Y-341848D01*
G01X21423281Y-296128D02*
G01X21429123Y-278856D01*
G01X21440553Y-267426D01*
G01X21451983Y-261838D01*
G01X21469001Y-261838D01*
G01X8757716Y-830979D02*
G01X8757716Y-825137D01*
G01X8763304Y-813707D01*
G01X8769146Y-808119D01*
G01X8780576Y-802277D01*
G01X8803436Y-802277D01*
G01X8814866Y-808119D01*
G01X8820454Y-813707D01*
G01X8826296Y-825137D01*
G01X8826296Y-836567D01*
G01X8820454Y-847997D01*
G01X8809024Y-865269D01*
G01X8751874Y-922419D01*
G01X8831884Y-922419D01*
G01X10166037Y-825137D02*
G01X10177467Y-819549D01*
G01X10194739Y-802277D01*
G01X10194739Y-922419D01*
G01X10276781Y-802277D02*
G01X10259763Y-808119D01*
G01X10248333Y-825137D01*
G01X10242491Y-853839D01*
G01X10242491Y-870857D01*
G01X10248333Y-899559D01*
G01X10259763Y-916577D01*
G01X10276781Y-922419D01*
G01X10288211Y-922419D01*
G01X10305483Y-916577D01*
G01X10316913Y-899559D01*
G01X10322501Y-870857D01*
G01X10322501Y-853839D01*
G01X10316913Y-825137D01*
G01X10305483Y-808119D01*
G01X10288211Y-802277D01*
G01X10276781Y-802277D01*
G01X10398955Y-802277D02*
G01X10381683Y-808119D01*
G01X10376095Y-819549D01*
G01X10376095Y-830979D01*
G01X10381683Y-842409D01*
G01X10393113Y-847997D01*
G01X10415973Y-853839D01*
G01X10433245Y-859427D01*
G01X10444675Y-870857D01*
G01X10450263Y-882287D01*
G01X10450263Y-899559D01*
G01X10444675Y-910989D01*
G01X10438833Y-916577D01*
G01X10421815Y-922419D01*
G01X10398955Y-922419D01*
G01X10381683Y-916577D01*
G01X10376095Y-910989D01*
G01X10370253Y-899559D01*
G01X10370253Y-882287D01*
G01X10376095Y-870857D01*
G01X10387525Y-859427D01*
G01X10404543Y-853839D01*
G01X10427403Y-847997D01*
G01X10438833Y-842409D01*
G01X10444675Y-830979D01*
G01X10444675Y-819549D01*
G01X10438833Y-808119D01*
G01X10421815Y-802277D01*
G01X10398955Y-802277D01*
G01X10503857Y-893717D02*
G01X10498015Y-899559D01*
G01X10503857Y-905147D01*
G01X10509445Y-899559D01*
G01X10503857Y-893717D01*
G01X10591487Y-802277D02*
G01X10574469Y-808119D01*
G01X10563039Y-825137D01*
G01X10557197Y-853839D01*
G01X10557197Y-870857D01*
G01X10563039Y-899559D01*
G01X10574469Y-916577D01*
G01X10591487Y-922419D01*
G01X10602917Y-922419D01*
G01X10620189Y-916577D01*
G01X10631619Y-899559D01*
G01X10637207Y-870857D01*
G01X10637207Y-853839D01*
G01X10631619Y-825137D01*
G01X10620189Y-808119D01*
G01X10602917Y-802277D01*
G01X10591487Y-802277D01*
G01X10684959Y-842409D02*
G01X10684959Y-922419D01*
G01X10684959Y-865269D02*
G01X10702231Y-847997D01*
G01X10713661Y-842409D01*
G01X10730679Y-842409D01*
G01X10742109Y-847997D01*
G01X10747951Y-865269D01*
G01X10747951Y-922419D01*
G01X10747951Y-865269D02*
G01X10764969Y-847997D01*
G01X10776399Y-842409D01*
G01X10793671Y-842409D01*
G01X10805101Y-847997D01*
G01X10810689Y-865269D01*
G01X10810689Y-922419D01*
G01X10858441Y-802277D02*
G01X10864283Y-808119D01*
G01X10869871Y-802277D01*
G01X10864283Y-796689D01*
G01X10858441Y-802277D01*
G01X10864283Y-842409D02*
G01X10864283Y-922419D01*
G01X10917623Y-802277D02*
G01X10917623Y-922419D01*
G01X11005507Y-779417D02*
G01X10994077Y-790847D01*
G01X10982647Y-808119D01*
G01X10971217Y-830979D01*
G01X10965375Y-859427D01*
G01X10965375Y-882287D01*
G01X10971217Y-910989D01*
G01X10982647Y-933849D01*
G01X10994077Y-950867D01*
G01X11005507Y-962297D01*
G01X11059101Y-830979D02*
G01X11059101Y-825137D01*
G01X11064689Y-813707D01*
G01X11070531Y-808119D01*
G01X11081961Y-802277D01*
G01X11104821Y-802277D01*
G01X11116251Y-808119D01*
G01X11121839Y-813707D01*
G01X11127681Y-825137D01*
G01X11127681Y-836567D01*
G01X11121839Y-847997D01*
G01X11110409Y-865269D01*
G01X11053259Y-922419D01*
G01X11133269Y-922419D01*
G01X11186863Y-893717D02*
G01X11181021Y-899559D01*
G01X11186863Y-905147D01*
G01X11192451Y-899559D01*
G01X11186863Y-893717D01*
G01X11320213Y-802277D02*
G01X11263063Y-922419D01*
G01X11240203Y-802277D02*
G01X11320213Y-802277D01*
G01X11425115Y-802277D02*
G01X11367965Y-882287D01*
G01X11453817Y-882287D01*
G01X11425115Y-802277D02*
G01X11425115Y-922419D01*
G01X11558719Y-802277D02*
G01X11501569Y-882287D01*
G01X11587421Y-882287D01*
G01X11558719Y-802277D02*
G01X11558719Y-922419D01*
G01X11635173Y-842409D02*
G01X11635173Y-922419D01*
G01X11635173Y-865269D02*
G01X11652445Y-847997D01*
G01X11663875Y-842409D01*
G01X11680893Y-842409D01*
G01X11692323Y-847997D01*
G01X11698165Y-865269D01*
G01X11698165Y-922419D01*
G01X11698165Y-865269D02*
G01X11715183Y-847997D01*
G01X11726613Y-842409D01*
G01X11743885Y-842409D01*
G01X11755315Y-847997D01*
G01X11760903Y-865269D01*
G01X11760903Y-922419D01*
G01X11808655Y-842409D02*
G01X11808655Y-922419D01*
G01X11808655Y-865269D02*
G01X11825927Y-847997D01*
G01X11837357Y-842409D01*
G01X11854375Y-842409D01*
G01X11865805Y-847997D01*
G01X11871647Y-865269D01*
G01X11871647Y-922419D01*
G01X11871647Y-865269D02*
G01X11888665Y-847997D01*
G01X11900095Y-842409D01*
G01X11917367Y-842409D01*
G01X11928797Y-847997D01*
G01X11934385Y-865269D01*
G01X11934385Y-922419D01*
G01X11982137Y-779417D02*
G01X11993567Y-790847D01*
G01X12004997Y-808119D01*
G01X12016427Y-830979D01*
G01X12022269Y-859427D01*
G01X12022269Y-882287D01*
G01X12016427Y-910989D01*
G01X12004997Y-933849D01*
G01X11993567Y-950867D01*
G01X11982137Y-962297D01*
G01X13946210Y-802277D02*
G01X13946210Y-922419D01*
G01X13946210Y-802277D02*
G01X13997772Y-802277D01*
G01X14014790Y-808119D01*
G01X14020632Y-813707D01*
G01X14026220Y-825137D01*
G01X14026220Y-842409D01*
G01X14020632Y-853839D01*
G01X14014790Y-859427D01*
G01X13997772Y-865269D01*
G01X13946210Y-865269D01*
G01X14114104Y-802277D02*
G01X14114104Y-922419D01*
G01X14073972Y-802277D02*
G01X14153982Y-802277D01*
G01X14201734Y-802277D02*
G01X14201734Y-922419D01*
G01X14281744Y-802277D02*
G01X14281744Y-922419D01*
G01X14201734Y-859427D02*
G01X14281744Y-859427D01*
G01X15407618Y-802277D02*
G01X15407618Y-922419D01*
G01X15407618Y-802277D02*
G01X15459180Y-802277D01*
G01X15476198Y-808119D01*
G01X15482040Y-813707D01*
G01X15487628Y-825137D01*
G01X15487628Y-836567D01*
G01X15482040Y-847997D01*
G01X15476198Y-853839D01*
G01X15459180Y-859427D01*
G01X15407618Y-859427D01*
G01X15447750Y-859427D02*
G01X15487628Y-922419D01*
G01X15564082Y-842409D02*
G01X15552652Y-847997D01*
G01X15541222Y-859427D01*
G01X15535380Y-876699D01*
G01X15535380Y-888129D01*
G01X15541222Y-905147D01*
G01X15552652Y-916577D01*
G01X15564082Y-922419D01*
G01X15581100Y-922419D01*
G01X15592530Y-916577D01*
G01X15603960Y-905147D01*
G01X15609802Y-888129D01*
G01X15609802Y-876699D01*
G01X15603960Y-859427D01*
G01X15592530Y-847997D01*
G01X15581100Y-842409D01*
G01X15564082Y-842409D01*
G01X15657554Y-842409D02*
G01X15657554Y-899559D01*
G01X15663396Y-916577D01*
G01X15674826Y-922419D01*
G01X15691844Y-922419D01*
G01X15703274Y-916577D01*
G01X15720546Y-899559D01*
G01X15720546Y-842409D02*
G01X15720546Y-922419D01*
G01X15768298Y-842409D02*
G01X15768298Y-922419D01*
G01X15768298Y-865269D02*
G01X15785570Y-847997D01*
G01X15797000Y-842409D01*
G01X15814018Y-842409D01*
G01X15825448Y-847997D01*
G01X15831290Y-865269D01*
G01X15831290Y-922419D01*
G01X15947622Y-802277D02*
G01X15947622Y-922419D01*
G01X15947622Y-859427D02*
G01X15936192Y-847997D01*
G01X15924762Y-842409D01*
G01X15907744Y-842409D01*
G01X15896314Y-847997D01*
G01X15884884Y-859427D01*
G01X15879042Y-876699D01*
G01X15879042Y-888129D01*
G01X15884884Y-905147D01*
G01X15896314Y-916577D01*
G01X15907744Y-922419D01*
G01X15924762Y-922419D01*
G01X15936192Y-916577D01*
G01X15947622Y-905147D01*
G01X16838799Y-802277D02*
G01X16884519Y-922419D01*
G01X16930239Y-802277D02*
G01X16884519Y-922419D01*
G01X16977991Y-802277D02*
G01X16983833Y-808119D01*
G01X16989421Y-802277D01*
G01X16983833Y-796689D01*
G01X16977991Y-802277D01*
G01X16983833Y-842409D02*
G01X16983833Y-922419D01*
G01X17105753Y-842409D02*
G01X17105753Y-922419D01*
G01X17105753Y-859427D02*
G01X17094323Y-847997D01*
G01X17082893Y-842409D01*
G01X17065875Y-842409D01*
G01X17054445Y-847997D01*
G01X17043015Y-859427D01*
G01X17037173Y-876699D01*
G01X17037173Y-888129D01*
G01X17043015Y-905147D01*
G01X17054445Y-916577D01*
G01X17065875Y-922419D01*
G01X17082893Y-922419D01*
G01X17094323Y-916577D01*
G01X17105753Y-905147D01*
G01X20467479Y-802277D02*
G01X20467479Y-922419D01*
G01X20427347Y-802277D02*
G01X20507357Y-802277D01*
G01X20583811Y-842409D02*
G01X20572381Y-847997D01*
G01X20560951Y-859427D01*
G01X20555109Y-876699D01*
G01X20555109Y-888129D01*
G01X20560951Y-905147D01*
G01X20572381Y-916577D01*
G01X20583811Y-922419D01*
G01X20600829Y-922419D01*
G01X20612259Y-916577D01*
G01X20623689Y-905147D01*
G01X20629531Y-888129D01*
G01X20629531Y-876699D01*
G01X20623689Y-859427D01*
G01X20612259Y-847997D01*
G01X20600829Y-842409D01*
G01X20583811Y-842409D01*
G01X20677283Y-842409D02*
G01X20677283Y-962297D01*
G01X20677283Y-859427D02*
G01X20688713Y-847997D01*
G01X20700143Y-842409D01*
G01X20717415Y-842409D01*
G01X20728845Y-847997D01*
G01X20740275Y-859427D01*
G01X20745863Y-876699D01*
G01X20745863Y-888129D01*
G01X20740275Y-905147D01*
G01X20728845Y-916577D01*
G01X20717415Y-922419D01*
G01X20700143Y-922419D01*
G01X20688713Y-916577D01*
G01X20677283Y-905147D01*
G01X20921631Y-802277D02*
G01X20921631Y-922419D01*
G01X20921631Y-922419D02*
G01X20990211Y-922419D01*
G01X21106543Y-842409D02*
G01X21106543Y-922419D01*
G01X21106543Y-859427D02*
G01X21095113Y-847997D01*
G01X21083683Y-842409D01*
G01X21066665Y-842409D01*
G01X21055235Y-847997D01*
G01X21043805Y-859427D01*
G01X21037963Y-876699D01*
G01X21037963Y-888129D01*
G01X21043805Y-905147D01*
G01X21055235Y-916577D01*
G01X21066665Y-922419D01*
G01X21083683Y-922419D01*
G01X21095113Y-916577D01*
G01X21106543Y-905147D01*
G01X21160137Y-842409D02*
G01X21194427Y-922419D01*
G01X21228717Y-842409D02*
G01X21194427Y-922419D01*
G01X21182997Y-945279D01*
G01X21171567Y-956709D01*
G01X21160137Y-962297D01*
G01X21154295Y-962297D01*
G01X21276469Y-876699D02*
G01X21345049Y-876699D01*
G01X21345049Y-865269D01*
G01X21339461Y-853839D01*
G01X21333619Y-847997D01*
G01X21322189Y-842409D01*
G01X21305171Y-842409D01*
G01X21293741Y-847997D01*
G01X21282311Y-859427D01*
G01X21276469Y-876699D01*
G01X21276469Y-888129D01*
G01X21282311Y-905147D01*
G01X21293741Y-916577D01*
G01X21305171Y-922419D01*
G01X21322189Y-922419D01*
G01X21333619Y-916577D01*
G01X21345049Y-905147D01*
G01X21392801Y-842409D02*
G01X21392801Y-922419D01*
G01X21392801Y-876699D02*
G01X21398643Y-859427D01*
G01X21410073Y-847997D01*
G01X21421503Y-842409D01*
G01X21438521Y-842409D01*
G01X21486273Y-870857D02*
G01X21589143Y-870857D01*
G01X21636895Y-802277D02*
G01X21636895Y-922419D01*
G01X21636895Y-802277D02*
G01X21688457Y-802277D01*
G01X21705475Y-808119D01*
G01X21711317Y-813707D01*
G01X21716905Y-825137D01*
G01X21716905Y-836567D01*
G01X21711317Y-847997D01*
G01X21705475Y-853839D01*
G01X21688457Y-859427D01*
G01X21636895Y-859427D02*
G01X21688457Y-859427D01*
G01X21705475Y-865269D01*
G01X21711317Y-870857D01*
G01X21716905Y-882287D01*
G01X21716905Y-899559D01*
G01X21711317Y-910989D01*
G01X21705475Y-916577D01*
G01X21688457Y-922419D01*
G01X21636895Y-922419D01*
G01X21793359Y-842409D02*
G01X21781929Y-847997D01*
G01X21770499Y-859427D01*
G01X21764657Y-876699D01*
G01X21764657Y-888129D01*
G01X21770499Y-905147D01*
G01X21781929Y-916577D01*
G01X21793359Y-922419D01*
G01X21810377Y-922419D01*
G01X21821807Y-916577D01*
G01X21833237Y-905147D01*
G01X21839079Y-888129D01*
G01X21839079Y-876699D01*
G01X21833237Y-859427D01*
G01X21821807Y-847997D01*
G01X21810377Y-842409D01*
G01X21793359Y-842409D01*
G01X21904103Y-802277D02*
G01X21904103Y-899559D01*
G01X21909691Y-916577D01*
G01X21921121Y-922419D01*
G01X21932551Y-922419D01*
G01X21886831Y-842409D02*
G01X21926963Y-842409D01*
G01X21997575Y-802277D02*
G01X21997575Y-899559D01*
G01X22003163Y-916577D01*
G01X22014593Y-922419D01*
G01X22026023Y-922419D01*
G01X21980303Y-842409D02*
G01X22020435Y-842409D01*
G01X22102477Y-842409D02*
G01X22091047Y-847997D01*
G01X22079617Y-859427D01*
G01X22073775Y-876699D01*
G01X22073775Y-888129D01*
G01X22079617Y-905147D01*
G01X22091047Y-916577D01*
G01X22102477Y-922419D01*
G01X22119495Y-922419D01*
G01X22130925Y-916577D01*
G01X22142355Y-905147D01*
G01X22148197Y-888129D01*
G01X22148197Y-876699D01*
G01X22142355Y-859427D01*
G01X22130925Y-847997D01*
G01X22119495Y-842409D01*
G01X22102477Y-842409D01*
G01X22195949Y-842409D02*
G01X22195949Y-922419D01*
G01X22195949Y-865269D02*
G01X22213221Y-847997D01*
G01X22224651Y-842409D01*
G01X22241669Y-842409D01*
G01X22253099Y-847997D01*
G01X22258941Y-865269D01*
G01X22258941Y-922419D01*
G01X22258941Y-865269D02*
G01X22275959Y-847997D01*
G01X22287389Y-842409D01*
G01X22304661Y-842409D01*
G01X22316091Y-847997D01*
G01X22321679Y-865269D01*
G01X22321679Y-922419D01*
G01X22497447Y-802277D02*
G01X22497447Y-922419D01*
G01X22497447Y-922419D02*
G01X22566027Y-922419D01*
G01X22682359Y-842409D02*
G01X22682359Y-922419D01*
G01X22682359Y-859427D02*
G01X22670929Y-847997D01*
G01X22659499Y-842409D01*
G01X22642481Y-842409D01*
G01X22631051Y-847997D01*
G01X22619621Y-859427D01*
G01X22613779Y-876699D01*
G01X22613779Y-888129D01*
G01X22619621Y-905147D01*
G01X22631051Y-916577D01*
G01X22642481Y-922419D01*
G01X22659499Y-922419D01*
G01X22670929Y-916577D01*
G01X22682359Y-905147D01*
G01X22735953Y-842409D02*
G01X22770243Y-922419D01*
G01X22804533Y-842409D02*
G01X22770243Y-922419D01*
G01X22758813Y-945279D01*
G01X22747383Y-956709D01*
G01X22735953Y-962297D01*
G01X22730111Y-962297D01*
G01X22852285Y-876699D02*
G01X22920865Y-876699D01*
G01X22920865Y-865269D01*
G01X22915277Y-853839D01*
G01X22909435Y-847997D01*
G01X22898005Y-842409D01*
G01X22880987Y-842409D01*
G01X22869557Y-847997D01*
G01X22858127Y-859427D01*
G01X22852285Y-876699D01*
G01X22852285Y-888129D01*
G01X22858127Y-905147D01*
G01X22869557Y-916577D01*
G01X22880987Y-922419D01*
G01X22898005Y-922419D01*
G01X22909435Y-916577D01*
G01X22920865Y-905147D01*
G01X22968617Y-842409D02*
G01X22968617Y-922419D01*
G01X22968617Y-876699D02*
G01X22974459Y-859427D01*
G01X22985889Y-847997D01*
G01X22997319Y-842409D01*
G01X23014337Y-842409D01*
G01X8757716Y-1411551D02*
G01X8757716Y-1405709D01*
G01X8763304Y-1394279D01*
G01X8769146Y-1388691D01*
G01X8780576Y-1382849D01*
G01X8803436Y-1382849D01*
G01X8814866Y-1388691D01*
G01X8820454Y-1394279D01*
G01X8826296Y-1405709D01*
G01X8826296Y-1417139D01*
G01X8820454Y-1428569D01*
G01X8809024Y-1445841D01*
G01X8751874Y-1502991D01*
G01X8831884Y-1502991D01*
G01X10166037Y-1405709D02*
G01X10177467Y-1400121D01*
G01X10194739Y-1382849D01*
G01X10194739Y-1502991D01*
G01X10242491Y-1405709D02*
G01X10253921Y-1400121D01*
G01X10271193Y-1382849D01*
G01X10271193Y-1502991D01*
G01X10347647Y-1382849D02*
G01X10330375Y-1388691D01*
G01X10324787Y-1400121D01*
G01X10324787Y-1411551D01*
G01X10330375Y-1422981D01*
G01X10341805Y-1428569D01*
G01X10364665Y-1434411D01*
G01X10381937Y-1439999D01*
G01X10393367Y-1451429D01*
G01X10398955Y-1462859D01*
G01X10398955Y-1480131D01*
G01X10393367Y-1491561D01*
G01X10387525Y-1497149D01*
G01X10370507Y-1502991D01*
G01X10347647Y-1502991D01*
G01X10330375Y-1497149D01*
G01X10324787Y-1491561D01*
G01X10318945Y-1480131D01*
G01X10318945Y-1462859D01*
G01X10324787Y-1451429D01*
G01X10336217Y-1439999D01*
G01X10353235Y-1434411D01*
G01X10376095Y-1428569D01*
G01X10387525Y-1422981D01*
G01X10393367Y-1411551D01*
G01X10393367Y-1400121D01*
G01X10387525Y-1388691D01*
G01X10370507Y-1382849D01*
G01X10347647Y-1382849D01*
G01X10452549Y-1474289D02*
G01X10446707Y-1480131D01*
G01X10452549Y-1485719D01*
G01X10458137Y-1480131D01*
G01X10452549Y-1474289D01*
G01X10505889Y-1405709D02*
G01X10517319Y-1400121D01*
G01X10534591Y-1382849D01*
G01X10534591Y-1502991D01*
G01X10582343Y-1422981D02*
G01X10582343Y-1502991D01*
G01X10582343Y-1445841D02*
G01X10599615Y-1428569D01*
G01X10611045Y-1422981D01*
G01X10628063Y-1422981D01*
G01X10639493Y-1428569D01*
G01X10645335Y-1445841D01*
G01X10645335Y-1502991D01*
G01X10645335Y-1445841D02*
G01X10662353Y-1428569D01*
G01X10673783Y-1422981D01*
G01X10691055Y-1422981D01*
G01X10702485Y-1428569D01*
G01X10708073Y-1445841D01*
G01X10708073Y-1502991D01*
G01X10755825Y-1382849D02*
G01X10761667Y-1388691D01*
G01X10767255Y-1382849D01*
G01X10761667Y-1377261D01*
G01X10755825Y-1382849D01*
G01X10761667Y-1422981D02*
G01X10761667Y-1502991D01*
G01X10815007Y-1382849D02*
G01X10815007Y-1502991D01*
G01X10902891Y-1359989D02*
G01X10891461Y-1371419D01*
G01X10880031Y-1388691D01*
G01X10868601Y-1411551D01*
G01X10862759Y-1439999D01*
G01X10862759Y-1462859D01*
G01X10868601Y-1491561D01*
G01X10880031Y-1514421D01*
G01X10891461Y-1531439D01*
G01X10902891Y-1542869D01*
G01X10962073Y-1382849D02*
G01X11025065Y-1382849D01*
G01X10990775Y-1428569D01*
G01X11007793Y-1428569D01*
G01X11019223Y-1434411D01*
G01X11025065Y-1439999D01*
G01X11030653Y-1457271D01*
G01X11030653Y-1468701D01*
G01X11025065Y-1485719D01*
G01X11013635Y-1497149D01*
G01X10996363Y-1502991D01*
G01X10979345Y-1502991D01*
G01X10962073Y-1497149D01*
G01X10956485Y-1491561D01*
G01X10950643Y-1480131D01*
G01X11084247Y-1474289D02*
G01X11078405Y-1480131D01*
G01X11084247Y-1485719D01*
G01X11089835Y-1480131D01*
G01X11084247Y-1474289D01*
G01X11171877Y-1382849D02*
G01X11154859Y-1388691D01*
G01X11143429Y-1405709D01*
G01X11137587Y-1434411D01*
G01X11137587Y-1451429D01*
G01X11143429Y-1480131D01*
G01X11154859Y-1497149D01*
G01X11171877Y-1502991D01*
G01X11183307Y-1502991D01*
G01X11200579Y-1497149D01*
G01X11212009Y-1480131D01*
G01X11217597Y-1451429D01*
G01X11217597Y-1434411D01*
G01X11212009Y-1405709D01*
G01X11200579Y-1388691D01*
G01X11183307Y-1382849D01*
G01X11171877Y-1382849D01*
G01X11299639Y-1382849D02*
G01X11282621Y-1388691D01*
G01X11271191Y-1405709D01*
G01X11265349Y-1434411D01*
G01X11265349Y-1451429D01*
G01X11271191Y-1480131D01*
G01X11282621Y-1497149D01*
G01X11299639Y-1502991D01*
G01X11311069Y-1502991D01*
G01X11328341Y-1497149D01*
G01X11339771Y-1480131D01*
G01X11345359Y-1451429D01*
G01X11345359Y-1434411D01*
G01X11339771Y-1405709D01*
G01X11328341Y-1388691D01*
G01X11311069Y-1382849D01*
G01X11299639Y-1382849D01*
G01X11427401Y-1382849D02*
G01X11410383Y-1388691D01*
G01X11398953Y-1405709D01*
G01X11393111Y-1434411D01*
G01X11393111Y-1451429D01*
G01X11398953Y-1480131D01*
G01X11410383Y-1497149D01*
G01X11427401Y-1502991D01*
G01X11438831Y-1502991D01*
G01X11456103Y-1497149D01*
G01X11467533Y-1480131D01*
G01X11473121Y-1451429D01*
G01X11473121Y-1434411D01*
G01X11467533Y-1405709D01*
G01X11456103Y-1388691D01*
G01X11438831Y-1382849D01*
G01X11427401Y-1382849D01*
G01X11520873Y-1422981D02*
G01X11520873Y-1502991D01*
G01X11520873Y-1445841D02*
G01X11538145Y-1428569D01*
G01X11549575Y-1422981D01*
G01X11566593Y-1422981D01*
G01X11578023Y-1428569D01*
G01X11583865Y-1445841D01*
G01X11583865Y-1502991D01*
G01X11583865Y-1445841D02*
G01X11600883Y-1428569D01*
G01X11612313Y-1422981D01*
G01X11629585Y-1422981D01*
G01X11641015Y-1428569D01*
G01X11646603Y-1445841D01*
G01X11646603Y-1502991D01*
G01X11694355Y-1422981D02*
G01X11694355Y-1502991D01*
G01X11694355Y-1445841D02*
G01X11711627Y-1428569D01*
G01X11723057Y-1422981D01*
G01X11740075Y-1422981D01*
G01X11751505Y-1428569D01*
G01X11757347Y-1445841D01*
G01X11757347Y-1502991D01*
G01X11757347Y-1445841D02*
G01X11774365Y-1428569D01*
G01X11785795Y-1422981D01*
G01X11803067Y-1422981D01*
G01X11814497Y-1428569D01*
G01X11820085Y-1445841D01*
G01X11820085Y-1502991D01*
G01X11867837Y-1359989D02*
G01X11879267Y-1371419D01*
G01X11890697Y-1388691D01*
G01X11902127Y-1411551D01*
G01X11907969Y-1439999D01*
G01X11907969Y-1462859D01*
G01X11902127Y-1491561D01*
G01X11890697Y-1514421D01*
G01X11879267Y-1531439D01*
G01X11867837Y-1542869D01*
G01X13946210Y-1382849D02*
G01X13946210Y-1502991D01*
G01X13946210Y-1382849D02*
G01X13997772Y-1382849D01*
G01X14014790Y-1388691D01*
G01X14020632Y-1394279D01*
G01X14026220Y-1405709D01*
G01X14026220Y-1422981D01*
G01X14020632Y-1434411D01*
G01X14014790Y-1439999D01*
G01X13997772Y-1445841D01*
G01X13946210Y-1445841D01*
G01X14114104Y-1382849D02*
G01X14114104Y-1502991D01*
G01X14073972Y-1382849D02*
G01X14153982Y-1382849D01*
G01X14201734Y-1382849D02*
G01X14201734Y-1502991D01*
G01X14281744Y-1382849D02*
G01X14281744Y-1502991D01*
G01X14201734Y-1439999D02*
G01X14281744Y-1439999D01*
G01X15407618Y-1382849D02*
G01X15407618Y-1502991D01*
G01X15407618Y-1382849D02*
G01X15459180Y-1382849D01*
G01X15476198Y-1388691D01*
G01X15482040Y-1394279D01*
G01X15487628Y-1405709D01*
G01X15487628Y-1417139D01*
G01X15482040Y-1428569D01*
G01X15476198Y-1434411D01*
G01X15459180Y-1439999D01*
G01X15407618Y-1439999D01*
G01X15447750Y-1439999D02*
G01X15487628Y-1502991D01*
G01X15564082Y-1422981D02*
G01X15552652Y-1428569D01*
G01X15541222Y-1439999D01*
G01X15535380Y-1457271D01*
G01X15535380Y-1468701D01*
G01X15541222Y-1485719D01*
G01X15552652Y-1497149D01*
G01X15564082Y-1502991D01*
G01X15581100Y-1502991D01*
G01X15592530Y-1497149D01*
G01X15603960Y-1485719D01*
G01X15609802Y-1468701D01*
G01X15609802Y-1457271D01*
G01X15603960Y-1439999D01*
G01X15592530Y-1428569D01*
G01X15581100Y-1422981D01*
G01X15564082Y-1422981D01*
G01X15657554Y-1422981D02*
G01X15657554Y-1480131D01*
G01X15663396Y-1497149D01*
G01X15674826Y-1502991D01*
G01X15691844Y-1502991D01*
G01X15703274Y-1497149D01*
G01X15720546Y-1480131D01*
G01X15720546Y-1422981D02*
G01X15720546Y-1502991D01*
G01X15768298Y-1422981D02*
G01X15768298Y-1502991D01*
G01X15768298Y-1445841D02*
G01X15785570Y-1428569D01*
G01X15797000Y-1422981D01*
G01X15814018Y-1422981D01*
G01X15825448Y-1428569D01*
G01X15831290Y-1445841D01*
G01X15831290Y-1502991D01*
G01X15947622Y-1382849D02*
G01X15947622Y-1502991D01*
G01X15947622Y-1439999D02*
G01X15936192Y-1428569D01*
G01X15924762Y-1422981D01*
G01X15907744Y-1422981D01*
G01X15896314Y-1428569D01*
G01X15884884Y-1439999D01*
G01X15879042Y-1457271D01*
G01X15879042Y-1468701D01*
G01X15884884Y-1485719D01*
G01X15896314Y-1497149D01*
G01X15907744Y-1502991D01*
G01X15924762Y-1502991D01*
G01X15936192Y-1497149D01*
G01X15947622Y-1485719D01*
G01X16838799Y-1382849D02*
G01X16884519Y-1502991D01*
G01X16930239Y-1382849D02*
G01X16884519Y-1502991D01*
G01X16977991Y-1382849D02*
G01X16983833Y-1388691D01*
G01X16989421Y-1382849D01*
G01X16983833Y-1377261D01*
G01X16977991Y-1382849D01*
G01X16983833Y-1422981D02*
G01X16983833Y-1502991D01*
G01X17105753Y-1422981D02*
G01X17105753Y-1502991D01*
G01X17105753Y-1439999D02*
G01X17094323Y-1428569D01*
G01X17082893Y-1422981D01*
G01X17065875Y-1422981D01*
G01X17054445Y-1428569D01*
G01X17043015Y-1439999D01*
G01X17037173Y-1457271D01*
G01X17037173Y-1468701D01*
G01X17043015Y-1485719D01*
G01X17054445Y-1497149D01*
G01X17065875Y-1502991D01*
G01X17082893Y-1502991D01*
G01X17094323Y-1497149D01*
G01X17105753Y-1485719D01*
G01X20467479Y-1382849D02*
G01X20467479Y-1502991D01*
G01X20427347Y-1382849D02*
G01X20507357Y-1382849D01*
G01X20583811Y-1422981D02*
G01X20572381Y-1428569D01*
G01X20560951Y-1439999D01*
G01X20555109Y-1457271D01*
G01X20555109Y-1468701D01*
G01X20560951Y-1485719D01*
G01X20572381Y-1497149D01*
G01X20583811Y-1502991D01*
G01X20600829Y-1502991D01*
G01X20612259Y-1497149D01*
G01X20623689Y-1485719D01*
G01X20629531Y-1468701D01*
G01X20629531Y-1457271D01*
G01X20623689Y-1439999D01*
G01X20612259Y-1428569D01*
G01X20600829Y-1422981D01*
G01X20583811Y-1422981D01*
G01X20677283Y-1422981D02*
G01X20677283Y-1542869D01*
G01X20677283Y-1439999D02*
G01X20688713Y-1428569D01*
G01X20700143Y-1422981D01*
G01X20717415Y-1422981D01*
G01X20728845Y-1428569D01*
G01X20740275Y-1439999D01*
G01X20745863Y-1457271D01*
G01X20745863Y-1468701D01*
G01X20740275Y-1485719D01*
G01X20728845Y-1497149D01*
G01X20717415Y-1502991D01*
G01X20700143Y-1502991D01*
G01X20688713Y-1497149D01*
G01X20677283Y-1485719D01*
G01X20921631Y-1382849D02*
G01X20921631Y-1502991D01*
G01X20921631Y-1502991D02*
G01X20990211Y-1502991D01*
G01X21106543Y-1422981D02*
G01X21106543Y-1502991D01*
G01X21106543Y-1439999D02*
G01X21095113Y-1428569D01*
G01X21083683Y-1422981D01*
G01X21066665Y-1422981D01*
G01X21055235Y-1428569D01*
G01X21043805Y-1439999D01*
G01X21037963Y-1457271D01*
G01X21037963Y-1468701D01*
G01X21043805Y-1485719D01*
G01X21055235Y-1497149D01*
G01X21066665Y-1502991D01*
G01X21083683Y-1502991D01*
G01X21095113Y-1497149D01*
G01X21106543Y-1485719D01*
G01X21160137Y-1422981D02*
G01X21194427Y-1502991D01*
G01X21228717Y-1422981D02*
G01X21194427Y-1502991D01*
G01X21182997Y-1525851D01*
G01X21171567Y-1537281D01*
G01X21160137Y-1542869D01*
G01X21154295Y-1542869D01*
G01X21276469Y-1457271D02*
G01X21345049Y-1457271D01*
G01X21345049Y-1445841D01*
G01X21339461Y-1434411D01*
G01X21333619Y-1428569D01*
G01X21322189Y-1422981D01*
G01X21305171Y-1422981D01*
G01X21293741Y-1428569D01*
G01X21282311Y-1439999D01*
G01X21276469Y-1457271D01*
G01X21276469Y-1468701D01*
G01X21282311Y-1485719D01*
G01X21293741Y-1497149D01*
G01X21305171Y-1502991D01*
G01X21322189Y-1502991D01*
G01X21333619Y-1497149D01*
G01X21345049Y-1485719D01*
G01X21392801Y-1422981D02*
G01X21392801Y-1502991D01*
G01X21392801Y-1457271D02*
G01X21398643Y-1439999D01*
G01X21410073Y-1428569D01*
G01X21421503Y-1422981D01*
G01X21438521Y-1422981D01*
G01X21486273Y-1451429D02*
G01X21589143Y-1451429D01*
G01X21636895Y-1382849D02*
G01X21636895Y-1502991D01*
G01X21636895Y-1382849D02*
G01X21688457Y-1382849D01*
G01X21705475Y-1388691D01*
G01X21711317Y-1394279D01*
G01X21716905Y-1405709D01*
G01X21716905Y-1417139D01*
G01X21711317Y-1428569D01*
G01X21705475Y-1434411D01*
G01X21688457Y-1439999D01*
G01X21636895Y-1439999D02*
G01X21688457Y-1439999D01*
G01X21705475Y-1445841D01*
G01X21711317Y-1451429D01*
G01X21716905Y-1462859D01*
G01X21716905Y-1480131D01*
G01X21711317Y-1491561D01*
G01X21705475Y-1497149D01*
G01X21688457Y-1502991D01*
G01X21636895Y-1502991D01*
G01X21793359Y-1422981D02*
G01X21781929Y-1428569D01*
G01X21770499Y-1439999D01*
G01X21764657Y-1457271D01*
G01X21764657Y-1468701D01*
G01X21770499Y-1485719D01*
G01X21781929Y-1497149D01*
G01X21793359Y-1502991D01*
G01X21810377Y-1502991D01*
G01X21821807Y-1497149D01*
G01X21833237Y-1485719D01*
G01X21839079Y-1468701D01*
G01X21839079Y-1457271D01*
G01X21833237Y-1439999D01*
G01X21821807Y-1428569D01*
G01X21810377Y-1422981D01*
G01X21793359Y-1422981D01*
G01X21904103Y-1382849D02*
G01X21904103Y-1480131D01*
G01X21909691Y-1497149D01*
G01X21921121Y-1502991D01*
G01X21932551Y-1502991D01*
G01X21886831Y-1422981D02*
G01X21926963Y-1422981D01*
G01X21997575Y-1382849D02*
G01X21997575Y-1480131D01*
G01X22003163Y-1497149D01*
G01X22014593Y-1502991D01*
G01X22026023Y-1502991D01*
G01X21980303Y-1422981D02*
G01X22020435Y-1422981D01*
G01X22102477Y-1422981D02*
G01X22091047Y-1428569D01*
G01X22079617Y-1439999D01*
G01X22073775Y-1457271D01*
G01X22073775Y-1468701D01*
G01X22079617Y-1485719D01*
G01X22091047Y-1497149D01*
G01X22102477Y-1502991D01*
G01X22119495Y-1502991D01*
G01X22130925Y-1497149D01*
G01X22142355Y-1485719D01*
G01X22148197Y-1468701D01*
G01X22148197Y-1457271D01*
G01X22142355Y-1439999D01*
G01X22130925Y-1428569D01*
G01X22119495Y-1422981D01*
G01X22102477Y-1422981D01*
G01X22195949Y-1422981D02*
G01X22195949Y-1502991D01*
G01X22195949Y-1445841D02*
G01X22213221Y-1428569D01*
G01X22224651Y-1422981D01*
G01X22241669Y-1422981D01*
G01X22253099Y-1428569D01*
G01X22258941Y-1445841D01*
G01X22258941Y-1502991D01*
G01X22258941Y-1445841D02*
G01X22275959Y-1428569D01*
G01X22287389Y-1422981D01*
G01X22304661Y-1422981D01*
G01X22316091Y-1428569D01*
G01X22321679Y-1445841D01*
G01X22321679Y-1502991D01*
G01X22497447Y-1382849D02*
G01X22497447Y-1502991D01*
G01X22497447Y-1502991D02*
G01X22566027Y-1502991D01*
G01X22682359Y-1422981D02*
G01X22682359Y-1502991D01*
G01X22682359Y-1439999D02*
G01X22670929Y-1428569D01*
G01X22659499Y-1422981D01*
G01X22642481Y-1422981D01*
G01X22631051Y-1428569D01*
G01X22619621Y-1439999D01*
G01X22613779Y-1457271D01*
G01X22613779Y-1468701D01*
G01X22619621Y-1485719D01*
G01X22631051Y-1497149D01*
G01X22642481Y-1502991D01*
G01X22659499Y-1502991D01*
G01X22670929Y-1497149D01*
G01X22682359Y-1485719D01*
G01X22735953Y-1422981D02*
G01X22770243Y-1502991D01*
G01X22804533Y-1422981D02*
G01X22770243Y-1502991D01*
G01X22758813Y-1525851D01*
G01X22747383Y-1537281D01*
G01X22735953Y-1542869D01*
G01X22730111Y-1542869D01*
G01X22852285Y-1457271D02*
G01X22920865Y-1457271D01*
G01X22920865Y-1445841D01*
G01X22915277Y-1434411D01*
G01X22909435Y-1428569D01*
G01X22898005Y-1422981D01*
G01X22880987Y-1422981D01*
G01X22869557Y-1428569D01*
G01X22858127Y-1439999D01*
G01X22852285Y-1457271D01*
G01X22852285Y-1468701D01*
G01X22858127Y-1485719D01*
G01X22869557Y-1497149D01*
G01X22880987Y-1502991D01*
G01X22898005Y-1502991D01*
G01X22909435Y-1497149D01*
G01X22920865Y-1485719D01*
G01X22968617Y-1422981D02*
G01X22968617Y-1502991D01*
G01X22968617Y-1457271D02*
G01X22974459Y-1439999D01*
G01X22985889Y-1428569D01*
G01X22997319Y-1422981D01*
G01X23014337Y-1422981D01*
G01X8763304Y-1963420D02*
G01X8826296Y-1963420D01*
G01X8792006Y-2009140D01*
G01X8809024Y-2009140D01*
G01X8820454Y-2014982D01*
G01X8826296Y-2020570D01*
G01X8831884Y-2037842D01*
G01X8831884Y-2049272D01*
G01X8826296Y-2066290D01*
G01X8814866Y-2077720D01*
G01X8797594Y-2083562D01*
G01X8780576Y-2083562D01*
G01X8763304Y-2077720D01*
G01X8757716Y-2072132D01*
G01X8751874Y-2060702D01*
G01X10223187Y-1963420D02*
G01X10166037Y-2043430D01*
G01X10251889Y-2043430D01*
G01X10223187Y-1963420D02*
G01X10223187Y-2083562D01*
G01X10333931Y-1963420D02*
G01X10316913Y-1969262D01*
G01X10305483Y-1986280D01*
G01X10299641Y-2014982D01*
G01X10299641Y-2032000D01*
G01X10305483Y-2060702D01*
G01X10316913Y-2077720D01*
G01X10333931Y-2083562D01*
G01X10345361Y-2083562D01*
G01X10362633Y-2077720D01*
G01X10374063Y-2060702D01*
G01X10379651Y-2032000D01*
G01X10379651Y-2014982D01*
G01X10374063Y-1986280D01*
G01X10362633Y-1969262D01*
G01X10345361Y-1963420D01*
G01X10333931Y-1963420D01*
G01X10433245Y-2054860D02*
G01X10427403Y-2060702D01*
G01X10433245Y-2066290D01*
G01X10438833Y-2060702D01*
G01X10433245Y-2054860D01*
G01X10492427Y-1992122D02*
G01X10492427Y-1986280D01*
G01X10498015Y-1974850D01*
G01X10503857Y-1969262D01*
G01X10515287Y-1963420D01*
G01X10538147Y-1963420D01*
G01X10549577Y-1969262D01*
G01X10555165Y-1974850D01*
G01X10561007Y-1986280D01*
G01X10561007Y-1997710D01*
G01X10555165Y-2009140D01*
G01X10543735Y-2026412D01*
G01X10486585Y-2083562D01*
G01X10566595Y-2083562D01*
G01X10614347Y-2003552D02*
G01X10677339Y-2083562D01*
G01X10677339Y-2003552D02*
G01X10614347Y-2083562D01*
G01X10782241Y-1963420D02*
G01X10725091Y-2043430D01*
G01X10810943Y-2043430D01*
G01X10782241Y-1963420D02*
G01X10782241Y-2083562D01*
G01X10892985Y-1963420D02*
G01X10875967Y-1969262D01*
G01X10864537Y-1986280D01*
G01X10858695Y-2014982D01*
G01X10858695Y-2032000D01*
G01X10864537Y-2060702D01*
G01X10875967Y-2077720D01*
G01X10892985Y-2083562D01*
G01X10904415Y-2083562D01*
G01X10921687Y-2077720D01*
G01X10933117Y-2060702D01*
G01X10938705Y-2032000D01*
G01X10938705Y-2014982D01*
G01X10933117Y-1986280D01*
G01X10921687Y-1969262D01*
G01X10904415Y-1963420D01*
G01X10892985Y-1963420D01*
G01X10992299Y-2054860D02*
G01X10986457Y-2060702D01*
G01X10992299Y-2066290D01*
G01X10997887Y-2060702D01*
G01X10992299Y-2054860D01*
G01X11051481Y-1992122D02*
G01X11051481Y-1986280D01*
G01X11057069Y-1974850D01*
G01X11062911Y-1969262D01*
G01X11074341Y-1963420D01*
G01X11097201Y-1963420D01*
G01X11108631Y-1969262D01*
G01X11114219Y-1974850D01*
G01X11120061Y-1986280D01*
G01X11120061Y-1997710D01*
G01X11114219Y-2009140D01*
G01X11102789Y-2026412D01*
G01X11045639Y-2083562D01*
G01X11125649Y-2083562D01*
G01X11173401Y-2003552D02*
G01X11173401Y-2083562D01*
G01X11173401Y-2026412D02*
G01X11190673Y-2009140D01*
G01X11202103Y-2003552D01*
G01X11219121Y-2003552D01*
G01X11230551Y-2009140D01*
G01X11236393Y-2026412D01*
G01X11236393Y-2083562D01*
G01X11236393Y-2026412D02*
G01X11253411Y-2009140D01*
G01X11264841Y-2003552D01*
G01X11282113Y-2003552D01*
G01X11293543Y-2009140D01*
G01X11299131Y-2026412D01*
G01X11299131Y-2083562D01*
G01X11346883Y-1963420D02*
G01X11352725Y-1969262D01*
G01X11358313Y-1963420D01*
G01X11352725Y-1957832D01*
G01X11346883Y-1963420D01*
G01X11352725Y-2003552D02*
G01X11352725Y-2083562D01*
G01X11406065Y-1963420D02*
G01X11406065Y-2083562D01*
G01X11493949Y-1940560D02*
G01X11482519Y-1951990D01*
G01X11471089Y-1969262D01*
G01X11459659Y-1992122D01*
G01X11453817Y-2020570D01*
G01X11453817Y-2043430D01*
G01X11459659Y-2072132D01*
G01X11471089Y-2094992D01*
G01X11482519Y-2112010D01*
G01X11493949Y-2123440D01*
G01X11541701Y-1986280D02*
G01X11553131Y-1980692D01*
G01X11570403Y-1963420D01*
G01X11570403Y-2083562D01*
G01X11623997Y-2054860D02*
G01X11618155Y-2060702D01*
G01X11623997Y-2066290D01*
G01X11629585Y-2060702D01*
G01X11623997Y-2054860D01*
G01X11711627Y-1963420D02*
G01X11694609Y-1969262D01*
G01X11683179Y-1986280D01*
G01X11677337Y-2014982D01*
G01X11677337Y-2032000D01*
G01X11683179Y-2060702D01*
G01X11694609Y-2077720D01*
G01X11711627Y-2083562D01*
G01X11723057Y-2083562D01*
G01X11740329Y-2077720D01*
G01X11751759Y-2060702D01*
G01X11757347Y-2032000D01*
G01X11757347Y-2014982D01*
G01X11751759Y-1986280D01*
G01X11740329Y-1969262D01*
G01X11723057Y-1963420D01*
G01X11711627Y-1963420D01*
G01X11810941Y-1992122D02*
G01X11810941Y-1986280D01*
G01X11816529Y-1974850D01*
G01X11822371Y-1969262D01*
G01X11833801Y-1963420D01*
G01X11856661Y-1963420D01*
G01X11868091Y-1969262D01*
G01X11873679Y-1974850D01*
G01X11879521Y-1986280D01*
G01X11879521Y-1997710D01*
G01X11873679Y-2009140D01*
G01X11862249Y-2026412D01*
G01X11805099Y-2083562D01*
G01X11885109Y-2083562D01*
G01X11932861Y-1986280D02*
G01X11944291Y-1980692D01*
G01X11961563Y-1963420D01*
G01X11961563Y-2083562D01*
G01X12009315Y-2003552D02*
G01X12072307Y-2083562D01*
G01X12072307Y-2003552D02*
G01X12009315Y-2083562D01*
G01X12120059Y-1986280D02*
G01X12131489Y-1980692D01*
G01X12148761Y-1963420D01*
G01X12148761Y-2083562D01*
G01X12202355Y-2054860D02*
G01X12196513Y-2060702D01*
G01X12202355Y-2066290D01*
G01X12207943Y-2060702D01*
G01X12202355Y-2054860D01*
G01X12289985Y-1963420D02*
G01X12272967Y-1969262D01*
G01X12261537Y-1986280D01*
G01X12255695Y-2014982D01*
G01X12255695Y-2032000D01*
G01X12261537Y-2060702D01*
G01X12272967Y-2077720D01*
G01X12289985Y-2083562D01*
G01X12301415Y-2083562D01*
G01X12318687Y-2077720D01*
G01X12330117Y-2060702D01*
G01X12335705Y-2032000D01*
G01X12335705Y-2014982D01*
G01X12330117Y-1986280D01*
G01X12318687Y-1969262D01*
G01X12301415Y-1963420D01*
G01X12289985Y-1963420D01*
G01X12389299Y-1992122D02*
G01X12389299Y-1986280D01*
G01X12394887Y-1974850D01*
G01X12400729Y-1969262D01*
G01X12412159Y-1963420D01*
G01X12435019Y-1963420D01*
G01X12446449Y-1969262D01*
G01X12452037Y-1974850D01*
G01X12457879Y-1986280D01*
G01X12457879Y-1997710D01*
G01X12452037Y-2009140D01*
G01X12440607Y-2026412D01*
G01X12383457Y-2083562D01*
G01X12463467Y-2083562D01*
G01X12511219Y-1986280D02*
G01X12522649Y-1980692D01*
G01X12539921Y-1963420D01*
G01X12539921Y-2083562D01*
G01X12587673Y-2003552D02*
G01X12587673Y-2083562D01*
G01X12587673Y-2026412D02*
G01X12604945Y-2009140D01*
G01X12616375Y-2003552D01*
G01X12633393Y-2003552D01*
G01X12644823Y-2009140D01*
G01X12650665Y-2026412D01*
G01X12650665Y-2083562D01*
G01X12650665Y-2026412D02*
G01X12667683Y-2009140D01*
G01X12679113Y-2003552D01*
G01X12696385Y-2003552D01*
G01X12707815Y-2009140D01*
G01X12713403Y-2026412D01*
G01X12713403Y-2083562D01*
G01X12761155Y-2003552D02*
G01X12761155Y-2083562D01*
G01X12761155Y-2026412D02*
G01X12778427Y-2009140D01*
G01X12789857Y-2003552D01*
G01X12806875Y-2003552D01*
G01X12818305Y-2009140D01*
G01X12824147Y-2026412D01*
G01X12824147Y-2083562D01*
G01X12824147Y-2026412D02*
G01X12841165Y-2009140D01*
G01X12852595Y-2003552D01*
G01X12869867Y-2003552D01*
G01X12881297Y-2009140D01*
G01X12886885Y-2026412D01*
G01X12886885Y-2083562D01*
G01X12934637Y-1940560D02*
G01X12946067Y-1951990D01*
G01X12957497Y-1969262D01*
G01X12968927Y-1992122D01*
G01X12974769Y-2020570D01*
G01X12974769Y-2043430D01*
G01X12968927Y-2072132D01*
G01X12957497Y-2094992D01*
G01X12946067Y-2112010D01*
G01X12934637Y-2123440D01*
G01X13946210Y-1963420D02*
G01X13946210Y-2083562D01*
G01X13946210Y-1963420D02*
G01X13997772Y-1963420D01*
G01X14014790Y-1969262D01*
G01X14020632Y-1974850D01*
G01X14026220Y-1986280D01*
G01X14026220Y-2003552D01*
G01X14020632Y-2014982D01*
G01X14014790Y-2020570D01*
G01X13997772Y-2026412D01*
G01X13946210Y-2026412D01*
G01X14114104Y-1963420D02*
G01X14114104Y-2083562D01*
G01X14073972Y-1963420D02*
G01X14153982Y-1963420D01*
G01X14201734Y-1963420D02*
G01X14201734Y-2083562D01*
G01X14281744Y-1963420D02*
G01X14281744Y-2083562D01*
G01X14201734Y-2020570D02*
G01X14281744Y-2020570D01*
G01X15407618Y-1963420D02*
G01X15407618Y-2083562D01*
G01X15407618Y-1963420D02*
G01X15459180Y-1963420D01*
G01X15476198Y-1969262D01*
G01X15482040Y-1974850D01*
G01X15487628Y-1986280D01*
G01X15487628Y-1997710D01*
G01X15482040Y-2009140D01*
G01X15476198Y-2014982D01*
G01X15459180Y-2020570D01*
G01X15407618Y-2020570D01*
G01X15447750Y-2020570D02*
G01X15487628Y-2083562D01*
G01X15564082Y-2003552D02*
G01X15552652Y-2009140D01*
G01X15541222Y-2020570D01*
G01X15535380Y-2037842D01*
G01X15535380Y-2049272D01*
G01X15541222Y-2066290D01*
G01X15552652Y-2077720D01*
G01X15564082Y-2083562D01*
G01X15581100Y-2083562D01*
G01X15592530Y-2077720D01*
G01X15603960Y-2066290D01*
G01X15609802Y-2049272D01*
G01X15609802Y-2037842D01*
G01X15603960Y-2020570D01*
G01X15592530Y-2009140D01*
G01X15581100Y-2003552D01*
G01X15564082Y-2003552D01*
G01X15657554Y-2003552D02*
G01X15657554Y-2060702D01*
G01X15663396Y-2077720D01*
G01X15674826Y-2083562D01*
G01X15691844Y-2083562D01*
G01X15703274Y-2077720D01*
G01X15720546Y-2060702D01*
G01X15720546Y-2003552D02*
G01X15720546Y-2083562D01*
G01X15768298Y-2003552D02*
G01X15768298Y-2083562D01*
G01X15768298Y-2026412D02*
G01X15785570Y-2009140D01*
G01X15797000Y-2003552D01*
G01X15814018Y-2003552D01*
G01X15825448Y-2009140D01*
G01X15831290Y-2026412D01*
G01X15831290Y-2083562D01*
G01X15947622Y-1963420D02*
G01X15947622Y-2083562D01*
G01X15947622Y-2020570D02*
G01X15936192Y-2009140D01*
G01X15924762Y-2003552D01*
G01X15907744Y-2003552D01*
G01X15896314Y-2009140D01*
G01X15884884Y-2020570D01*
G01X15879042Y-2037842D01*
G01X15879042Y-2049272D01*
G01X15884884Y-2066290D01*
G01X15896314Y-2077720D01*
G01X15907744Y-2083562D01*
G01X15924762Y-2083562D01*
G01X15936192Y-2077720D01*
G01X15947622Y-2066290D01*
G01X16838799Y-1963420D02*
G01X16838799Y-2083562D01*
G01X16838799Y-1963420D02*
G01X16890361Y-1963420D01*
G01X16907379Y-1969262D01*
G01X16913221Y-1974850D01*
G01X16918809Y-1986280D01*
G01X16918809Y-2003552D01*
G01X16913221Y-2014982D01*
G01X16907379Y-2020570D01*
G01X16890361Y-2026412D01*
G01X16838799Y-2026412D01*
G01X17035141Y-2003552D02*
G01X17035141Y-2083562D01*
G01X17035141Y-2020570D02*
G01X17023711Y-2009140D01*
G01X17012281Y-2003552D01*
G01X16995263Y-2003552D01*
G01X16983833Y-2009140D01*
G01X16972403Y-2020570D01*
G01X16966561Y-2037842D01*
G01X16966561Y-2049272D01*
G01X16972403Y-2066290D01*
G01X16983833Y-2077720D01*
G01X16995263Y-2083562D01*
G01X17012281Y-2083562D01*
G01X17023711Y-2077720D01*
G01X17035141Y-2066290D01*
G01X17151473Y-1963420D02*
G01X17151473Y-2083562D01*
G01X17151473Y-2020570D02*
G01X17140043Y-2009140D01*
G01X17128613Y-2003552D01*
G01X17111595Y-2003552D01*
G01X17100165Y-2009140D01*
G01X17088735Y-2020570D01*
G01X17082893Y-2037842D01*
G01X17082893Y-2049272D01*
G01X17088735Y-2066290D01*
G01X17100165Y-2077720D01*
G01X17111595Y-2083562D01*
G01X17128613Y-2083562D01*
G01X17140043Y-2077720D01*
G01X17151473Y-2066290D01*
G01X18507978Y-1963420D02*
G01X18507978Y-2083562D01*
G01X18507978Y-1963420D02*
G01X18559540Y-1963420D01*
G01X18576558Y-1969262D01*
G01X18582400Y-1974850D01*
G01X18587988Y-1986280D01*
G01X18587988Y-1997710D01*
G01X18582400Y-2009140D01*
G01X18576558Y-2014982D01*
G01X18559540Y-2020570D01*
G01X18507978Y-2020570D01*
G01X18548110Y-2020570D02*
G01X18587988Y-2083562D01*
G01X18664442Y-2003552D02*
G01X18653012Y-2009140D01*
G01X18641582Y-2020570D01*
G01X18635740Y-2037842D01*
G01X18635740Y-2049272D01*
G01X18641582Y-2066290D01*
G01X18653012Y-2077720D01*
G01X18664442Y-2083562D01*
G01X18681460Y-2083562D01*
G01X18692890Y-2077720D01*
G01X18704320Y-2066290D01*
G01X18710162Y-2049272D01*
G01X18710162Y-2037842D01*
G01X18704320Y-2020570D01*
G01X18692890Y-2009140D01*
G01X18681460Y-2003552D01*
G01X18664442Y-2003552D01*
G01X18757914Y-2003552D02*
G01X18757914Y-2060702D01*
G01X18763756Y-2077720D01*
G01X18775186Y-2083562D01*
G01X18792204Y-2083562D01*
G01X18803634Y-2077720D01*
G01X18820906Y-2060702D01*
G01X18820906Y-2003552D02*
G01X18820906Y-2083562D01*
G01X18868658Y-2003552D02*
G01X18868658Y-2083562D01*
G01X18868658Y-2026412D02*
G01X18885930Y-2009140D01*
G01X18897360Y-2003552D01*
G01X18914378Y-2003552D01*
G01X18925808Y-2009140D01*
G01X18931650Y-2026412D01*
G01X18931650Y-2083562D01*
G01X19047982Y-1963420D02*
G01X19047982Y-2083562D01*
G01X19047982Y-2020570D02*
G01X19036552Y-2009140D01*
G01X19025122Y-2003552D01*
G01X19008104Y-2003552D01*
G01X18996674Y-2009140D01*
G01X18985244Y-2020570D01*
G01X18979402Y-2037842D01*
G01X18979402Y-2049272D01*
G01X18985244Y-2066290D01*
G01X18996674Y-2077720D01*
G01X19008104Y-2083562D01*
G01X19025122Y-2083562D01*
G01X19036552Y-2077720D01*
G01X19047982Y-2066290D01*
G01X20467479Y-1963420D02*
G01X20467479Y-2083562D01*
G01X20427347Y-1963420D02*
G01X20507357Y-1963420D01*
G01X20583811Y-2003552D02*
G01X20572381Y-2009140D01*
G01X20560951Y-2020570D01*
G01X20555109Y-2037842D01*
G01X20555109Y-2049272D01*
G01X20560951Y-2066290D01*
G01X20572381Y-2077720D01*
G01X20583811Y-2083562D01*
G01X20600829Y-2083562D01*
G01X20612259Y-2077720D01*
G01X20623689Y-2066290D01*
G01X20629531Y-2049272D01*
G01X20629531Y-2037842D01*
G01X20623689Y-2020570D01*
G01X20612259Y-2009140D01*
G01X20600829Y-2003552D01*
G01X20583811Y-2003552D01*
G01X20677283Y-2003552D02*
G01X20677283Y-2123440D01*
G01X20677283Y-2020570D02*
G01X20688713Y-2009140D01*
G01X20700143Y-2003552D01*
G01X20717415Y-2003552D01*
G01X20728845Y-2009140D01*
G01X20740275Y-2020570D01*
G01X20745863Y-2037842D01*
G01X20745863Y-2049272D01*
G01X20740275Y-2066290D01*
G01X20728845Y-2077720D01*
G01X20717415Y-2083562D01*
G01X20700143Y-2083562D01*
G01X20688713Y-2077720D01*
G01X20677283Y-2066290D01*
G01X20921631Y-1963420D02*
G01X20921631Y-2083562D01*
G01X20921631Y-2083562D02*
G01X20990211Y-2083562D01*
G01X21106543Y-2003552D02*
G01X21106543Y-2083562D01*
G01X21106543Y-2020570D02*
G01X21095113Y-2009140D01*
G01X21083683Y-2003552D01*
G01X21066665Y-2003552D01*
G01X21055235Y-2009140D01*
G01X21043805Y-2020570D01*
G01X21037963Y-2037842D01*
G01X21037963Y-2049272D01*
G01X21043805Y-2066290D01*
G01X21055235Y-2077720D01*
G01X21066665Y-2083562D01*
G01X21083683Y-2083562D01*
G01X21095113Y-2077720D01*
G01X21106543Y-2066290D01*
G01X21160137Y-2003552D02*
G01X21194427Y-2083562D01*
G01X21228717Y-2003552D02*
G01X21194427Y-2083562D01*
G01X21182997Y-2106422D01*
G01X21171567Y-2117852D01*
G01X21160137Y-2123440D01*
G01X21154295Y-2123440D01*
G01X21276469Y-2037842D02*
G01X21345049Y-2037842D01*
G01X21345049Y-2026412D01*
G01X21339461Y-2014982D01*
G01X21333619Y-2009140D01*
G01X21322189Y-2003552D01*
G01X21305171Y-2003552D01*
G01X21293741Y-2009140D01*
G01X21282311Y-2020570D01*
G01X21276469Y-2037842D01*
G01X21276469Y-2049272D01*
G01X21282311Y-2066290D01*
G01X21293741Y-2077720D01*
G01X21305171Y-2083562D01*
G01X21322189Y-2083562D01*
G01X21333619Y-2077720D01*
G01X21345049Y-2066290D01*
G01X21392801Y-2003552D02*
G01X21392801Y-2083562D01*
G01X21392801Y-2037842D02*
G01X21398643Y-2020570D01*
G01X21410073Y-2009140D01*
G01X21421503Y-2003552D01*
G01X21438521Y-2003552D01*
G01X21486273Y-2032000D02*
G01X21589143Y-2032000D01*
G01X21636895Y-1963420D02*
G01X21636895Y-2083562D01*
G01X21636895Y-1963420D02*
G01X21688457Y-1963420D01*
G01X21705475Y-1969262D01*
G01X21711317Y-1974850D01*
G01X21716905Y-1986280D01*
G01X21716905Y-1997710D01*
G01X21711317Y-2009140D01*
G01X21705475Y-2014982D01*
G01X21688457Y-2020570D01*
G01X21636895Y-2020570D02*
G01X21688457Y-2020570D01*
G01X21705475Y-2026412D01*
G01X21711317Y-2032000D01*
G01X21716905Y-2043430D01*
G01X21716905Y-2060702D01*
G01X21711317Y-2072132D01*
G01X21705475Y-2077720D01*
G01X21688457Y-2083562D01*
G01X21636895Y-2083562D01*
G01X21793359Y-2003552D02*
G01X21781929Y-2009140D01*
G01X21770499Y-2020570D01*
G01X21764657Y-2037842D01*
G01X21764657Y-2049272D01*
G01X21770499Y-2066290D01*
G01X21781929Y-2077720D01*
G01X21793359Y-2083562D01*
G01X21810377Y-2083562D01*
G01X21821807Y-2077720D01*
G01X21833237Y-2066290D01*
G01X21839079Y-2049272D01*
G01X21839079Y-2037842D01*
G01X21833237Y-2020570D01*
G01X21821807Y-2009140D01*
G01X21810377Y-2003552D01*
G01X21793359Y-2003552D01*
G01X21904103Y-1963420D02*
G01X21904103Y-2060702D01*
G01X21909691Y-2077720D01*
G01X21921121Y-2083562D01*
G01X21932551Y-2083562D01*
G01X21886831Y-2003552D02*
G01X21926963Y-2003552D01*
G01X21997575Y-1963420D02*
G01X21997575Y-2060702D01*
G01X22003163Y-2077720D01*
G01X22014593Y-2083562D01*
G01X22026023Y-2083562D01*
G01X21980303Y-2003552D02*
G01X22020435Y-2003552D01*
G01X22102477Y-2003552D02*
G01X22091047Y-2009140D01*
G01X22079617Y-2020570D01*
G01X22073775Y-2037842D01*
G01X22073775Y-2049272D01*
G01X22079617Y-2066290D01*
G01X22091047Y-2077720D01*
G01X22102477Y-2083562D01*
G01X22119495Y-2083562D01*
G01X22130925Y-2077720D01*
G01X22142355Y-2066290D01*
G01X22148197Y-2049272D01*
G01X22148197Y-2037842D01*
G01X22142355Y-2020570D01*
G01X22130925Y-2009140D01*
G01X22119495Y-2003552D01*
G01X22102477Y-2003552D01*
G01X22195949Y-2003552D02*
G01X22195949Y-2083562D01*
G01X22195949Y-2026412D02*
G01X22213221Y-2009140D01*
G01X22224651Y-2003552D01*
G01X22241669Y-2003552D01*
G01X22253099Y-2009140D01*
G01X22258941Y-2026412D01*
G01X22258941Y-2083562D01*
G01X22258941Y-2026412D02*
G01X22275959Y-2009140D01*
G01X22287389Y-2003552D01*
G01X22304661Y-2003552D01*
G01X22316091Y-2009140D01*
G01X22321679Y-2026412D01*
G01X22321679Y-2083562D01*
G01X22497447Y-1963420D02*
G01X22497447Y-2083562D01*
G01X22497447Y-2083562D02*
G01X22566027Y-2083562D01*
G01X22682359Y-2003552D02*
G01X22682359Y-2083562D01*
G01X22682359Y-2020570D02*
G01X22670929Y-2009140D01*
G01X22659499Y-2003552D01*
G01X22642481Y-2003552D01*
G01X22631051Y-2009140D01*
G01X22619621Y-2020570D01*
G01X22613779Y-2037842D01*
G01X22613779Y-2049272D01*
G01X22619621Y-2066290D01*
G01X22631051Y-2077720D01*
G01X22642481Y-2083562D01*
G01X22659499Y-2083562D01*
G01X22670929Y-2077720D01*
G01X22682359Y-2066290D01*
G01X22735953Y-2003552D02*
G01X22770243Y-2083562D01*
G01X22804533Y-2003552D02*
G01X22770243Y-2083562D01*
G01X22758813Y-2106422D01*
G01X22747383Y-2117852D01*
G01X22735953Y-2123440D01*
G01X22730111Y-2123440D01*
G01X22852285Y-2037842D02*
G01X22920865Y-2037842D01*
G01X22920865Y-2026412D01*
G01X22915277Y-2014982D01*
G01X22909435Y-2009140D01*
G01X22898005Y-2003552D01*
G01X22880987Y-2003552D01*
G01X22869557Y-2009140D01*
G01X22858127Y-2020570D01*
G01X22852285Y-2037842D01*
G01X22852285Y-2049272D01*
G01X22858127Y-2066290D01*
G01X22869557Y-2077720D01*
G01X22880987Y-2083562D01*
G01X22898005Y-2083562D01*
G01X22909435Y-2077720D01*
G01X22920865Y-2066290D01*
G01X22968617Y-2003552D02*
G01X22968617Y-2083562D01*
G01X22968617Y-2037842D02*
G01X22974459Y-2020570D01*
G01X22985889Y-2009140D01*
G01X22997319Y-2003552D01*
G01X23014337Y-2003552D01*
G01X8809024Y-2543991D02*
G01X8751874Y-2624001D01*
G01X8837726Y-2624001D01*
G01X8809024Y-2543991D02*
G01X8809024Y-2664133D01*
G01X10166037Y-2566851D02*
G01X10177467Y-2561263D01*
G01X10194739Y-2543991D01*
G01X10194739Y-2664133D01*
G01X10248333Y-2572693D02*
G01X10248333Y-2566851D01*
G01X10253921Y-2555421D01*
G01X10259763Y-2549833D01*
G01X10271193Y-2543991D01*
G01X10294053Y-2543991D01*
G01X10305483Y-2549833D01*
G01X10311071Y-2555421D01*
G01X10316913Y-2566851D01*
G01X10316913Y-2578281D01*
G01X10311071Y-2589711D01*
G01X10299641Y-2606983D01*
G01X10242491Y-2664133D01*
G01X10322501Y-2664133D01*
G01X10376095Y-2635431D02*
G01X10370253Y-2641273D01*
G01X10376095Y-2646861D01*
G01X10381683Y-2641273D01*
G01X10376095Y-2635431D01*
G01X10463725Y-2543991D02*
G01X10446707Y-2549833D01*
G01X10435277Y-2566851D01*
G01X10429435Y-2595553D01*
G01X10429435Y-2612571D01*
G01X10435277Y-2641273D01*
G01X10446707Y-2658291D01*
G01X10463725Y-2664133D01*
G01X10475155Y-2664133D01*
G01X10492427Y-2658291D01*
G01X10503857Y-2641273D01*
G01X10509445Y-2612571D01*
G01X10509445Y-2595553D01*
G01X10503857Y-2566851D01*
G01X10492427Y-2549833D01*
G01X10475155Y-2543991D01*
G01X10463725Y-2543991D01*
G01X10557197Y-2584123D02*
G01X10557197Y-2664133D01*
G01X10557197Y-2606983D02*
G01X10574469Y-2589711D01*
G01X10585899Y-2584123D01*
G01X10602917Y-2584123D01*
G01X10614347Y-2589711D01*
G01X10620189Y-2606983D01*
G01X10620189Y-2664133D01*
G01X10620189Y-2606983D02*
G01X10637207Y-2589711D01*
G01X10648637Y-2584123D01*
G01X10665909Y-2584123D01*
G01X10677339Y-2589711D01*
G01X10682927Y-2606983D01*
G01X10682927Y-2664133D01*
G01X10730679Y-2543991D02*
G01X10736521Y-2549833D01*
G01X10742109Y-2543991D01*
G01X10736521Y-2538403D01*
G01X10730679Y-2543991D01*
G01X10736521Y-2584123D02*
G01X10736521Y-2664133D01*
G01X10789861Y-2543991D02*
G01X10789861Y-2664133D01*
G01X10877745Y-2521131D02*
G01X10866315Y-2532561D01*
G01X10854885Y-2549833D01*
G01X10843455Y-2572693D01*
G01X10837613Y-2601141D01*
G01X10837613Y-2624001D01*
G01X10843455Y-2652703D01*
G01X10854885Y-2675563D01*
G01X10866315Y-2692581D01*
G01X10877745Y-2704011D01*
G01X10959787Y-2543991D02*
G01X10942769Y-2549833D01*
G01X10931339Y-2566851D01*
G01X10925497Y-2595553D01*
G01X10925497Y-2612571D01*
G01X10931339Y-2641273D01*
G01X10942769Y-2658291D01*
G01X10959787Y-2664133D01*
G01X10971217Y-2664133D01*
G01X10988489Y-2658291D01*
G01X10999919Y-2641273D01*
G01X11005507Y-2612571D01*
G01X11005507Y-2595553D01*
G01X10999919Y-2566851D01*
G01X10988489Y-2549833D01*
G01X10971217Y-2543991D01*
G01X10959787Y-2543991D01*
G01X11059101Y-2635431D02*
G01X11053259Y-2641273D01*
G01X11059101Y-2646861D01*
G01X11064689Y-2641273D01*
G01X11059101Y-2635431D01*
G01X11123871Y-2543991D02*
G01X11186863Y-2543991D01*
G01X11152573Y-2589711D01*
G01X11169591Y-2589711D01*
G01X11181021Y-2595553D01*
G01X11186863Y-2601141D01*
G01X11192451Y-2618413D01*
G01X11192451Y-2629843D01*
G01X11186863Y-2646861D01*
G01X11175433Y-2658291D01*
G01X11158161Y-2664133D01*
G01X11141143Y-2664133D01*
G01X11123871Y-2658291D01*
G01X11118283Y-2652703D01*
G01X11112441Y-2641273D01*
G01X11274493Y-2543991D02*
G01X11257475Y-2549833D01*
G01X11246045Y-2566851D01*
G01X11240203Y-2595553D01*
G01X11240203Y-2612571D01*
G01X11246045Y-2641273D01*
G01X11257475Y-2658291D01*
G01X11274493Y-2664133D01*
G01X11285923Y-2664133D01*
G01X11303195Y-2658291D01*
G01X11314625Y-2641273D01*
G01X11320213Y-2612571D01*
G01X11320213Y-2595553D01*
G01X11314625Y-2566851D01*
G01X11303195Y-2549833D01*
G01X11285923Y-2543991D01*
G01X11274493Y-2543991D01*
G01X11436545Y-2543991D02*
G01X11379395Y-2543991D01*
G01X11373807Y-2595553D01*
G01X11379395Y-2589711D01*
G01X11396667Y-2584123D01*
G01X11413685Y-2584123D01*
G01X11430957Y-2589711D01*
G01X11442387Y-2601141D01*
G01X11447975Y-2618413D01*
G01X11447975Y-2629843D01*
G01X11442387Y-2646861D01*
G01X11430957Y-2658291D01*
G01X11413685Y-2664133D01*
G01X11396667Y-2664133D01*
G01X11379395Y-2658291D01*
G01X11373807Y-2652703D01*
G01X11367965Y-2641273D01*
G01X11495727Y-2584123D02*
G01X11495727Y-2664133D01*
G01X11495727Y-2606983D02*
G01X11512999Y-2589711D01*
G01X11524429Y-2584123D01*
G01X11541447Y-2584123D01*
G01X11552877Y-2589711D01*
G01X11558719Y-2606983D01*
G01X11558719Y-2664133D01*
G01X11558719Y-2606983D02*
G01X11575737Y-2589711D01*
G01X11587167Y-2584123D01*
G01X11604439Y-2584123D01*
G01X11615869Y-2589711D01*
G01X11621457Y-2606983D01*
G01X11621457Y-2664133D01*
G01X11669209Y-2584123D02*
G01X11669209Y-2664133D01*
G01X11669209Y-2606983D02*
G01X11686481Y-2589711D01*
G01X11697911Y-2584123D01*
G01X11714929Y-2584123D01*
G01X11726359Y-2589711D01*
G01X11732201Y-2606983D01*
G01X11732201Y-2664133D01*
G01X11732201Y-2606983D02*
G01X11749219Y-2589711D01*
G01X11760649Y-2584123D01*
G01X11777921Y-2584123D01*
G01X11789351Y-2589711D01*
G01X11794939Y-2606983D01*
G01X11794939Y-2664133D01*
G01X11842691Y-2521131D02*
G01X11854121Y-2532561D01*
G01X11865551Y-2549833D01*
G01X11876981Y-2572693D01*
G01X11882823Y-2601141D01*
G01X11882823Y-2624001D01*
G01X11876981Y-2652703D01*
G01X11865551Y-2675563D01*
G01X11854121Y-2692581D01*
G01X11842691Y-2704011D01*
G01X13946210Y-2543991D02*
G01X13946210Y-2664133D01*
G01X13946210Y-2543991D02*
G01X13997772Y-2543991D01*
G01X14014790Y-2549833D01*
G01X14020632Y-2555421D01*
G01X14026220Y-2566851D01*
G01X14026220Y-2584123D01*
G01X14020632Y-2595553D01*
G01X14014790Y-2601141D01*
G01X13997772Y-2606983D01*
G01X13946210Y-2606983D01*
G01X14114104Y-2543991D02*
G01X14114104Y-2664133D01*
G01X14073972Y-2543991D02*
G01X14153982Y-2543991D01*
G01X14201734Y-2543991D02*
G01X14201734Y-2664133D01*
G01X14281744Y-2543991D02*
G01X14281744Y-2664133D01*
G01X14201734Y-2601141D02*
G01X14281744Y-2601141D01*
G01X15407618Y-2543991D02*
G01X15407618Y-2664133D01*
G01X15407618Y-2543991D02*
G01X15459180Y-2543991D01*
G01X15476198Y-2549833D01*
G01X15482040Y-2555421D01*
G01X15487628Y-2566851D01*
G01X15487628Y-2578281D01*
G01X15482040Y-2589711D01*
G01X15476198Y-2595553D01*
G01X15459180Y-2601141D01*
G01X15407618Y-2601141D01*
G01X15447750Y-2601141D02*
G01X15487628Y-2664133D01*
G01X15564082Y-2584123D02*
G01X15552652Y-2589711D01*
G01X15541222Y-2601141D01*
G01X15535380Y-2618413D01*
G01X15535380Y-2629843D01*
G01X15541222Y-2646861D01*
G01X15552652Y-2658291D01*
G01X15564082Y-2664133D01*
G01X15581100Y-2664133D01*
G01X15592530Y-2658291D01*
G01X15603960Y-2646861D01*
G01X15609802Y-2629843D01*
G01X15609802Y-2618413D01*
G01X15603960Y-2601141D01*
G01X15592530Y-2589711D01*
G01X15581100Y-2584123D01*
G01X15564082Y-2584123D01*
G01X15657554Y-2584123D02*
G01X15657554Y-2641273D01*
G01X15663396Y-2658291D01*
G01X15674826Y-2664133D01*
G01X15691844Y-2664133D01*
G01X15703274Y-2658291D01*
G01X15720546Y-2641273D01*
G01X15720546Y-2584123D02*
G01X15720546Y-2664133D01*
G01X15768298Y-2584123D02*
G01X15768298Y-2664133D01*
G01X15768298Y-2606983D02*
G01X15785570Y-2589711D01*
G01X15797000Y-2584123D01*
G01X15814018Y-2584123D01*
G01X15825448Y-2589711D01*
G01X15831290Y-2606983D01*
G01X15831290Y-2664133D01*
G01X15947622Y-2543991D02*
G01X15947622Y-2664133D01*
G01X15947622Y-2601141D02*
G01X15936192Y-2589711D01*
G01X15924762Y-2584123D01*
G01X15907744Y-2584123D01*
G01X15896314Y-2589711D01*
G01X15884884Y-2601141D01*
G01X15879042Y-2618413D01*
G01X15879042Y-2629843D01*
G01X15884884Y-2646861D01*
G01X15896314Y-2658291D01*
G01X15907744Y-2664133D01*
G01X15924762Y-2664133D01*
G01X15936192Y-2658291D01*
G01X15947622Y-2646861D01*
G01X16838799Y-2543991D02*
G01X16884519Y-2664133D01*
G01X16930239Y-2543991D02*
G01X16884519Y-2664133D01*
G01X16977991Y-2543991D02*
G01X16983833Y-2549833D01*
G01X16989421Y-2543991D01*
G01X16983833Y-2538403D01*
G01X16977991Y-2543991D01*
G01X16983833Y-2584123D02*
G01X16983833Y-2664133D01*
G01X17105753Y-2584123D02*
G01X17105753Y-2664133D01*
G01X17105753Y-2601141D02*
G01X17094323Y-2589711D01*
G01X17082893Y-2584123D01*
G01X17065875Y-2584123D01*
G01X17054445Y-2589711D01*
G01X17043015Y-2601141D01*
G01X17037173Y-2618413D01*
G01X17037173Y-2629843D01*
G01X17043015Y-2646861D01*
G01X17054445Y-2658291D01*
G01X17065875Y-2664133D01*
G01X17082893Y-2664133D01*
G01X17094323Y-2658291D01*
G01X17105753Y-2646861D01*
G01X20467479Y-2543991D02*
G01X20467479Y-2664133D01*
G01X20427347Y-2543991D02*
G01X20507357Y-2543991D01*
G01X20583811Y-2584123D02*
G01X20572381Y-2589711D01*
G01X20560951Y-2601141D01*
G01X20555109Y-2618413D01*
G01X20555109Y-2629843D01*
G01X20560951Y-2646861D01*
G01X20572381Y-2658291D01*
G01X20583811Y-2664133D01*
G01X20600829Y-2664133D01*
G01X20612259Y-2658291D01*
G01X20623689Y-2646861D01*
G01X20629531Y-2629843D01*
G01X20629531Y-2618413D01*
G01X20623689Y-2601141D01*
G01X20612259Y-2589711D01*
G01X20600829Y-2584123D01*
G01X20583811Y-2584123D01*
G01X20677283Y-2584123D02*
G01X20677283Y-2704011D01*
G01X20677283Y-2601141D02*
G01X20688713Y-2589711D01*
G01X20700143Y-2584123D01*
G01X20717415Y-2584123D01*
G01X20728845Y-2589711D01*
G01X20740275Y-2601141D01*
G01X20745863Y-2618413D01*
G01X20745863Y-2629843D01*
G01X20740275Y-2646861D01*
G01X20728845Y-2658291D01*
G01X20717415Y-2664133D01*
G01X20700143Y-2664133D01*
G01X20688713Y-2658291D01*
G01X20677283Y-2646861D01*
G01X20921631Y-2543991D02*
G01X20921631Y-2664133D01*
G01X20921631Y-2664133D02*
G01X20990211Y-2664133D01*
G01X21106543Y-2584123D02*
G01X21106543Y-2664133D01*
G01X21106543Y-2601141D02*
G01X21095113Y-2589711D01*
G01X21083683Y-2584123D01*
G01X21066665Y-2584123D01*
G01X21055235Y-2589711D01*
G01X21043805Y-2601141D01*
G01X21037963Y-2618413D01*
G01X21037963Y-2629843D01*
G01X21043805Y-2646861D01*
G01X21055235Y-2658291D01*
G01X21066665Y-2664133D01*
G01X21083683Y-2664133D01*
G01X21095113Y-2658291D01*
G01X21106543Y-2646861D01*
G01X21160137Y-2584123D02*
G01X21194427Y-2664133D01*
G01X21228717Y-2584123D02*
G01X21194427Y-2664133D01*
G01X21182997Y-2686993D01*
G01X21171567Y-2698423D01*
G01X21160137Y-2704011D01*
G01X21154295Y-2704011D01*
G01X21276469Y-2618413D02*
G01X21345049Y-2618413D01*
G01X21345049Y-2606983D01*
G01X21339461Y-2595553D01*
G01X21333619Y-2589711D01*
G01X21322189Y-2584123D01*
G01X21305171Y-2584123D01*
G01X21293741Y-2589711D01*
G01X21282311Y-2601141D01*
G01X21276469Y-2618413D01*
G01X21276469Y-2629843D01*
G01X21282311Y-2646861D01*
G01X21293741Y-2658291D01*
G01X21305171Y-2664133D01*
G01X21322189Y-2664133D01*
G01X21333619Y-2658291D01*
G01X21345049Y-2646861D01*
G01X21392801Y-2584123D02*
G01X21392801Y-2664133D01*
G01X21392801Y-2618413D02*
G01X21398643Y-2601141D01*
G01X21410073Y-2589711D01*
G01X21421503Y-2584123D01*
G01X21438521Y-2584123D01*
G01X21486273Y-2612571D02*
G01X21589143Y-2612571D01*
G01X21636895Y-2543991D02*
G01X21636895Y-2664133D01*
G01X21636895Y-2543991D02*
G01X21688457Y-2543991D01*
G01X21705475Y-2549833D01*
G01X21711317Y-2555421D01*
G01X21716905Y-2566851D01*
G01X21716905Y-2578281D01*
G01X21711317Y-2589711D01*
G01X21705475Y-2595553D01*
G01X21688457Y-2601141D01*
G01X21636895Y-2601141D02*
G01X21688457Y-2601141D01*
G01X21705475Y-2606983D01*
G01X21711317Y-2612571D01*
G01X21716905Y-2624001D01*
G01X21716905Y-2641273D01*
G01X21711317Y-2652703D01*
G01X21705475Y-2658291D01*
G01X21688457Y-2664133D01*
G01X21636895Y-2664133D01*
G01X21793359Y-2584123D02*
G01X21781929Y-2589711D01*
G01X21770499Y-2601141D01*
G01X21764657Y-2618413D01*
G01X21764657Y-2629843D01*
G01X21770499Y-2646861D01*
G01X21781929Y-2658291D01*
G01X21793359Y-2664133D01*
G01X21810377Y-2664133D01*
G01X21821807Y-2658291D01*
G01X21833237Y-2646861D01*
G01X21839079Y-2629843D01*
G01X21839079Y-2618413D01*
G01X21833237Y-2601141D01*
G01X21821807Y-2589711D01*
G01X21810377Y-2584123D01*
G01X21793359Y-2584123D01*
G01X21904103Y-2543991D02*
G01X21904103Y-2641273D01*
G01X21909691Y-2658291D01*
G01X21921121Y-2664133D01*
G01X21932551Y-2664133D01*
G01X21886831Y-2584123D02*
G01X21926963Y-2584123D01*
G01X21997575Y-2543991D02*
G01X21997575Y-2641273D01*
G01X22003163Y-2658291D01*
G01X22014593Y-2664133D01*
G01X22026023Y-2664133D01*
G01X21980303Y-2584123D02*
G01X22020435Y-2584123D01*
G01X22102477Y-2584123D02*
G01X22091047Y-2589711D01*
G01X22079617Y-2601141D01*
G01X22073775Y-2618413D01*
G01X22073775Y-2629843D01*
G01X22079617Y-2646861D01*
G01X22091047Y-2658291D01*
G01X22102477Y-2664133D01*
G01X22119495Y-2664133D01*
G01X22130925Y-2658291D01*
G01X22142355Y-2646861D01*
G01X22148197Y-2629843D01*
G01X22148197Y-2618413D01*
G01X22142355Y-2601141D01*
G01X22130925Y-2589711D01*
G01X22119495Y-2584123D01*
G01X22102477Y-2584123D01*
G01X22195949Y-2584123D02*
G01X22195949Y-2664133D01*
G01X22195949Y-2606983D02*
G01X22213221Y-2589711D01*
G01X22224651Y-2584123D01*
G01X22241669Y-2584123D01*
G01X22253099Y-2589711D01*
G01X22258941Y-2606983D01*
G01X22258941Y-2664133D01*
G01X22258941Y-2606983D02*
G01X22275959Y-2589711D01*
G01X22287389Y-2584123D01*
G01X22304661Y-2584123D01*
G01X22316091Y-2589711D01*
G01X22321679Y-2606983D01*
G01X22321679Y-2664133D01*
G01X22497447Y-2543991D02*
G01X22497447Y-2664133D01*
G01X22497447Y-2664133D02*
G01X22566027Y-2664133D01*
G01X22682359Y-2584123D02*
G01X22682359Y-2664133D01*
G01X22682359Y-2601141D02*
G01X22670929Y-2589711D01*
G01X22659499Y-2584123D01*
G01X22642481Y-2584123D01*
G01X22631051Y-2589711D01*
G01X22619621Y-2601141D01*
G01X22613779Y-2618413D01*
G01X22613779Y-2629843D01*
G01X22619621Y-2646861D01*
G01X22631051Y-2658291D01*
G01X22642481Y-2664133D01*
G01X22659499Y-2664133D01*
G01X22670929Y-2658291D01*
G01X22682359Y-2646861D01*
G01X22735953Y-2584123D02*
G01X22770243Y-2664133D01*
G01X22804533Y-2584123D02*
G01X22770243Y-2664133D01*
G01X22758813Y-2686993D01*
G01X22747383Y-2698423D01*
G01X22735953Y-2704011D01*
G01X22730111Y-2704011D01*
G01X22852285Y-2618413D02*
G01X22920865Y-2618413D01*
G01X22920865Y-2606983D01*
G01X22915277Y-2595553D01*
G01X22909435Y-2589711D01*
G01X22898005Y-2584123D01*
G01X22880987Y-2584123D01*
G01X22869557Y-2589711D01*
G01X22858127Y-2601141D01*
G01X22852285Y-2618413D01*
G01X22852285Y-2629843D01*
G01X22858127Y-2646861D01*
G01X22869557Y-2658291D01*
G01X22880987Y-2664133D01*
G01X22898005Y-2664133D01*
G01X22909435Y-2658291D01*
G01X22920865Y-2646861D01*
G01X22968617Y-2584123D02*
G01X22968617Y-2664133D01*
G01X22968617Y-2618413D02*
G01X22974459Y-2601141D01*
G01X22985889Y-2589711D01*
G01X22997319Y-2584123D01*
G01X23014337Y-2584123D01*
G01X8809024Y-3124563D02*
G01X8751874Y-3204573D01*
G01X8837726Y-3204573D01*
G01X8809024Y-3124563D02*
G01X8809024Y-3244705D01*
G01X10223187Y-3124563D02*
G01X10166037Y-3204573D01*
G01X10251889Y-3204573D01*
G01X10223187Y-3124563D02*
G01X10223187Y-3244705D01*
G01X10311071Y-3124563D02*
G01X10374063Y-3124563D01*
G01X10339773Y-3170283D01*
G01X10356791Y-3170283D01*
G01X10368221Y-3176125D01*
G01X10374063Y-3181713D01*
G01X10379651Y-3198985D01*
G01X10379651Y-3210415D01*
G01X10374063Y-3227433D01*
G01X10362633Y-3238863D01*
G01X10345361Y-3244705D01*
G01X10328343Y-3244705D01*
G01X10311071Y-3238863D01*
G01X10305483Y-3233275D01*
G01X10299641Y-3221845D01*
G01X10433245Y-3216003D02*
G01X10427403Y-3221845D01*
G01X10433245Y-3227433D01*
G01X10438833Y-3221845D01*
G01X10433245Y-3216003D01*
G01X10498015Y-3124563D02*
G01X10561007Y-3124563D01*
G01X10526717Y-3170283D01*
G01X10543735Y-3170283D01*
G01X10555165Y-3176125D01*
G01X10561007Y-3181713D01*
G01X10566595Y-3198985D01*
G01X10566595Y-3210415D01*
G01X10561007Y-3227433D01*
G01X10549577Y-3238863D01*
G01X10532305Y-3244705D01*
G01X10515287Y-3244705D01*
G01X10498015Y-3238863D01*
G01X10492427Y-3233275D01*
G01X10486585Y-3221845D01*
G01X10614347Y-3164695D02*
G01X10677339Y-3244705D01*
G01X10677339Y-3164695D02*
G01X10614347Y-3244705D01*
G01X10782241Y-3124563D02*
G01X10725091Y-3204573D01*
G01X10810943Y-3204573D01*
G01X10782241Y-3124563D02*
G01X10782241Y-3244705D01*
G01X10870125Y-3124563D02*
G01X10933117Y-3124563D01*
G01X10898827Y-3170283D01*
G01X10915845Y-3170283D01*
G01X10927275Y-3176125D01*
G01X10933117Y-3181713D01*
G01X10938705Y-3198985D01*
G01X10938705Y-3210415D01*
G01X10933117Y-3227433D01*
G01X10921687Y-3238863D01*
G01X10904415Y-3244705D01*
G01X10887397Y-3244705D01*
G01X10870125Y-3238863D01*
G01X10864537Y-3233275D01*
G01X10858695Y-3221845D01*
G01X10992299Y-3216003D02*
G01X10986457Y-3221845D01*
G01X10992299Y-3227433D01*
G01X10997887Y-3221845D01*
G01X10992299Y-3216003D01*
G01X11057069Y-3124563D02*
G01X11120061Y-3124563D01*
G01X11085771Y-3170283D01*
G01X11102789Y-3170283D01*
G01X11114219Y-3176125D01*
G01X11120061Y-3181713D01*
G01X11125649Y-3198985D01*
G01X11125649Y-3210415D01*
G01X11120061Y-3227433D01*
G01X11108631Y-3238863D01*
G01X11091359Y-3244705D01*
G01X11074341Y-3244705D01*
G01X11057069Y-3238863D01*
G01X11051481Y-3233275D01*
G01X11045639Y-3221845D01*
G01X11173401Y-3164695D02*
G01X11173401Y-3244705D01*
G01X11173401Y-3187555D02*
G01X11190673Y-3170283D01*
G01X11202103Y-3164695D01*
G01X11219121Y-3164695D01*
G01X11230551Y-3170283D01*
G01X11236393Y-3187555D01*
G01X11236393Y-3244705D01*
G01X11236393Y-3187555D02*
G01X11253411Y-3170283D01*
G01X11264841Y-3164695D01*
G01X11282113Y-3164695D01*
G01X11293543Y-3170283D01*
G01X11299131Y-3187555D01*
G01X11299131Y-3244705D01*
G01X11346883Y-3124563D02*
G01X11352725Y-3130405D01*
G01X11358313Y-3124563D01*
G01X11352725Y-3118975D01*
G01X11346883Y-3124563D01*
G01X11352725Y-3164695D02*
G01X11352725Y-3244705D01*
G01X11406065Y-3124563D02*
G01X11406065Y-3244705D01*
G01X11493949Y-3101703D02*
G01X11482519Y-3113133D01*
G01X11471089Y-3130405D01*
G01X11459659Y-3153265D01*
G01X11453817Y-3181713D01*
G01X11453817Y-3204573D01*
G01X11459659Y-3233275D01*
G01X11471089Y-3256135D01*
G01X11482519Y-3273153D01*
G01X11493949Y-3284583D01*
G01X11541701Y-3147423D02*
G01X11553131Y-3141835D01*
G01X11570403Y-3124563D01*
G01X11570403Y-3244705D01*
G01X11623997Y-3216003D02*
G01X11618155Y-3221845D01*
G01X11623997Y-3227433D01*
G01X11629585Y-3221845D01*
G01X11623997Y-3216003D01*
G01X11677337Y-3147423D02*
G01X11688767Y-3141835D01*
G01X11706039Y-3124563D01*
G01X11706039Y-3244705D01*
G01X11788081Y-3124563D02*
G01X11771063Y-3130405D01*
G01X11759633Y-3147423D01*
G01X11753791Y-3176125D01*
G01X11753791Y-3193143D01*
G01X11759633Y-3221845D01*
G01X11771063Y-3238863D01*
G01X11788081Y-3244705D01*
G01X11799511Y-3244705D01*
G01X11816783Y-3238863D01*
G01X11828213Y-3221845D01*
G01X11833801Y-3193143D01*
G01X11833801Y-3176125D01*
G01X11828213Y-3147423D01*
G01X11816783Y-3130405D01*
G01X11799511Y-3124563D01*
G01X11788081Y-3124563D01*
G01X11915843Y-3124563D02*
G01X11898825Y-3130405D01*
G01X11887395Y-3147423D01*
G01X11881553Y-3176125D01*
G01X11881553Y-3193143D01*
G01X11887395Y-3221845D01*
G01X11898825Y-3238863D01*
G01X11915843Y-3244705D01*
G01X11927273Y-3244705D01*
G01X11944545Y-3238863D01*
G01X11955975Y-3221845D01*
G01X11961563Y-3193143D01*
G01X11961563Y-3176125D01*
G01X11955975Y-3147423D01*
G01X11944545Y-3130405D01*
G01X11927273Y-3124563D01*
G01X11915843Y-3124563D01*
G01X12009315Y-3164695D02*
G01X12072307Y-3244705D01*
G01X12072307Y-3164695D02*
G01X12009315Y-3244705D01*
G01X12120059Y-3147423D02*
G01X12131489Y-3141835D01*
G01X12148761Y-3124563D01*
G01X12148761Y-3244705D01*
G01X12202355Y-3216003D02*
G01X12196513Y-3221845D01*
G01X12202355Y-3227433D01*
G01X12207943Y-3221845D01*
G01X12202355Y-3216003D01*
G01X12255695Y-3147423D02*
G01X12267125Y-3141835D01*
G01X12284397Y-3124563D01*
G01X12284397Y-3244705D01*
G01X12366439Y-3124563D02*
G01X12349421Y-3130405D01*
G01X12337991Y-3147423D01*
G01X12332149Y-3176125D01*
G01X12332149Y-3193143D01*
G01X12337991Y-3221845D01*
G01X12349421Y-3238863D01*
G01X12366439Y-3244705D01*
G01X12377869Y-3244705D01*
G01X12395141Y-3238863D01*
G01X12406571Y-3221845D01*
G01X12412159Y-3193143D01*
G01X12412159Y-3176125D01*
G01X12406571Y-3147423D01*
G01X12395141Y-3130405D01*
G01X12377869Y-3124563D01*
G01X12366439Y-3124563D01*
G01X12494201Y-3124563D02*
G01X12477183Y-3130405D01*
G01X12465753Y-3147423D01*
G01X12459911Y-3176125D01*
G01X12459911Y-3193143D01*
G01X12465753Y-3221845D01*
G01X12477183Y-3238863D01*
G01X12494201Y-3244705D01*
G01X12505631Y-3244705D01*
G01X12522903Y-3238863D01*
G01X12534333Y-3221845D01*
G01X12539921Y-3193143D01*
G01X12539921Y-3176125D01*
G01X12534333Y-3147423D01*
G01X12522903Y-3130405D01*
G01X12505631Y-3124563D01*
G01X12494201Y-3124563D01*
G01X12587673Y-3164695D02*
G01X12587673Y-3244705D01*
G01X12587673Y-3187555D02*
G01X12604945Y-3170283D01*
G01X12616375Y-3164695D01*
G01X12633393Y-3164695D01*
G01X12644823Y-3170283D01*
G01X12650665Y-3187555D01*
G01X12650665Y-3244705D01*
G01X12650665Y-3187555D02*
G01X12667683Y-3170283D01*
G01X12679113Y-3164695D01*
G01X12696385Y-3164695D01*
G01X12707815Y-3170283D01*
G01X12713403Y-3187555D01*
G01X12713403Y-3244705D01*
G01X12761155Y-3164695D02*
G01X12761155Y-3244705D01*
G01X12761155Y-3187555D02*
G01X12778427Y-3170283D01*
G01X12789857Y-3164695D01*
G01X12806875Y-3164695D01*
G01X12818305Y-3170283D01*
G01X12824147Y-3187555D01*
G01X12824147Y-3244705D01*
G01X12824147Y-3187555D02*
G01X12841165Y-3170283D01*
G01X12852595Y-3164695D01*
G01X12869867Y-3164695D01*
G01X12881297Y-3170283D01*
G01X12886885Y-3187555D01*
G01X12886885Y-3244705D01*
G01X12934637Y-3101703D02*
G01X12946067Y-3113133D01*
G01X12957497Y-3130405D01*
G01X12968927Y-3153265D01*
G01X12974769Y-3181713D01*
G01X12974769Y-3204573D01*
G01X12968927Y-3233275D01*
G01X12957497Y-3256135D01*
G01X12946067Y-3273153D01*
G01X12934637Y-3284583D01*
G01X13946210Y-3124563D02*
G01X13946210Y-3244705D01*
G01X13946210Y-3124563D02*
G01X13997772Y-3124563D01*
G01X14014790Y-3130405D01*
G01X14020632Y-3135993D01*
G01X14026220Y-3147423D01*
G01X14026220Y-3164695D01*
G01X14020632Y-3176125D01*
G01X14014790Y-3181713D01*
G01X13997772Y-3187555D01*
G01X13946210Y-3187555D01*
G01X14114104Y-3124563D02*
G01X14114104Y-3244705D01*
G01X14073972Y-3124563D02*
G01X14153982Y-3124563D01*
G01X14201734Y-3124563D02*
G01X14201734Y-3244705D01*
G01X14281744Y-3124563D02*
G01X14281744Y-3244705D01*
G01X14201734Y-3181713D02*
G01X14281744Y-3181713D01*
G01X15407618Y-3124563D02*
G01X15407618Y-3244705D01*
G01X15407618Y-3124563D02*
G01X15459180Y-3124563D01*
G01X15476198Y-3130405D01*
G01X15482040Y-3135993D01*
G01X15487628Y-3147423D01*
G01X15487628Y-3158853D01*
G01X15482040Y-3170283D01*
G01X15476198Y-3176125D01*
G01X15459180Y-3181713D01*
G01X15407618Y-3181713D01*
G01X15447750Y-3181713D02*
G01X15487628Y-3244705D01*
G01X15564082Y-3164695D02*
G01X15552652Y-3170283D01*
G01X15541222Y-3181713D01*
G01X15535380Y-3198985D01*
G01X15535380Y-3210415D01*
G01X15541222Y-3227433D01*
G01X15552652Y-3238863D01*
G01X15564082Y-3244705D01*
G01X15581100Y-3244705D01*
G01X15592530Y-3238863D01*
G01X15603960Y-3227433D01*
G01X15609802Y-3210415D01*
G01X15609802Y-3198985D01*
G01X15603960Y-3181713D01*
G01X15592530Y-3170283D01*
G01X15581100Y-3164695D01*
G01X15564082Y-3164695D01*
G01X15657554Y-3164695D02*
G01X15657554Y-3221845D01*
G01X15663396Y-3238863D01*
G01X15674826Y-3244705D01*
G01X15691844Y-3244705D01*
G01X15703274Y-3238863D01*
G01X15720546Y-3221845D01*
G01X15720546Y-3164695D02*
G01X15720546Y-3244705D01*
G01X15768298Y-3164695D02*
G01X15768298Y-3244705D01*
G01X15768298Y-3187555D02*
G01X15785570Y-3170283D01*
G01X15797000Y-3164695D01*
G01X15814018Y-3164695D01*
G01X15825448Y-3170283D01*
G01X15831290Y-3187555D01*
G01X15831290Y-3244705D01*
G01X15947622Y-3124563D02*
G01X15947622Y-3244705D01*
G01X15947622Y-3181713D02*
G01X15936192Y-3170283D01*
G01X15924762Y-3164695D01*
G01X15907744Y-3164695D01*
G01X15896314Y-3170283D01*
G01X15884884Y-3181713D01*
G01X15879042Y-3198985D01*
G01X15879042Y-3210415D01*
G01X15884884Y-3227433D01*
G01X15896314Y-3238863D01*
G01X15907744Y-3244705D01*
G01X15924762Y-3244705D01*
G01X15936192Y-3238863D01*
G01X15947622Y-3227433D01*
G01X16838799Y-3124563D02*
G01X16838799Y-3244705D01*
G01X16838799Y-3124563D02*
G01X16890361Y-3124563D01*
G01X16907379Y-3130405D01*
G01X16913221Y-3135993D01*
G01X16918809Y-3147423D01*
G01X16918809Y-3164695D01*
G01X16913221Y-3176125D01*
G01X16907379Y-3181713D01*
G01X16890361Y-3187555D01*
G01X16838799Y-3187555D01*
G01X17035141Y-3164695D02*
G01X17035141Y-3244705D01*
G01X17035141Y-3181713D02*
G01X17023711Y-3170283D01*
G01X17012281Y-3164695D01*
G01X16995263Y-3164695D01*
G01X16983833Y-3170283D01*
G01X16972403Y-3181713D01*
G01X16966561Y-3198985D01*
G01X16966561Y-3210415D01*
G01X16972403Y-3227433D01*
G01X16983833Y-3238863D01*
G01X16995263Y-3244705D01*
G01X17012281Y-3244705D01*
G01X17023711Y-3238863D01*
G01X17035141Y-3227433D01*
G01X17151473Y-3124563D02*
G01X17151473Y-3244705D01*
G01X17151473Y-3181713D02*
G01X17140043Y-3170283D01*
G01X17128613Y-3164695D01*
G01X17111595Y-3164695D01*
G01X17100165Y-3170283D01*
G01X17088735Y-3181713D01*
G01X17082893Y-3198985D01*
G01X17082893Y-3210415D01*
G01X17088735Y-3227433D01*
G01X17100165Y-3238863D01*
G01X17111595Y-3244705D01*
G01X17128613Y-3244705D01*
G01X17140043Y-3238863D01*
G01X17151473Y-3227433D01*
G01X18548110Y-3101703D02*
G01X18536680Y-3113133D01*
G01X18525250Y-3130405D01*
G01X18513820Y-3153265D01*
G01X18507978Y-3181713D01*
G01X18507978Y-3204573D01*
G01X18513820Y-3233275D01*
G01X18525250Y-3256135D01*
G01X18536680Y-3273153D01*
G01X18548110Y-3284583D01*
G01X18595862Y-3124563D02*
G01X18595862Y-3244705D01*
G01X18595862Y-3124563D02*
G01X18641582Y-3244705D01*
G01X18687302Y-3124563D02*
G01X18641582Y-3244705D01*
G01X18687302Y-3124563D02*
G01X18687302Y-3244705D01*
G01X18735054Y-3124563D02*
G01X18740896Y-3130405D01*
G01X18746484Y-3124563D01*
G01X18740896Y-3118975D01*
G01X18735054Y-3124563D01*
G01X18740896Y-3164695D02*
G01X18740896Y-3244705D01*
G01X18794236Y-3164695D02*
G01X18857228Y-3244705D01*
G01X18857228Y-3164695D02*
G01X18794236Y-3244705D01*
G01X18904980Y-3198985D02*
G01X18973560Y-3198985D01*
G01X18973560Y-3187555D01*
G01X18967972Y-3176125D01*
G01X18962130Y-3170283D01*
G01X18950700Y-3164695D01*
G01X18933682Y-3164695D01*
G01X18922252Y-3170283D01*
G01X18910822Y-3181713D01*
G01X18904980Y-3198985D01*
G01X18904980Y-3210415D01*
G01X18910822Y-3227433D01*
G01X18922252Y-3238863D01*
G01X18933682Y-3244705D01*
G01X18950700Y-3244705D01*
G01X18962130Y-3238863D01*
G01X18973560Y-3227433D01*
G01X19089892Y-3124563D02*
G01X19089892Y-3244705D01*
G01X19089892Y-3181713D02*
G01X19078462Y-3170283D01*
G01X19067032Y-3164695D01*
G01X19050014Y-3164695D01*
G01X19038584Y-3170283D01*
G01X19027154Y-3181713D01*
G01X19021312Y-3198985D01*
G01X19021312Y-3210415D01*
G01X19027154Y-3227433D01*
G01X19038584Y-3238863D01*
G01X19050014Y-3244705D01*
G01X19067032Y-3244705D01*
G01X19078462Y-3238863D01*
G01X19089892Y-3227433D01*
G01X19137644Y-3101703D02*
G01X19149074Y-3113133D01*
G01X19160504Y-3130405D01*
G01X19171934Y-3153265D01*
G01X19177776Y-3181713D01*
G01X19177776Y-3204573D01*
G01X19171934Y-3233275D01*
G01X19160504Y-3256135D01*
G01X19149074Y-3273153D01*
G01X19137644Y-3284583D01*
G01X20467479Y-3124563D02*
G01X20467479Y-3244705D01*
G01X20427347Y-3124563D02*
G01X20507357Y-3124563D01*
G01X20583811Y-3164695D02*
G01X20572381Y-3170283D01*
G01X20560951Y-3181713D01*
G01X20555109Y-3198985D01*
G01X20555109Y-3210415D01*
G01X20560951Y-3227433D01*
G01X20572381Y-3238863D01*
G01X20583811Y-3244705D01*
G01X20600829Y-3244705D01*
G01X20612259Y-3238863D01*
G01X20623689Y-3227433D01*
G01X20629531Y-3210415D01*
G01X20629531Y-3198985D01*
G01X20623689Y-3181713D01*
G01X20612259Y-3170283D01*
G01X20600829Y-3164695D01*
G01X20583811Y-3164695D01*
G01X20677283Y-3164695D02*
G01X20677283Y-3284583D01*
G01X20677283Y-3181713D02*
G01X20688713Y-3170283D01*
G01X20700143Y-3164695D01*
G01X20717415Y-3164695D01*
G01X20728845Y-3170283D01*
G01X20740275Y-3181713D01*
G01X20745863Y-3198985D01*
G01X20745863Y-3210415D01*
G01X20740275Y-3227433D01*
G01X20728845Y-3238863D01*
G01X20717415Y-3244705D01*
G01X20700143Y-3244705D01*
G01X20688713Y-3238863D01*
G01X20677283Y-3227433D01*
G01X20921631Y-3124563D02*
G01X20921631Y-3244705D01*
G01X20921631Y-3244705D02*
G01X20990211Y-3244705D01*
G01X21106543Y-3164695D02*
G01X21106543Y-3244705D01*
G01X21106543Y-3181713D02*
G01X21095113Y-3170283D01*
G01X21083683Y-3164695D01*
G01X21066665Y-3164695D01*
G01X21055235Y-3170283D01*
G01X21043805Y-3181713D01*
G01X21037963Y-3198985D01*
G01X21037963Y-3210415D01*
G01X21043805Y-3227433D01*
G01X21055235Y-3238863D01*
G01X21066665Y-3244705D01*
G01X21083683Y-3244705D01*
G01X21095113Y-3238863D01*
G01X21106543Y-3227433D01*
G01X21160137Y-3164695D02*
G01X21194427Y-3244705D01*
G01X21228717Y-3164695D02*
G01X21194427Y-3244705D01*
G01X21182997Y-3267565D01*
G01X21171567Y-3278995D01*
G01X21160137Y-3284583D01*
G01X21154295Y-3284583D01*
G01X21276469Y-3198985D02*
G01X21345049Y-3198985D01*
G01X21345049Y-3187555D01*
G01X21339461Y-3176125D01*
G01X21333619Y-3170283D01*
G01X21322189Y-3164695D01*
G01X21305171Y-3164695D01*
G01X21293741Y-3170283D01*
G01X21282311Y-3181713D01*
G01X21276469Y-3198985D01*
G01X21276469Y-3210415D01*
G01X21282311Y-3227433D01*
G01X21293741Y-3238863D01*
G01X21305171Y-3244705D01*
G01X21322189Y-3244705D01*
G01X21333619Y-3238863D01*
G01X21345049Y-3227433D01*
G01X21392801Y-3164695D02*
G01X21392801Y-3244705D01*
G01X21392801Y-3198985D02*
G01X21398643Y-3181713D01*
G01X21410073Y-3170283D01*
G01X21421503Y-3164695D01*
G01X21438521Y-3164695D01*
G01X21486273Y-3193143D02*
G01X21589143Y-3193143D01*
G01X21636895Y-3124563D02*
G01X21636895Y-3244705D01*
G01X21636895Y-3124563D02*
G01X21688457Y-3124563D01*
G01X21705475Y-3130405D01*
G01X21711317Y-3135993D01*
G01X21716905Y-3147423D01*
G01X21716905Y-3158853D01*
G01X21711317Y-3170283D01*
G01X21705475Y-3176125D01*
G01X21688457Y-3181713D01*
G01X21636895Y-3181713D02*
G01X21688457Y-3181713D01*
G01X21705475Y-3187555D01*
G01X21711317Y-3193143D01*
G01X21716905Y-3204573D01*
G01X21716905Y-3221845D01*
G01X21711317Y-3233275D01*
G01X21705475Y-3238863D01*
G01X21688457Y-3244705D01*
G01X21636895Y-3244705D01*
G01X21793359Y-3164695D02*
G01X21781929Y-3170283D01*
G01X21770499Y-3181713D01*
G01X21764657Y-3198985D01*
G01X21764657Y-3210415D01*
G01X21770499Y-3227433D01*
G01X21781929Y-3238863D01*
G01X21793359Y-3244705D01*
G01X21810377Y-3244705D01*
G01X21821807Y-3238863D01*
G01X21833237Y-3227433D01*
G01X21839079Y-3210415D01*
G01X21839079Y-3198985D01*
G01X21833237Y-3181713D01*
G01X21821807Y-3170283D01*
G01X21810377Y-3164695D01*
G01X21793359Y-3164695D01*
G01X21904103Y-3124563D02*
G01X21904103Y-3221845D01*
G01X21909691Y-3238863D01*
G01X21921121Y-3244705D01*
G01X21932551Y-3244705D01*
G01X21886831Y-3164695D02*
G01X21926963Y-3164695D01*
G01X21997575Y-3124563D02*
G01X21997575Y-3221845D01*
G01X22003163Y-3238863D01*
G01X22014593Y-3244705D01*
G01X22026023Y-3244705D01*
G01X21980303Y-3164695D02*
G01X22020435Y-3164695D01*
G01X22102477Y-3164695D02*
G01X22091047Y-3170283D01*
G01X22079617Y-3181713D01*
G01X22073775Y-3198985D01*
G01X22073775Y-3210415D01*
G01X22079617Y-3227433D01*
G01X22091047Y-3238863D01*
G01X22102477Y-3244705D01*
G01X22119495Y-3244705D01*
G01X22130925Y-3238863D01*
G01X22142355Y-3227433D01*
G01X22148197Y-3210415D01*
G01X22148197Y-3198985D01*
G01X22142355Y-3181713D01*
G01X22130925Y-3170283D01*
G01X22119495Y-3164695D01*
G01X22102477Y-3164695D01*
G01X22195949Y-3164695D02*
G01X22195949Y-3244705D01*
G01X22195949Y-3187555D02*
G01X22213221Y-3170283D01*
G01X22224651Y-3164695D01*
G01X22241669Y-3164695D01*
G01X22253099Y-3170283D01*
G01X22258941Y-3187555D01*
G01X22258941Y-3244705D01*
G01X22258941Y-3187555D02*
G01X22275959Y-3170283D01*
G01X22287389Y-3164695D01*
G01X22304661Y-3164695D01*
G01X22316091Y-3170283D01*
G01X22321679Y-3187555D01*
G01X22321679Y-3244705D01*
G01X22497447Y-3124563D02*
G01X22497447Y-3244705D01*
G01X22497447Y-3244705D02*
G01X22566027Y-3244705D01*
G01X22682359Y-3164695D02*
G01X22682359Y-3244705D01*
G01X22682359Y-3181713D02*
G01X22670929Y-3170283D01*
G01X22659499Y-3164695D01*
G01X22642481Y-3164695D01*
G01X22631051Y-3170283D01*
G01X22619621Y-3181713D01*
G01X22613779Y-3198985D01*
G01X22613779Y-3210415D01*
G01X22619621Y-3227433D01*
G01X22631051Y-3238863D01*
G01X22642481Y-3244705D01*
G01X22659499Y-3244705D01*
G01X22670929Y-3238863D01*
G01X22682359Y-3227433D01*
G01X22735953Y-3164695D02*
G01X22770243Y-3244705D01*
G01X22804533Y-3164695D02*
G01X22770243Y-3244705D01*
G01X22758813Y-3267565D01*
G01X22747383Y-3278995D01*
G01X22735953Y-3284583D01*
G01X22730111Y-3284583D01*
G01X22852285Y-3198985D02*
G01X22920865Y-3198985D01*
G01X22920865Y-3187555D01*
G01X22915277Y-3176125D01*
G01X22909435Y-3170283D01*
G01X22898005Y-3164695D01*
G01X22880987Y-3164695D01*
G01X22869557Y-3170283D01*
G01X22858127Y-3181713D01*
G01X22852285Y-3198985D01*
G01X22852285Y-3210415D01*
G01X22858127Y-3227433D01*
G01X22869557Y-3238863D01*
G01X22880987Y-3244705D01*
G01X22898005Y-3244705D01*
G01X22909435Y-3238863D01*
G01X22920865Y-3227433D01*
G01X22968617Y-3164695D02*
G01X22968617Y-3244705D01*
G01X22968617Y-3198985D02*
G01X22974459Y-3181713D01*
G01X22985889Y-3170283D01*
G01X22997319Y-3164695D01*
G01X23014337Y-3164695D01*
G01X8763304Y-3705134D02*
G01X8826296Y-3705134D01*
G01X8792006Y-3750854D01*
G01X8809024Y-3750854D01*
G01X8820454Y-3756696D01*
G01X8826296Y-3762284D01*
G01X8831884Y-3779556D01*
G01X8831884Y-3790986D01*
G01X8826296Y-3808004D01*
G01X8814866Y-3819434D01*
G01X8797594Y-3825276D01*
G01X8780576Y-3825276D01*
G01X8763304Y-3819434D01*
G01X8757716Y-3813846D01*
G01X8751874Y-3802416D01*
G01X8913926Y-3705134D02*
G01X8896908Y-3710976D01*
G01X8885478Y-3727994D01*
G01X8879636Y-3756696D01*
G01X8879636Y-3773714D01*
G01X8885478Y-3802416D01*
G01X8896908Y-3819434D01*
G01X8913926Y-3825276D01*
G01X8925356Y-3825276D01*
G01X8942628Y-3819434D01*
G01X8954058Y-3802416D01*
G01X8959646Y-3773714D01*
G01X8959646Y-3756696D01*
G01X8954058Y-3727994D01*
G01X8942628Y-3710976D01*
G01X8925356Y-3705134D01*
G01X8913926Y-3705134D01*
G01X10177467Y-3705134D02*
G01X10240459Y-3705134D01*
G01X10206169Y-3750854D01*
G01X10223187Y-3750854D01*
G01X10234617Y-3756696D01*
G01X10240459Y-3762284D01*
G01X10246047Y-3779556D01*
G01X10246047Y-3790986D01*
G01X10240459Y-3808004D01*
G01X10229029Y-3819434D01*
G01X10211757Y-3825276D01*
G01X10194739Y-3825276D01*
G01X10177467Y-3819434D01*
G01X10171879Y-3813846D01*
G01X10166037Y-3802416D01*
G01X10362379Y-3722406D02*
G01X10356791Y-3710976D01*
G01X10339519Y-3705134D01*
G01X10328089Y-3705134D01*
G01X10311071Y-3710976D01*
G01X10299641Y-3727994D01*
G01X10293799Y-3756696D01*
G01X10293799Y-3785144D01*
G01X10299641Y-3808004D01*
G01X10311071Y-3819434D01*
G01X10328089Y-3825276D01*
G01X10333931Y-3825276D01*
G01X10350949Y-3819434D01*
G01X10362379Y-3808004D01*
G01X10368221Y-3790986D01*
G01X10368221Y-3785144D01*
G01X10362379Y-3768126D01*
G01X10350949Y-3756696D01*
G01X10333931Y-3750854D01*
G01X10328089Y-3750854D01*
G01X10311071Y-3756696D01*
G01X10299641Y-3768126D01*
G01X10293799Y-3785144D01*
G01X10421815Y-3796574D02*
G01X10415973Y-3802416D01*
G01X10421815Y-3808004D01*
G01X10427403Y-3802416D01*
G01X10421815Y-3796574D01*
G01X10509445Y-3705134D02*
G01X10492427Y-3710976D01*
G01X10480997Y-3727994D01*
G01X10475155Y-3756696D01*
G01X10475155Y-3773714D01*
G01X10480997Y-3802416D01*
G01X10492427Y-3819434D01*
G01X10509445Y-3825276D01*
G01X10520875Y-3825276D01*
G01X10538147Y-3819434D01*
G01X10549577Y-3802416D01*
G01X10555165Y-3773714D01*
G01X10555165Y-3756696D01*
G01X10549577Y-3727994D01*
G01X10538147Y-3710976D01*
G01X10520875Y-3705134D01*
G01X10509445Y-3705134D01*
G01X10602917Y-3745266D02*
G01X10665909Y-3825276D01*
G01X10665909Y-3745266D02*
G01X10602917Y-3825276D01*
G01X10725091Y-3705134D02*
G01X10788083Y-3705134D01*
G01X10753793Y-3750854D01*
G01X10770811Y-3750854D01*
G01X10782241Y-3756696D01*
G01X10788083Y-3762284D01*
G01X10793671Y-3779556D01*
G01X10793671Y-3790986D01*
G01X10788083Y-3808004D01*
G01X10776653Y-3819434D01*
G01X10759381Y-3825276D01*
G01X10742363Y-3825276D01*
G01X10725091Y-3819434D01*
G01X10719503Y-3813846D01*
G01X10713661Y-3802416D01*
G01X10910003Y-3722406D02*
G01X10904415Y-3710976D01*
G01X10887143Y-3705134D01*
G01X10875713Y-3705134D01*
G01X10858695Y-3710976D01*
G01X10847265Y-3727994D01*
G01X10841423Y-3756696D01*
G01X10841423Y-3785144D01*
G01X10847265Y-3808004D01*
G01X10858695Y-3819434D01*
G01X10875713Y-3825276D01*
G01X10881555Y-3825276D01*
G01X10898573Y-3819434D01*
G01X10910003Y-3808004D01*
G01X10915845Y-3790986D01*
G01X10915845Y-3785144D01*
G01X10910003Y-3768126D01*
G01X10898573Y-3756696D01*
G01X10881555Y-3750854D01*
G01X10875713Y-3750854D01*
G01X10858695Y-3756696D01*
G01X10847265Y-3768126D01*
G01X10841423Y-3785144D01*
G01X10969439Y-3796574D02*
G01X10963597Y-3802416D01*
G01X10969439Y-3808004D01*
G01X10975027Y-3802416D01*
G01X10969439Y-3796574D01*
G01X11057069Y-3705134D02*
G01X11040051Y-3710976D01*
G01X11028621Y-3727994D01*
G01X11022779Y-3756696D01*
G01X11022779Y-3773714D01*
G01X11028621Y-3802416D01*
G01X11040051Y-3819434D01*
G01X11057069Y-3825276D01*
G01X11068499Y-3825276D01*
G01X11085771Y-3819434D01*
G01X11097201Y-3802416D01*
G01X11102789Y-3773714D01*
G01X11102789Y-3756696D01*
G01X11097201Y-3727994D01*
G01X11085771Y-3710976D01*
G01X11068499Y-3705134D01*
G01X11057069Y-3705134D01*
G01X11150541Y-3745266D02*
G01X11150541Y-3825276D01*
G01X11150541Y-3768126D02*
G01X11167813Y-3750854D01*
G01X11179243Y-3745266D01*
G01X11196261Y-3745266D01*
G01X11207691Y-3750854D01*
G01X11213533Y-3768126D01*
G01X11213533Y-3825276D01*
G01X11213533Y-3768126D02*
G01X11230551Y-3750854D01*
G01X11241981Y-3745266D01*
G01X11259253Y-3745266D01*
G01X11270683Y-3750854D01*
G01X11276271Y-3768126D01*
G01X11276271Y-3825276D01*
G01X11324023Y-3705134D02*
G01X11329865Y-3710976D01*
G01X11335453Y-3705134D01*
G01X11329865Y-3699546D01*
G01X11324023Y-3705134D01*
G01X11329865Y-3745266D02*
G01X11329865Y-3825276D01*
G01X11383205Y-3705134D02*
G01X11383205Y-3825276D01*
G01X11471089Y-3682274D02*
G01X11459659Y-3693704D01*
G01X11448229Y-3710976D01*
G01X11436799Y-3733836D01*
G01X11430957Y-3762284D01*
G01X11430957Y-3785144D01*
G01X11436799Y-3813846D01*
G01X11448229Y-3836706D01*
G01X11459659Y-3853724D01*
G01X11471089Y-3865154D01*
G01X11553131Y-3705134D02*
G01X11536113Y-3710976D01*
G01X11524683Y-3727994D01*
G01X11518841Y-3756696D01*
G01X11518841Y-3773714D01*
G01X11524683Y-3802416D01*
G01X11536113Y-3819434D01*
G01X11553131Y-3825276D01*
G01X11564561Y-3825276D01*
G01X11581833Y-3819434D01*
G01X11593263Y-3802416D01*
G01X11598851Y-3773714D01*
G01X11598851Y-3756696D01*
G01X11593263Y-3727994D01*
G01X11581833Y-3710976D01*
G01X11564561Y-3705134D01*
G01X11553131Y-3705134D01*
G01X11652445Y-3796574D02*
G01X11646603Y-3802416D01*
G01X11652445Y-3808004D01*
G01X11658033Y-3802416D01*
G01X11652445Y-3796574D01*
G01X11780207Y-3745266D02*
G01X11774365Y-3762284D01*
G01X11762935Y-3773714D01*
G01X11745917Y-3779556D01*
G01X11740075Y-3779556D01*
G01X11723057Y-3773714D01*
G01X11711627Y-3762284D01*
G01X11705785Y-3745266D01*
G01X11705785Y-3739424D01*
G01X11711627Y-3722406D01*
G01X11723057Y-3710976D01*
G01X11740075Y-3705134D01*
G01X11745917Y-3705134D01*
G01X11762935Y-3710976D01*
G01X11774365Y-3722406D01*
G01X11780207Y-3745266D01*
G01X11780207Y-3773714D01*
G01X11774365Y-3802416D01*
G01X11762935Y-3819434D01*
G01X11745917Y-3825276D01*
G01X11734487Y-3825276D01*
G01X11717215Y-3819434D01*
G01X11711627Y-3808004D01*
G01X11827959Y-3727994D02*
G01X11839389Y-3722406D01*
G01X11856661Y-3705134D01*
G01X11856661Y-3825276D01*
G01X11961563Y-3705134D02*
G01X11904413Y-3785144D01*
G01X11990265Y-3785144D01*
G01X11961563Y-3705134D02*
G01X11961563Y-3825276D01*
G01X12038017Y-3745266D02*
G01X12101009Y-3825276D01*
G01X12101009Y-3745266D02*
G01X12038017Y-3825276D01*
G01X12183051Y-3705134D02*
G01X12166033Y-3710976D01*
G01X12154603Y-3727994D01*
G01X12148761Y-3756696D01*
G01X12148761Y-3773714D01*
G01X12154603Y-3802416D01*
G01X12166033Y-3819434D01*
G01X12183051Y-3825276D01*
G01X12194481Y-3825276D01*
G01X12211753Y-3819434D01*
G01X12223183Y-3802416D01*
G01X12228771Y-3773714D01*
G01X12228771Y-3756696D01*
G01X12223183Y-3727994D01*
G01X12211753Y-3710976D01*
G01X12194481Y-3705134D01*
G01X12183051Y-3705134D01*
G01X12282365Y-3796574D02*
G01X12276523Y-3802416D01*
G01X12282365Y-3808004D01*
G01X12287953Y-3802416D01*
G01X12282365Y-3796574D01*
G01X12410127Y-3745266D02*
G01X12404285Y-3762284D01*
G01X12392855Y-3773714D01*
G01X12375837Y-3779556D01*
G01X12369995Y-3779556D01*
G01X12352977Y-3773714D01*
G01X12341547Y-3762284D01*
G01X12335705Y-3745266D01*
G01X12335705Y-3739424D01*
G01X12341547Y-3722406D01*
G01X12352977Y-3710976D01*
G01X12369995Y-3705134D01*
G01X12375837Y-3705134D01*
G01X12392855Y-3710976D01*
G01X12404285Y-3722406D01*
G01X12410127Y-3745266D01*
G01X12410127Y-3773714D01*
G01X12404285Y-3802416D01*
G01X12392855Y-3819434D01*
G01X12375837Y-3825276D01*
G01X12364407Y-3825276D01*
G01X12347135Y-3819434D01*
G01X12341547Y-3808004D01*
G01X12457879Y-3727994D02*
G01X12469309Y-3722406D01*
G01X12486581Y-3705134D01*
G01X12486581Y-3825276D01*
G01X12591483Y-3705134D02*
G01X12534333Y-3785144D01*
G01X12620185Y-3785144D01*
G01X12591483Y-3705134D02*
G01X12591483Y-3825276D01*
G01X12667937Y-3745266D02*
G01X12667937Y-3825276D01*
G01X12667937Y-3768126D02*
G01X12685209Y-3750854D01*
G01X12696639Y-3745266D01*
G01X12713657Y-3745266D01*
G01X12725087Y-3750854D01*
G01X12730929Y-3768126D01*
G01X12730929Y-3825276D01*
G01X12730929Y-3768126D02*
G01X12747947Y-3750854D01*
G01X12759377Y-3745266D01*
G01X12776649Y-3745266D01*
G01X12788079Y-3750854D01*
G01X12793667Y-3768126D01*
G01X12793667Y-3825276D01*
G01X12841419Y-3745266D02*
G01X12841419Y-3825276D01*
G01X12841419Y-3768126D02*
G01X12858691Y-3750854D01*
G01X12870121Y-3745266D01*
G01X12887139Y-3745266D01*
G01X12898569Y-3750854D01*
G01X12904411Y-3768126D01*
G01X12904411Y-3825276D01*
G01X12904411Y-3768126D02*
G01X12921429Y-3750854D01*
G01X12932859Y-3745266D01*
G01X12950131Y-3745266D01*
G01X12961561Y-3750854D01*
G01X12967149Y-3768126D01*
G01X12967149Y-3825276D01*
G01X13014901Y-3682274D02*
G01X13026331Y-3693704D01*
G01X13037761Y-3710976D01*
G01X13049191Y-3733836D01*
G01X13055033Y-3762284D01*
G01X13055033Y-3785144D01*
G01X13049191Y-3813846D01*
G01X13037761Y-3836706D01*
G01X13026331Y-3853724D01*
G01X13014901Y-3865154D01*
G01X13946210Y-3705134D02*
G01X13946210Y-3825276D01*
G01X13946210Y-3705134D02*
G01X13997772Y-3705134D01*
G01X14014790Y-3710976D01*
G01X14020632Y-3716564D01*
G01X14026220Y-3727994D01*
G01X14026220Y-3745266D01*
G01X14020632Y-3756696D01*
G01X14014790Y-3762284D01*
G01X13997772Y-3768126D01*
G01X13946210Y-3768126D01*
G01X14114104Y-3705134D02*
G01X14114104Y-3825276D01*
G01X14073972Y-3705134D02*
G01X14153982Y-3705134D01*
G01X14201734Y-3705134D02*
G01X14201734Y-3825276D01*
G01X14281744Y-3705134D02*
G01X14281744Y-3825276D01*
G01X14201734Y-3762284D02*
G01X14281744Y-3762284D01*
G01X15407618Y-3705134D02*
G01X15407618Y-3825276D01*
G01X15407618Y-3705134D02*
G01X15459180Y-3705134D01*
G01X15476198Y-3710976D01*
G01X15482040Y-3716564D01*
G01X15487628Y-3727994D01*
G01X15487628Y-3739424D01*
G01X15482040Y-3750854D01*
G01X15476198Y-3756696D01*
G01X15459180Y-3762284D01*
G01X15407618Y-3762284D01*
G01X15447750Y-3762284D02*
G01X15487628Y-3825276D01*
G01X15564082Y-3745266D02*
G01X15552652Y-3750854D01*
G01X15541222Y-3762284D01*
G01X15535380Y-3779556D01*
G01X15535380Y-3790986D01*
G01X15541222Y-3808004D01*
G01X15552652Y-3819434D01*
G01X15564082Y-3825276D01*
G01X15581100Y-3825276D01*
G01X15592530Y-3819434D01*
G01X15603960Y-3808004D01*
G01X15609802Y-3790986D01*
G01X15609802Y-3779556D01*
G01X15603960Y-3762284D01*
G01X15592530Y-3750854D01*
G01X15581100Y-3745266D01*
G01X15564082Y-3745266D01*
G01X15657554Y-3745266D02*
G01X15657554Y-3802416D01*
G01X15663396Y-3819434D01*
G01X15674826Y-3825276D01*
G01X15691844Y-3825276D01*
G01X15703274Y-3819434D01*
G01X15720546Y-3802416D01*
G01X15720546Y-3745266D02*
G01X15720546Y-3825276D01*
G01X15768298Y-3745266D02*
G01X15768298Y-3825276D01*
G01X15768298Y-3768126D02*
G01X15785570Y-3750854D01*
G01X15797000Y-3745266D01*
G01X15814018Y-3745266D01*
G01X15825448Y-3750854D01*
G01X15831290Y-3768126D01*
G01X15831290Y-3825276D01*
G01X15947622Y-3705134D02*
G01X15947622Y-3825276D01*
G01X15947622Y-3762284D02*
G01X15936192Y-3750854D01*
G01X15924762Y-3745266D01*
G01X15907744Y-3745266D01*
G01X15896314Y-3750854D01*
G01X15884884Y-3762284D01*
G01X15879042Y-3779556D01*
G01X15879042Y-3790986D01*
G01X15884884Y-3808004D01*
G01X15896314Y-3819434D01*
G01X15907744Y-3825276D01*
G01X15924762Y-3825276D01*
G01X15936192Y-3819434D01*
G01X15947622Y-3808004D01*
G01X16838799Y-3705134D02*
G01X16838799Y-3825276D01*
G01X16838799Y-3705134D02*
G01X16890361Y-3705134D01*
G01X16907379Y-3710976D01*
G01X16913221Y-3716564D01*
G01X16918809Y-3727994D01*
G01X16918809Y-3745266D01*
G01X16913221Y-3756696D01*
G01X16907379Y-3762284D01*
G01X16890361Y-3768126D01*
G01X16838799Y-3768126D01*
G01X17035141Y-3745266D02*
G01X17035141Y-3825276D01*
G01X17035141Y-3762284D02*
G01X17023711Y-3750854D01*
G01X17012281Y-3745266D01*
G01X16995263Y-3745266D01*
G01X16983833Y-3750854D01*
G01X16972403Y-3762284D01*
G01X16966561Y-3779556D01*
G01X16966561Y-3790986D01*
G01X16972403Y-3808004D01*
G01X16983833Y-3819434D01*
G01X16995263Y-3825276D01*
G01X17012281Y-3825276D01*
G01X17023711Y-3819434D01*
G01X17035141Y-3808004D01*
G01X17151473Y-3705134D02*
G01X17151473Y-3825276D01*
G01X17151473Y-3762284D02*
G01X17140043Y-3750854D01*
G01X17128613Y-3745266D01*
G01X17111595Y-3745266D01*
G01X17100165Y-3750854D01*
G01X17088735Y-3762284D01*
G01X17082893Y-3779556D01*
G01X17082893Y-3790986D01*
G01X17088735Y-3808004D01*
G01X17100165Y-3819434D01*
G01X17111595Y-3825276D01*
G01X17128613Y-3825276D01*
G01X17140043Y-3819434D01*
G01X17151473Y-3808004D01*
G01X18548110Y-3682274D02*
G01X18536680Y-3693704D01*
G01X18525250Y-3710976D01*
G01X18513820Y-3733836D01*
G01X18507978Y-3762284D01*
G01X18507978Y-3785144D01*
G01X18513820Y-3813846D01*
G01X18525250Y-3836706D01*
G01X18536680Y-3853724D01*
G01X18548110Y-3865154D01*
G01X18595862Y-3705134D02*
G01X18595862Y-3825276D01*
G01X18595862Y-3705134D02*
G01X18641582Y-3825276D01*
G01X18687302Y-3705134D02*
G01X18641582Y-3825276D01*
G01X18687302Y-3705134D02*
G01X18687302Y-3825276D01*
G01X18735054Y-3705134D02*
G01X18740896Y-3710976D01*
G01X18746484Y-3705134D01*
G01X18740896Y-3699546D01*
G01X18735054Y-3705134D01*
G01X18740896Y-3745266D02*
G01X18740896Y-3825276D01*
G01X18794236Y-3745266D02*
G01X18857228Y-3825276D01*
G01X18857228Y-3745266D02*
G01X18794236Y-3825276D01*
G01X18904980Y-3779556D02*
G01X18973560Y-3779556D01*
G01X18973560Y-3768126D01*
G01X18967972Y-3756696D01*
G01X18962130Y-3750854D01*
G01X18950700Y-3745266D01*
G01X18933682Y-3745266D01*
G01X18922252Y-3750854D01*
G01X18910822Y-3762284D01*
G01X18904980Y-3779556D01*
G01X18904980Y-3790986D01*
G01X18910822Y-3808004D01*
G01X18922252Y-3819434D01*
G01X18933682Y-3825276D01*
G01X18950700Y-3825276D01*
G01X18962130Y-3819434D01*
G01X18973560Y-3808004D01*
G01X19089892Y-3705134D02*
G01X19089892Y-3825276D01*
G01X19089892Y-3762284D02*
G01X19078462Y-3750854D01*
G01X19067032Y-3745266D01*
G01X19050014Y-3745266D01*
G01X19038584Y-3750854D01*
G01X19027154Y-3762284D01*
G01X19021312Y-3779556D01*
G01X19021312Y-3790986D01*
G01X19027154Y-3808004D01*
G01X19038584Y-3819434D01*
G01X19050014Y-3825276D01*
G01X19067032Y-3825276D01*
G01X19078462Y-3819434D01*
G01X19089892Y-3808004D01*
G01X19137644Y-3682274D02*
G01X19149074Y-3693704D01*
G01X19160504Y-3710976D01*
G01X19171934Y-3733836D01*
G01X19177776Y-3762284D01*
G01X19177776Y-3785144D01*
G01X19171934Y-3813846D01*
G01X19160504Y-3836706D01*
G01X19149074Y-3853724D01*
G01X19137644Y-3865154D01*
G01X20467479Y-3705134D02*
G01X20467479Y-3825276D01*
G01X20427347Y-3705134D02*
G01X20507357Y-3705134D01*
G01X20583811Y-3745266D02*
G01X20572381Y-3750854D01*
G01X20560951Y-3762284D01*
G01X20555109Y-3779556D01*
G01X20555109Y-3790986D01*
G01X20560951Y-3808004D01*
G01X20572381Y-3819434D01*
G01X20583811Y-3825276D01*
G01X20600829Y-3825276D01*
G01X20612259Y-3819434D01*
G01X20623689Y-3808004D01*
G01X20629531Y-3790986D01*
G01X20629531Y-3779556D01*
G01X20623689Y-3762284D01*
G01X20612259Y-3750854D01*
G01X20600829Y-3745266D01*
G01X20583811Y-3745266D01*
G01X20677283Y-3745266D02*
G01X20677283Y-3865154D01*
G01X20677283Y-3762284D02*
G01X20688713Y-3750854D01*
G01X20700143Y-3745266D01*
G01X20717415Y-3745266D01*
G01X20728845Y-3750854D01*
G01X20740275Y-3762284D01*
G01X20745863Y-3779556D01*
G01X20745863Y-3790986D01*
G01X20740275Y-3808004D01*
G01X20728845Y-3819434D01*
G01X20717415Y-3825276D01*
G01X20700143Y-3825276D01*
G01X20688713Y-3819434D01*
G01X20677283Y-3808004D01*
G01X20921631Y-3705134D02*
G01X20921631Y-3825276D01*
G01X20921631Y-3825276D02*
G01X20990211Y-3825276D01*
G01X21106543Y-3745266D02*
G01X21106543Y-3825276D01*
G01X21106543Y-3762284D02*
G01X21095113Y-3750854D01*
G01X21083683Y-3745266D01*
G01X21066665Y-3745266D01*
G01X21055235Y-3750854D01*
G01X21043805Y-3762284D01*
G01X21037963Y-3779556D01*
G01X21037963Y-3790986D01*
G01X21043805Y-3808004D01*
G01X21055235Y-3819434D01*
G01X21066665Y-3825276D01*
G01X21083683Y-3825276D01*
G01X21095113Y-3819434D01*
G01X21106543Y-3808004D01*
G01X21160137Y-3745266D02*
G01X21194427Y-3825276D01*
G01X21228717Y-3745266D02*
G01X21194427Y-3825276D01*
G01X21182997Y-3848136D01*
G01X21171567Y-3859566D01*
G01X21160137Y-3865154D01*
G01X21154295Y-3865154D01*
G01X21276469Y-3779556D02*
G01X21345049Y-3779556D01*
G01X21345049Y-3768126D01*
G01X21339461Y-3756696D01*
G01X21333619Y-3750854D01*
G01X21322189Y-3745266D01*
G01X21305171Y-3745266D01*
G01X21293741Y-3750854D01*
G01X21282311Y-3762284D01*
G01X21276469Y-3779556D01*
G01X21276469Y-3790986D01*
G01X21282311Y-3808004D01*
G01X21293741Y-3819434D01*
G01X21305171Y-3825276D01*
G01X21322189Y-3825276D01*
G01X21333619Y-3819434D01*
G01X21345049Y-3808004D01*
G01X21392801Y-3745266D02*
G01X21392801Y-3825276D01*
G01X21392801Y-3779556D02*
G01X21398643Y-3762284D01*
G01X21410073Y-3750854D01*
G01X21421503Y-3745266D01*
G01X21438521Y-3745266D01*
G01X21486273Y-3773714D02*
G01X21589143Y-3773714D01*
G01X21636895Y-3705134D02*
G01X21636895Y-3825276D01*
G01X21636895Y-3705134D02*
G01X21688457Y-3705134D01*
G01X21705475Y-3710976D01*
G01X21711317Y-3716564D01*
G01X21716905Y-3727994D01*
G01X21716905Y-3739424D01*
G01X21711317Y-3750854D01*
G01X21705475Y-3756696D01*
G01X21688457Y-3762284D01*
G01X21636895Y-3762284D02*
G01X21688457Y-3762284D01*
G01X21705475Y-3768126D01*
G01X21711317Y-3773714D01*
G01X21716905Y-3785144D01*
G01X21716905Y-3802416D01*
G01X21711317Y-3813846D01*
G01X21705475Y-3819434D01*
G01X21688457Y-3825276D01*
G01X21636895Y-3825276D01*
G01X21793359Y-3745266D02*
G01X21781929Y-3750854D01*
G01X21770499Y-3762284D01*
G01X21764657Y-3779556D01*
G01X21764657Y-3790986D01*
G01X21770499Y-3808004D01*
G01X21781929Y-3819434D01*
G01X21793359Y-3825276D01*
G01X21810377Y-3825276D01*
G01X21821807Y-3819434D01*
G01X21833237Y-3808004D01*
G01X21839079Y-3790986D01*
G01X21839079Y-3779556D01*
G01X21833237Y-3762284D01*
G01X21821807Y-3750854D01*
G01X21810377Y-3745266D01*
G01X21793359Y-3745266D01*
G01X21904103Y-3705134D02*
G01X21904103Y-3802416D01*
G01X21909691Y-3819434D01*
G01X21921121Y-3825276D01*
G01X21932551Y-3825276D01*
G01X21886831Y-3745266D02*
G01X21926963Y-3745266D01*
G01X21997575Y-3705134D02*
G01X21997575Y-3802416D01*
G01X22003163Y-3819434D01*
G01X22014593Y-3825276D01*
G01X22026023Y-3825276D01*
G01X21980303Y-3745266D02*
G01X22020435Y-3745266D01*
G01X22102477Y-3745266D02*
G01X22091047Y-3750854D01*
G01X22079617Y-3762284D01*
G01X22073775Y-3779556D01*
G01X22073775Y-3790986D01*
G01X22079617Y-3808004D01*
G01X22091047Y-3819434D01*
G01X22102477Y-3825276D01*
G01X22119495Y-3825276D01*
G01X22130925Y-3819434D01*
G01X22142355Y-3808004D01*
G01X22148197Y-3790986D01*
G01X22148197Y-3779556D01*
G01X22142355Y-3762284D01*
G01X22130925Y-3750854D01*
G01X22119495Y-3745266D01*
G01X22102477Y-3745266D01*
G01X22195949Y-3745266D02*
G01X22195949Y-3825276D01*
G01X22195949Y-3768126D02*
G01X22213221Y-3750854D01*
G01X22224651Y-3745266D01*
G01X22241669Y-3745266D01*
G01X22253099Y-3750854D01*
G01X22258941Y-3768126D01*
G01X22258941Y-3825276D01*
G01X22258941Y-3768126D02*
G01X22275959Y-3750854D01*
G01X22287389Y-3745266D01*
G01X22304661Y-3745266D01*
G01X22316091Y-3750854D01*
G01X22321679Y-3768126D01*
G01X22321679Y-3825276D01*
G01X22497447Y-3705134D02*
G01X22497447Y-3825276D01*
G01X22497447Y-3825276D02*
G01X22566027Y-3825276D01*
G01X22682359Y-3745266D02*
G01X22682359Y-3825276D01*
G01X22682359Y-3762284D02*
G01X22670929Y-3750854D01*
G01X22659499Y-3745266D01*
G01X22642481Y-3745266D01*
G01X22631051Y-3750854D01*
G01X22619621Y-3762284D01*
G01X22613779Y-3779556D01*
G01X22613779Y-3790986D01*
G01X22619621Y-3808004D01*
G01X22631051Y-3819434D01*
G01X22642481Y-3825276D01*
G01X22659499Y-3825276D01*
G01X22670929Y-3819434D01*
G01X22682359Y-3808004D01*
G01X22735953Y-3745266D02*
G01X22770243Y-3825276D01*
G01X22804533Y-3745266D02*
G01X22770243Y-3825276D01*
G01X22758813Y-3848136D01*
G01X22747383Y-3859566D01*
G01X22735953Y-3865154D01*
G01X22730111Y-3865154D01*
G01X22852285Y-3779556D02*
G01X22920865Y-3779556D01*
G01X22920865Y-3768126D01*
G01X22915277Y-3756696D01*
G01X22909435Y-3750854D01*
G01X22898005Y-3745266D01*
G01X22880987Y-3745266D01*
G01X22869557Y-3750854D01*
G01X22858127Y-3762284D01*
G01X22852285Y-3779556D01*
G01X22852285Y-3790986D01*
G01X22858127Y-3808004D01*
G01X22869557Y-3819434D01*
G01X22880987Y-3825276D01*
G01X22898005Y-3825276D01*
G01X22909435Y-3819434D01*
G01X22920865Y-3808004D01*
G01X22968617Y-3745266D02*
G01X22968617Y-3825276D01*
G01X22968617Y-3779556D02*
G01X22974459Y-3762284D01*
G01X22985889Y-3750854D01*
G01X22997319Y-3745266D01*
G01X23014337Y-3745266D01*

G04 Image Start*
G36*
G01X7587262Y-2724604D02*
G01X7481649Y-2713123D01*
G01X7438774Y-2810329D01*
G01X7395899Y-2713123D01*
G01X7290286Y-2724604D01*
G01X7353049Y-2638879D01*
G01X7313327Y-2584624D01*
G01X7344819Y-2584624D01*
G01X7384520Y-2638879D01*
G01X7344819Y-2693133D01*
G01X7411647Y-2685869D01*
G01X7411647Y-2685869D01*
G01X7438774Y-2747362D01*
G01X7465901Y-2685869D01*
G01X7532729Y-2693133D01*
G01X7493028Y-2638879D01*
G01X7532703Y-2584650D01*
G01X7465876Y-2591914D01*
G01X7438774Y-2530395D01*
G01X7411647Y-2591889D01*
G01X7344819Y-2584624D01*
G01X7313327Y-2584624D01*
G01X7290286Y-2553154D01*
G01X7395924Y-2564634D01*
G01X7438774Y-2467429D01*
G01X7481649Y-2564634D01*
G01X7587262Y-2553154D01*
G01X7524499Y-2638879D01*
G01X7587262Y-2724604D01*
G37*
G36*
G01X7458269Y-1610299D02*
G01X7450529Y-1610887D01*
G01X7442686Y-1611086D01*
G01X7434842Y-1610887D01*
G01X7427102Y-1610299D01*
G01X7419475Y-1609330D01*
G01X7411970Y-1607990D01*
G01X7397364Y-1604235D01*
G01X7383362Y-1599110D01*
G01X7370039Y-1592693D01*
G01X7357474Y-1585060D01*
G01X7345742Y-1576287D01*
G01X7334920Y-1566452D01*
G01X7325084Y-1555629D01*
G01X7316311Y-1543897D01*
G01X7308678Y-1531332D01*
G01X7302261Y-1518010D01*
G01X7297137Y-1504008D01*
G01X7293382Y-1489402D01*
G01X7292041Y-1481896D01*
G01X7291072Y-1474269D01*
G01X7290484Y-1466529D01*
G01X7290286Y-1458686D01*
G01X7315686Y-1458686D01*
G01X7316343Y-1471652D01*
G01X7318270Y-1484248D01*
G01X7321405Y-1496410D01*
G01X7325682Y-1508072D01*
G01X7331036Y-1519172D01*
G01X7337405Y-1529643D01*
G01X7344723Y-1539423D01*
G01X7352925Y-1548446D01*
G01X7361948Y-1556649D01*
G01X7371728Y-1563966D01*
G01X7382200Y-1570335D01*
G01X7393299Y-1575690D01*
G01X7404961Y-1579966D01*
G01X7417123Y-1583101D01*
G01X7417123Y-1583101D01*
G01X7429719Y-1585029D01*
G01X7442686Y-1585686D01*
G01X7455652Y-1585029D01*
G01X7468248Y-1583101D01*
G01X7480410Y-1579966D01*
G01X7492072Y-1575690D01*
G01X7503172Y-1570335D01*
G01X7513643Y-1563966D01*
G01X7523423Y-1556649D01*
G01X7532446Y-1548446D01*
G01X7540649Y-1539423D01*
G01X7547966Y-1529643D01*
G01X7554335Y-1519172D01*
G01X7559690Y-1508072D01*
G01X7563966Y-1496410D01*
G01X7567101Y-1484248D01*
G01X7569029Y-1471652D01*
G01X7569686Y-1458686D01*
G01X7569029Y-1445719D01*
G01X7567101Y-1433123D01*
G01X7563966Y-1420962D01*
G01X7559690Y-1409299D01*
G01X7554335Y-1398200D01*
G01X7547966Y-1387728D01*
G01X7540649Y-1377949D01*
G01X7532446Y-1368925D01*
G01X7523423Y-1360723D01*
G01X7513643Y-1353405D01*
G01X7503172Y-1347037D01*
G01X7492072Y-1341682D01*
G01X7480410Y-1337405D01*
G01X7468248Y-1334271D01*
G01X7455652Y-1332343D01*
G01X7442686Y-1331686D01*
G01X7429719Y-1332343D01*
G01X7417123Y-1334271D01*
G01X7404961Y-1337405D01*
G01X7393299Y-1341682D01*
G01X7382200Y-1347037D01*
G01X7371728Y-1353405D01*
G01X7361948Y-1360723D01*
G01X7352925Y-1368925D01*
G01X7344723Y-1377949D01*
G01X7337405Y-1387728D01*
G01X7331036Y-1398200D01*
G01X7325682Y-1409299D01*
G01X7321405Y-1420962D01*
G01X7318270Y-1433123D01*
G01X7316343Y-1445719D01*
G01X7315686Y-1458686D01*
G01X7290286Y-1458686D01*
G01X7290484Y-1450843D01*
G01X7291072Y-1443102D01*
G01X7292041Y-1435475D01*
G01X7293382Y-1427970D01*
G01X7297137Y-1413364D01*
G01X7302261Y-1399362D01*
G01X7308678Y-1386040D01*
G01X7316311Y-1373474D01*
G01X7325084Y-1361742D01*
G01X7334920Y-1350920D01*
G01X7345742Y-1341084D01*
G01X7357474Y-1332311D01*
G01X7370039Y-1324678D01*
G01X7383362Y-1318261D01*
G01X7397364Y-1313137D01*
G01X7411970Y-1309382D01*
G01X7419475Y-1308042D01*
G01X7427102Y-1307072D01*
G01X7434842Y-1306484D01*
G01X7442686Y-1306286D01*
G01X7450529Y-1306484D01*
G01X7458269Y-1307072D01*
G01X7465896Y-1308042D01*
G01X7473402Y-1309382D01*
G01X7488007Y-1313137D01*
G01X7502010Y-1318261D01*
G01X7515332Y-1324678D01*
G01X7527897Y-1332311D01*
G01X7539629Y-1341084D01*
G01X7550451Y-1350920D01*
G01X7560287Y-1361742D01*
G01X7569060Y-1373474D01*
G01X7576693Y-1386040D01*
G01X7583110Y-1399362D01*
G01X7588235Y-1413364D01*
G01X7591990Y-1427970D01*
G01X7593330Y-1435475D01*
G01X7594299Y-1443102D01*
G01X7594887Y-1450843D01*
G01X7595086Y-1458686D01*
G01X7594887Y-1466529D01*
G01X7594299Y-1474269D01*
G01X7593330Y-1481896D01*
G01X7591990Y-1489402D01*
G01X7588235Y-1504008D01*
G01X7583110Y-1518010D01*
G01X7576693Y-1531332D01*
G01X7569060Y-1543897D01*
G01X7560287Y-1555629D01*
G01X7550451Y-1566452D01*
G01X7539629Y-1576287D01*
G01X7527897Y-1585060D01*
G01X7515332Y-1592693D01*
G01X7502010Y-1599110D01*
G01X7488007Y-1604235D01*
G01X7473402Y-1607990D01*
G01X7465896Y-1609330D01*
G01X7458269Y-1610299D01*
G37*
G36*
G01X7595086Y-3850237D02*
G01X7511977Y-3850237D01*
G01X7511977Y-3933371D01*
G01X7373420Y-3933371D01*
G01X7373420Y-3850263D01*
G01X7290286Y-3850263D01*
G01X7290286Y-3737106D01*
G01X7315686Y-3737106D01*
G01X7315686Y-3824837D01*
G01X7398820Y-3824837D01*
G01X7398820Y-3907971D01*
G01X7398820Y-3907971D01*
G01X7486551Y-3907971D01*
G01X7486551Y-3824863D01*
G01X7569686Y-3824863D01*
G01X7569686Y-3737106D01*
G01X7486551Y-3737106D01*
G01X7486551Y-3653971D01*
G01X7398820Y-3653971D01*
G01X7398820Y-3737106D01*
G01X7315686Y-3737106D01*
G01X7290286Y-3737106D01*
G01X7290286Y-3711706D01*
G01X7373420Y-3711706D01*
G01X7373420Y-3628571D01*
G01X7511951Y-3628571D01*
G01X7511951Y-3711706D01*
G01X7595086Y-3711706D01*
G01X7595086Y-3850237D01*
G37*
G36*
G01X7595086Y-3048000D02*
G01X7525058Y-3200400D01*
G01X7595086Y-3352800D01*
G01X7442686Y-3282772D01*
G01X7290286Y-3352800D01*
G01X7314048Y-3301086D01*
G01X7342000Y-3301086D01*
G01X7432068Y-3259684D01*
G01X7442686Y-3254807D01*
G01X7453303Y-3259684D01*
G01X7543371Y-3301086D01*
G01X7501969Y-3211017D01*
G01X7497092Y-3200400D01*
G01X7501969Y-3189783D01*
G01X7543371Y-3099714D01*
G01X7453303Y-3141116D01*
G01X7442686Y-3145993D01*
G01X7432068Y-3141116D01*
G01X7342000Y-3099714D01*
G01X7383402Y-3189783D01*
G01X7388279Y-3200400D01*
G01X7388279Y-3200400D01*
G01X7383402Y-3211017D01*
G01X7342000Y-3301086D01*
G01X7314048Y-3301086D01*
G01X7360313Y-3200400D01*
G01X7290286Y-3048000D01*
G01X7442686Y-3118028D01*
G01X7595086Y-3048000D01*
G37*
G36*
G01X7290286Y-1886857D02*
G01X7595086Y-1886857D01*
G01X7442686Y-2150814D01*
G01X7304951Y-1912257D01*
G01X7334278Y-1912257D01*
G01X7442686Y-2100014D01*
G01X7551093Y-1912257D01*
G01X7551093Y-1912257D01*
G01X7334278Y-1912257D01*
G01X7304951Y-1912257D01*
G01X7290286Y-1886857D01*
G37*
G36*
G01X7290286Y-725714D02*
G01X7569686Y-725714D01*
G01X7569686Y-1005114D01*
G01X7290286Y-1005114D01*
G01X7290286Y-751114D01*
G01X7315686Y-751114D01*
G01X7315686Y-979714D01*
G01X7544286Y-979714D01*
G01X7544286Y-751114D01*
G01X7544286Y-751114D01*
G01X7315686Y-751114D01*
G01X7290286Y-751114D01*
G01X7290286Y-725714D01*
G37*

G04 PolygonModel Start*
G54D17*
G01X7000000Y-4064000D02*
G01X23605068Y-4064000D01*
G01X7000000Y-3483429D02*
G01X23605068Y-3483429D01*
G01X7000000Y-2902857D02*
G01X23605068Y-2902857D01*
G01X7000000Y-2322286D02*
G01X23605068Y-2322286D01*
G01X7000000Y-1741714D02*
G01X23605068Y-1741714D01*
G01X7000000Y-1161143D02*
G01X23605068Y-1161143D01*
G01X7000000Y-580571D02*
G01X23605068Y-580571D01*
G01X7000000Y0D02*
G01X23605068Y0D01*
G01X7000000Y0D02*
G01X7000000Y-4038600D01*
G01X8451428Y0D02*
G01X8451428Y-4038600D01*
G01X9865592Y0D02*
G01X9865592Y-4038600D01*
G01X13645765Y0D02*
G01X13645765Y-4038600D01*
G01X15107172Y0D02*
G01X15107172Y-4038600D01*
G01X16538353Y0D02*
G01X16538353Y-4038600D01*
G01X18207532Y0D02*
G01X18207532Y-4038600D01*
G01X20126901Y0D02*
G01X20126901Y-4038600D01*
G01X23605068Y0D02*
G01X23605068Y-4038600D01*

M02*

